<svg width="101" height="117" viewBox="0 0 101 117" fill="none" xmlns="http://www.w3.org/2000/svg">
<path d="M100.301 113.398C100.523 113.234 100.57 112.921 100.406 112.699L97.7309 109.08C97.5668 108.858 97.2537 108.811 97.0316 108.976C96.8096 109.14 96.7626 109.453 96.9267 109.675L99.3043 112.892L96.0876 115.269C95.8655 115.433 95.8186 115.746 95.9827 115.968C96.1468 116.19 96.4599 116.237 96.682 116.073L100.301 113.398ZM0.503605 -0.00870285C0.101944 39.3541 16.5946 66.4896 37.3772 84.4002C58.1436 102.297 83.1858 110.979 99.9294 113.491L100.078 112.502C83.488 110.013 58.6303 101.396 38.03 83.6426C17.4459 65.9032 1.10521 39.0387 1.50355 0.0015007L0.503605 -0.00870285Z" fill="black"/>
</svg>
