<svg width="644" height="499" viewBox="0 0 644 499" fill="none" xmlns="http://www.w3.org/2000/svg">
<path d="M83.9331 43.0015H361.062C452.095 43.0015 525.891 116.798 525.891 207.831V333.422C525.891 424.455 452.095 498.252 361.062 498.252H248.762C157.73 498.252 83.9331 424.455 83.9331 333.422V43.0015Z" fill="#0070F0" fill-opacity="0.2"/>
<path d="M69.7829 112.783C31.2429 112.783 -1.36567e-06 81.54 -3.05031e-06 43L69.7829 43L69.7829 112.783Z" fill="#FFDCE0"/>
<path d="M68.2783 486.761L68.2783 480.115C68.2783 459.01 85.3875 441.901 106.493 441.901C127.598 441.901 144.707 459.01 144.707 480.115L144.707 486.761L68.2783 486.761Z" fill="#FEF3D9"/>
<path d="M555.983 104.533C555.983 104.533 479.241 25.9244 379.508 19.854C279.776 13.7836 221.618 78.2135 194.059 116.637C166.499 155.06 97.7386 219.08 105.847 277.7C113.956 336.321 193.454 380.8 307.335 361.26C421.217 341.72 454.235 334.305 506.121 349.134C558.006 363.963 625.393 341.72 626.737 257.488C628.081 173.257 555.983 104.533 555.983 104.533Z" fill="#2673DD"/>
<path opacity="0.7" d="M555.983 104.533C555.983 104.533 479.241 25.9244 379.508 19.854C279.776 13.7836 221.618 78.2135 194.059 116.637C166.499 155.06 97.7386 219.08 105.847 277.7C113.956 336.321 193.454 380.8 307.335 361.26C421.217 341.72 454.235 334.305 506.121 349.134C558.006 363.963 625.393 341.72 626.737 257.488C628.081 173.257 555.983 104.533 555.983 104.533Z" fill="white"/>
<path d="M120.527 340.965H607.294" stroke="#263238" stroke-miterlimit="10"/>
<path d="M141.732 216.183L151.581 310.487" stroke="#263238" stroke-width="2" stroke-miterlimit="10"/>
<path d="M149.99 292.44L145.533 287.728" stroke="#263238" stroke-width="2" stroke-miterlimit="10"/>
<path d="M146.884 289.139C146.875 288.418 146.712 287.707 146.406 287.054C146.099 286.401 145.656 285.821 145.107 285.354C143.965 284.331 137.939 281.8 137.364 283.92C136.745 286.227 142.912 290.767 146.884 289.139Z" fill="#2673DD" stroke="#263238" stroke-miterlimit="10"/>
<path d="M146.884 289.139L141.15 285.563" stroke="#263238" stroke-width="0.5" stroke-miterlimit="10"/>
<path d="M151.11 303.169L146.653 298.458" stroke="#263238" stroke-width="2" stroke-miterlimit="10"/>
<path d="M148.004 299.869C147.996 299.148 147.833 298.436 147.526 297.783C147.22 297.13 146.777 296.551 146.227 296.083C145.085 295.06 139.059 292.522 138.484 294.642C137.865 296.957 144.032 301.489 148.004 299.869Z" fill="#2673DD" stroke="#263238" stroke-miterlimit="10"/>
<path d="M148.004 299.869L142.27 296.292" stroke="#263238" stroke-width="0.5" stroke-miterlimit="10"/>
<path d="M147.258 266.269L142.8 261.557" stroke="#263238" stroke-width="2" stroke-miterlimit="10"/>
<path d="M144.151 262.969C144.142 262.248 143.98 261.538 143.675 260.885C143.37 260.232 142.929 259.652 142.382 259.183C141.232 258.16 135.206 255.621 134.631 257.749C134.027 260.057 140.179 264.589 144.151 262.969Z" fill="#2673DD" stroke="#263238" stroke-miterlimit="10"/>
<path d="M144.151 262.969L138.417 259.392" stroke="#263238" stroke-width="0.5" stroke-miterlimit="10"/>
<path d="M148.378 276.991L143.92 272.28" stroke="#263238" stroke-width="2" stroke-miterlimit="10"/>
<path d="M145.271 273.691C145.262 272.97 145.099 272.259 144.793 271.606C144.486 270.953 144.044 270.373 143.494 269.905C142.352 268.882 136.326 266.351 135.751 268.472C135.132 270.779 141.299 275.319 145.271 273.691Z" fill="#2673DD" stroke="#263238" stroke-miterlimit="10"/>
<path d="M145.271 273.691L139.537 270.114" stroke="#263238" stroke-width="0.5" stroke-miterlimit="10"/>
<path d="M145.443 248.842L140.978 244.13" stroke="#263238" stroke-width="2" stroke-miterlimit="10"/>
<path d="M142.337 245.541C142.328 244.82 142.165 244.109 141.858 243.456C141.552 242.803 141.109 242.224 140.56 241.756C139.418 240.74 133.385 238.202 132.817 240.322C132.19 242.667 138.365 247.147 142.337 245.541Z" fill="#2673DD" stroke="#263238" stroke-miterlimit="10"/>
<path d="M142.337 245.541L136.595 241.965" stroke="#263238" stroke-width="0.5" stroke-miterlimit="10"/>
<path d="M143.614 231.347L139.156 226.636" stroke="#263238" stroke-width="2" stroke-miterlimit="10"/>
<path d="M140.508 228.047C140.499 227.326 140.336 226.615 140.029 225.962C139.723 225.309 139.28 224.729 138.731 224.261C137.588 223.239 131.563 220.7 130.988 222.828C130.368 225.135 136.535 229.667 140.508 228.047Z" fill="#2673DD" stroke="#263238" stroke-miterlimit="10"/>
<path d="M140.508 228.047L134.773 224.471" stroke="#263238" stroke-width="0.5" stroke-miterlimit="10"/>
<path d="M149.244 286.093L152.634 280.56" stroke="#263238" stroke-width="2" stroke-miterlimit="10"/>
<path d="M151.603 282.24C151.462 281.533 151.474 280.804 151.639 280.102C151.803 279.399 152.117 278.741 152.559 278.171C153.462 276.931 158.838 273.205 159.839 275.184C160.907 277.282 155.822 282.987 151.603 282.24Z" fill="#2673DD" stroke="#263238" stroke-miterlimit="10"/>
<path d="M151.603 282.225L156.77 277.282" stroke="#263238" stroke-width="0.5" stroke-miterlimit="10"/>
<path d="M146.294 257.869L149.692 252.336" stroke="#263238" stroke-width="2" stroke-miterlimit="10"/>
<path d="M148.654 254.001C148.514 253.294 148.527 252.565 148.692 251.863C148.857 251.161 149.17 250.503 149.61 249.932C150.521 248.692 155.897 244.967 156.89 246.945C157.98 249.058 152.88 254.763 148.654 254.001Z" fill="#2673DD" stroke="#263238" stroke-miterlimit="10"/>
<path d="M148.654 254.001L153.821 249.058" stroke="#263238" stroke-width="0.5" stroke-miterlimit="10"/>
<path d="M145.003 245.467L148.393 239.934" stroke="#263238" stroke-width="2" stroke-miterlimit="10"/>
<path d="M147.362 241.592C147.221 240.884 147.233 240.155 147.398 239.453C147.562 238.751 147.876 238.092 148.318 237.522C149.229 236.29 154.597 232.564 155.598 234.536C156.681 236.649 151.581 242.361 147.362 241.592Z" fill="#2673DD" stroke="#263238" stroke-miterlimit="10"/>
<path d="M147.362 241.592L152.529 236.656" stroke="#263238" stroke-width="0.5" stroke-miterlimit="10"/>
<path d="M143.106 227.285L146.496 221.753" stroke="#263238" stroke-width="2" stroke-miterlimit="10"/>
<path d="M145.466 223.41C145.324 222.703 145.336 221.974 145.501 221.272C145.666 220.57 145.98 219.911 146.421 219.341C147.325 218.101 152.701 214.376 153.701 216.354C154.784 218.467 149.707 224.179 145.466 223.41Z" fill="#2673DD" stroke="#263238" stroke-miterlimit="10"/>
<path d="M145.466 223.41L150.633 218.475" stroke="#263238" stroke-width="0.5" stroke-miterlimit="10"/>
<path d="M141.65 215.652C141.51 214.945 141.524 214.216 141.688 213.514C141.853 212.813 142.166 212.154 142.606 211.583C143.517 210.351 148.893 206.625 149.893 208.596C150.976 210.709 145.876 216.421 141.65 215.652Z" fill="#2673DD" stroke="#263238" stroke-miterlimit="10"/>
<path d="M141.65 215.652L146.817 210.717" stroke="#263238" stroke-width="0.5" stroke-miterlimit="10"/>
<path d="M141.956 215.869C141.237 215.935 140.513 215.846 139.831 215.608C139.15 215.369 138.527 214.987 138.006 214.488C136.871 213.457 133.728 207.723 135.766 206.931C138.014 206.08 143.158 211.747 141.956 215.869Z" fill="#2673DD" stroke="#263238" stroke-miterlimit="10"/>
<path d="M141.956 215.869L137.581 210.209" stroke="#263238" stroke-width="0.5" stroke-miterlimit="10"/>
<path d="M167.694 229.167L157.905 323.486" stroke="#263238" stroke-width="2" stroke-miterlimit="10"/>
<path d="M160.07 305.499L156.673 299.966" stroke="#263238" stroke-width="2" stroke-miterlimit="10"/>
<path d="M157.711 301.653C157.851 300.946 157.838 300.217 157.673 299.516C157.508 298.814 157.195 298.155 156.755 297.584C155.844 296.352 150.468 292.626 149.468 294.597C148.385 296.688 153.492 302.4 157.711 301.653Z" fill="#2673DD" stroke="#263238" stroke-miterlimit="10"/>
<path d="M157.711 301.624L152.835 296.942" stroke="#263238" stroke-width="0.5" stroke-miterlimit="10"/>
<path d="M162.788 279.321L159.391 273.788" stroke="#263238" stroke-width="2" stroke-miterlimit="10"/>
<path d="M160.429 275.453C160.568 274.746 160.555 274.017 160.391 273.315C160.226 272.613 159.913 271.955 159.473 271.384C158.562 270.144 153.186 266.426 152.186 268.397C151.103 270.51 156.203 276.222 160.429 275.453Z" fill="#2673DD" stroke="#263238" stroke-miterlimit="10"/>
<path d="M160.429 275.453L155.546 270.771" stroke="#263238" stroke-width="0.5" stroke-miterlimit="10"/>
<path d="M161.676 290.05L158.278 284.517" stroke="#263238" stroke-width="2" stroke-miterlimit="10"/>
<path d="M159.316 286.175C159.456 285.468 159.443 284.739 159.278 284.037C159.113 283.335 158.8 282.677 158.361 282.106C157.45 280.874 152.074 277.148 151.073 279.119C149.99 281.24 155.09 286.944 159.316 286.175Z" fill="#2673DD" stroke="#263238" stroke-miterlimit="10"/>
<path d="M159.316 286.175L154.433 281.493" stroke="#263238" stroke-width="0.5" stroke-miterlimit="10"/>
<path d="M164.595 261.893L161.198 256.368" stroke="#263238" stroke-width="2" stroke-miterlimit="10"/>
<path d="M162.236 258.026C162.375 257.319 162.362 256.59 162.197 255.888C162.033 255.186 161.72 254.528 161.28 253.956C160.369 252.717 154.993 248.999 153.993 250.97C152.91 253.12 158.017 258.795 162.236 258.026Z" fill="#2673DD" stroke="#263238" stroke-miterlimit="10"/>
<path d="M162.236 258.026L157.36 253.344" stroke="#263238" stroke-width="0.5" stroke-miterlimit="10"/>
<path d="M166.41 244.399L163.02 238.866" stroke="#263238" stroke-width="2" stroke-miterlimit="10"/>
<path d="M164.05 240.524C164.192 239.817 164.18 239.087 164.015 238.385C163.85 237.683 163.536 237.025 163.094 236.455C162.183 235.223 156.807 231.497 155.807 233.468C154.724 235.588 159.831 241.293 164.05 240.524Z" fill="#2673DD" stroke="#263238" stroke-miterlimit="10"/>
<path d="M164.05 240.524L159.174 235.842" stroke="#263238" stroke-width="0.5" stroke-miterlimit="10"/>
<path d="M160.645 299.13L165.103 294.418" stroke="#263238" stroke-width="2" stroke-miterlimit="10"/>
<path d="M163.751 295.829C163.758 295.109 163.919 294.397 164.225 293.744C164.53 293.091 164.972 292.511 165.521 292.044C166.671 291.021 172.697 288.482 173.264 290.603C173.891 292.91 167.724 297.45 163.751 295.829Z" fill="#2673DD" stroke="#263238" stroke-miterlimit="10"/>
<path d="M163.751 295.829L169.822 292.059" stroke="#263238" stroke-width="0.5" stroke-miterlimit="10"/>
<path d="M163.572 270.906L168.03 266.187" stroke="#263238" stroke-width="2" stroke-miterlimit="10"/>
<path d="M166.678 267.598C166.687 266.877 166.851 266.166 167.157 265.513C167.464 264.86 167.906 264.28 168.455 263.812C169.598 262.789 175.623 260.251 176.198 262.379C176.818 264.686 170.651 269.218 166.678 267.598Z" fill="#2673DD" stroke="#263238" stroke-miterlimit="10"/>
<path d="M166.678 267.598L172.749 263.835" stroke="#263238" stroke-width="0.5" stroke-miterlimit="10"/>
<path d="M164.864 258.496L169.322 253.785" stroke="#263238" stroke-width="2" stroke-miterlimit="10"/>
<path d="M167.963 255.196C167.972 254.475 168.135 253.764 168.441 253.111C168.748 252.458 169.191 251.878 169.74 251.41C170.882 250.387 176.908 247.849 177.483 249.969C178.08 252.276 171.942 256.853 167.963 255.196Z" fill="#2673DD" stroke="#263238" stroke-miterlimit="10"/>
<path d="M167.963 255.196L174.041 251.425" stroke="#263238" stroke-width="0.5" stroke-miterlimit="10"/>
<path d="M166.746 240.315L171.211 235.596" stroke="#263238" stroke-width="2" stroke-miterlimit="10"/>
<path d="M169.867 237.015C169.875 236.293 170.038 235.582 170.345 234.929C170.651 234.276 171.094 233.696 171.644 233.229C172.786 232.199 178.812 229.66 179.387 231.788C179.991 234.095 173.824 238.635 169.867 237.015Z" fill="#2673DD" stroke="#263238" stroke-miterlimit="10"/>
<path d="M169.852 237.015L175.93 233.244" stroke="#263238" stroke-width="0.5" stroke-miterlimit="10"/>
<path d="M167.724 228.637C167.733 227.916 167.895 227.206 168.2 226.553C168.506 225.901 168.946 225.32 169.493 224.851C170.643 223.828 176.669 221.29 177.236 223.41C177.863 225.717 171.696 230.257 167.724 228.637Z" fill="#2673DD" stroke="#263238" stroke-miterlimit="10"/>
<path d="M167.724 228.637L173.794 224.866" stroke="#263238" stroke-width="0.5" stroke-miterlimit="10"/>
<path d="M167.97 228.906C167.255 228.822 166.565 228.586 165.948 228.214C165.331 227.842 164.801 227.342 164.394 226.748C163.498 225.501 161.601 219.244 163.774 218.893C166.133 218.52 170.001 225.128 167.97 228.906Z" fill="#2673DD" stroke="#263238" stroke-miterlimit="10"/>
<path d="M167.97 228.906L164.857 222.477" stroke="#263238" stroke-width="0.5" stroke-miterlimit="10"/>
<path d="M156.479 190.759V310.031" stroke="#263238" stroke-width="2" stroke-miterlimit="10"/>
<path d="M156.576 292.096L152.626 286.944" stroke="#263238" stroke-width="2" stroke-miterlimit="10"/>
<path d="M153.828 288.49C153.894 287.771 153.806 287.047 153.569 286.366C153.332 285.685 152.952 285.062 152.454 284.54C151.424 283.405 145.69 280.261 144.898 282.3C144.039 284.54 149.707 289.707 153.828 288.49Z" fill="#2673DD" stroke="#263238" stroke-miterlimit="10"/>
<path d="M153.828 288.49L148.49 284.338" stroke="#263238" stroke-width="0.5" stroke-miterlimit="10"/>
<path d="M156.576 269.681L152.626 264.537" stroke="#263238" stroke-width="2" stroke-miterlimit="10"/>
<path d="M153.828 266.075C153.894 265.358 153.806 264.635 153.569 263.955C153.332 263.275 152.952 262.653 152.454 262.132C151.424 260.99 145.69 257.847 144.898 259.892C144.039 262.132 149.707 267.307 153.828 266.075Z" fill="#2673DD" stroke="#263238" stroke-miterlimit="10"/>
<path d="M153.828 266.075L148.49 261.923" stroke="#263238" stroke-width="0.5" stroke-miterlimit="10"/>
<path d="M156.576 243.369L152.626 238.217" stroke="#263238" stroke-width="2" stroke-miterlimit="10"/>
<path d="M153.828 239.762C153.894 239.044 153.806 238.32 153.569 237.639C153.332 236.957 152.952 236.335 152.454 235.812C151.424 234.677 145.69 231.534 144.898 233.572C144.039 235.812 149.707 240.964 153.828 239.762Z" fill="#2673DD" stroke="#263238" stroke-miterlimit="10"/>
<path d="M153.828 239.762L148.49 235.611" stroke="#263238" stroke-width="0.5" stroke-miterlimit="10"/>
<path d="M156.576 225.852L152.626 220.7" stroke="#263238" stroke-width="2" stroke-miterlimit="10"/>
<path d="M153.828 222.245C153.894 221.527 153.806 220.803 153.569 220.122C153.332 219.441 152.952 218.818 152.454 218.296C151.424 217.161 145.69 214.01 144.898 216.056C144.039 218.296 149.707 223.448 153.828 222.245Z" fill="#2673DD" stroke="#263238" stroke-miterlimit="10"/>
<path d="M153.828 222.245L148.49 218.094" stroke="#263238" stroke-width="0.5" stroke-miterlimit="10"/>
<path d="M156.576 208.253L152.626 203.108" stroke="#263238" stroke-width="2" stroke-miterlimit="10"/>
<path d="M153.828 204.654C153.894 203.936 153.806 203.212 153.569 202.53C153.332 201.849 152.952 201.226 152.454 200.704C151.424 199.569 145.69 196.418 144.898 198.464C144.039 200.704 149.707 205.856 153.828 204.654Z" fill="#2673DD" stroke="#263238" stroke-miterlimit="10"/>
<path d="M153.828 204.654L148.49 200.503" stroke="#263238" stroke-width="0.5" stroke-miterlimit="10"/>
<path d="M156.486 298.943L160.436 293.791" stroke="#263238" stroke-width="2" stroke-miterlimit="10"/>
<path d="M159.234 295.337C159.168 294.618 159.256 293.894 159.493 293.213C159.73 292.532 160.11 291.909 160.608 291.387C161.638 290.252 167.373 287.101 168.164 289.147C169.023 291.387 163.356 296.539 159.234 295.337Z" fill="#2673DD" stroke="#263238" stroke-miterlimit="10"/>
<path d="M159.234 295.337L164.886 290.961" stroke="#263238" stroke-width="0.5" stroke-miterlimit="10"/>
<path d="M156.486 263.297L160.436 258.145" stroke="#263238" stroke-width="2" stroke-miterlimit="10"/>
<path d="M159.234 259.691C159.168 258.973 159.256 258.248 159.493 257.567C159.73 256.886 160.11 256.263 160.608 255.741C161.638 254.606 167.373 251.455 168.164 253.501C169.023 255.741 163.356 260.893 159.234 259.691Z" fill="#2673DD" stroke="#263238" stroke-miterlimit="10"/>
<path d="M159.234 259.691L164.886 255.315" stroke="#263238" stroke-width="0.5" stroke-miterlimit="10"/>
<path d="M156.486 245.698L160.436 240.546" stroke="#263238" stroke-width="2" stroke-miterlimit="10"/>
<path d="M159.234 242.092C159.168 241.374 159.256 240.649 159.493 239.968C159.73 239.287 160.11 238.664 160.608 238.142C161.638 237.007 167.373 233.864 168.164 235.902C169.023 238.142 163.356 243.294 159.234 242.092Z" fill="#2673DD" stroke="#263238" stroke-miterlimit="10"/>
<path d="M159.234 242.092L164.886 237.716" stroke="#263238" stroke-width="0.5" stroke-miterlimit="10"/>
<path d="M156.486 222.447L160.436 217.295" stroke="#263238" stroke-width="2" stroke-miterlimit="10"/>
<path d="M159.234 218.841C159.168 218.122 159.256 217.398 159.493 216.717C159.73 216.036 160.11 215.413 160.608 214.891C161.638 213.756 167.373 210.605 168.164 212.651C169.023 214.891 163.356 220.043 159.234 218.841Z" fill="#2673DD" stroke="#263238" stroke-miterlimit="10"/>
<path d="M159.234 218.841L164.886 214.465" stroke="#263238" stroke-width="0.5" stroke-miterlimit="10"/>
<path d="M156.486 204.161L160.436 199.009" stroke="#263238" stroke-width="2" stroke-miterlimit="10"/>
<path d="M159.234 200.555C159.168 199.837 159.256 199.112 159.493 198.431C159.73 197.75 160.11 197.127 160.608 196.605C161.638 195.47 167.373 192.327 168.164 194.365C169.023 196.605 163.356 201.757 159.234 200.555Z" fill="#2673DD" stroke="#263238" stroke-miterlimit="10"/>
<path d="M159.234 200.555L164.886 196.179" stroke="#263238" stroke-width="0.5" stroke-miterlimit="10"/>
<path d="M156.255 192.446C156.188 191.728 156.276 191.005 156.511 190.323C156.747 189.642 157.126 189.019 157.621 188.496C158.659 187.361 164.386 184.218 165.178 186.256C166.036 188.496 160.369 193.648 156.255 192.446Z" fill="#2673DD" stroke="#263238" stroke-miterlimit="10"/>
<path d="M156.255 192.446L161.9 188.071" stroke="#263238" stroke-width="0.5" stroke-miterlimit="10"/>
<path d="M156.524 192.692C155.803 192.683 155.093 192.519 154.441 192.211C153.789 191.903 153.211 191.459 152.746 190.908C151.723 189.765 149.191 183.732 151.319 183.165C153.627 182.545 158.151 188.72 156.524 192.692Z" fill="#2673DD" stroke="#263238" stroke-miterlimit="10"/>
<path d="M156.524 192.692L152.768 186.615" stroke="#263238" stroke-width="0.5" stroke-miterlimit="10"/>
<path d="M161.385 340.965H148.758L147.175 309.06H162.967L161.385 340.965Z" fill="#263238" stroke="#263238" stroke-miterlimit="10"/>
<path d="M564.935 216.183L574.777 310.487" stroke="#263238" stroke-width="2" stroke-miterlimit="10"/>
<path d="M573.194 292.44L568.729 287.728" stroke="#263238" stroke-width="2" stroke-miterlimit="10"/>
<path d="M570.08 289.139C570.071 288.418 569.908 287.707 569.601 287.054C569.295 286.401 568.852 285.821 568.303 285.354C567.161 284.331 561.127 281.8 560.56 283.92C559.94 286.227 566.115 290.767 570.08 289.139Z" fill="#2673DD" stroke="#263238" stroke-miterlimit="10"/>
<path d="M570.087 289.139L564.346 285.563" stroke="#263238" stroke-width="0.5" stroke-miterlimit="10"/>
<path d="M574.314 303.169L569.849 298.458" stroke="#263238" stroke-width="2" stroke-miterlimit="10"/>
<path d="M571.207 299.869C571.199 299.148 571.036 298.436 570.729 297.783C570.423 297.13 569.98 296.551 569.43 296.083C568.281 295.06 562.255 292.522 561.687 294.642C561.06 296.957 567.235 301.489 571.207 299.869Z" fill="#2673DD" stroke="#263238" stroke-miterlimit="10"/>
<path d="M571.207 299.869L565.466 296.292" stroke="#263238" stroke-width="0.5" stroke-miterlimit="10"/>
<path d="M570.461 266.269L565.996 261.557" stroke="#263238" stroke-width="2" stroke-miterlimit="10"/>
<path d="M567.355 262.969C567.346 262.247 567.182 261.536 566.876 260.883C566.569 260.231 566.127 259.651 565.578 259.183C564.435 258.16 558.402 255.621 557.835 257.749C557.215 260.057 563.36 264.589 567.355 262.969Z" fill="#2673DD" stroke="#263238" stroke-miterlimit="10"/>
<path d="M567.355 262.969L561.613 259.392" stroke="#263238" stroke-width="0.5" stroke-miterlimit="10"/>
<path d="M571.581 276.991L567.116 272.28" stroke="#263238" stroke-width="2" stroke-miterlimit="10"/>
<path d="M568.475 273.691C568.466 272.97 568.302 272.259 567.996 271.606C567.689 270.953 567.247 270.373 566.698 269.905C565.555 268.882 559.522 266.351 558.955 268.472C558.327 270.779 564.502 275.319 568.475 273.691Z" fill="#2673DD" stroke="#263238" stroke-miterlimit="10"/>
<path d="M568.475 273.691L562.733 270.114" stroke="#263238" stroke-width="0.5" stroke-miterlimit="10"/>
<path d="M568.639 248.842L564.181 244.13" stroke="#263238" stroke-width="2" stroke-miterlimit="10"/>
<path d="M565.533 245.541C565.524 244.821 565.361 244.111 565.056 243.458C564.751 242.805 564.31 242.225 563.763 241.756C562.613 240.74 556.588 238.202 556.013 240.322C555.393 242.667 561.561 247.147 565.533 245.541Z" fill="#2673DD" stroke="#263238" stroke-miterlimit="10"/>
<path d="M565.533 245.541L559.798 241.965" stroke="#263238" stroke-width="0.5" stroke-miterlimit="10"/>
<path d="M566.817 231.347L562.352 226.636" stroke="#263238" stroke-width="2" stroke-miterlimit="10"/>
<path d="M563.711 228.047C563.702 227.326 563.539 226.615 563.232 225.962C562.926 225.309 562.483 224.729 561.934 224.261C560.792 223.239 554.758 220.7 554.191 222.828C553.564 225.135 559.739 229.667 563.711 228.047Z" fill="#2673DD" stroke="#263238" stroke-miterlimit="10"/>
<path d="M563.711 228.047L557.969 224.471" stroke="#263238" stroke-width="0.5" stroke-miterlimit="10"/>
<path d="M572.439 286.093L575.837 280.56" stroke="#263238" stroke-width="2" stroke-miterlimit="10"/>
<path d="M574.799 282.24C574.659 281.533 574.672 280.804 574.837 280.102C575.002 279.4 575.315 278.742 575.755 278.171C576.666 276.931 582.042 273.205 583.035 275.184C584.125 277.282 579.04 282.987 574.799 282.24Z" fill="#2673DD" stroke="#263238" stroke-miterlimit="10"/>
<path d="M574.799 282.225L579.966 277.282" stroke="#263238" stroke-width="0.5" stroke-miterlimit="10"/>
<path d="M569.498 257.869L572.887 252.336" stroke="#263238" stroke-width="2" stroke-miterlimit="10"/>
<path d="M571.857 254.001C571.716 253.294 571.728 252.565 571.892 251.863C572.057 251.161 572.371 250.502 572.813 249.932C573.716 248.692 579.092 244.967 580.093 246.945C581.175 249.058 576.053 254.763 571.857 254.001Z" fill="#2673DD" stroke="#263238" stroke-miterlimit="10"/>
<path d="M571.857 254.001L577.024 249.058" stroke="#263238" stroke-width="0.5" stroke-miterlimit="10"/>
<path d="M568.198 245.467L571.596 239.934" stroke="#263238" stroke-width="2" stroke-miterlimit="10"/>
<path d="M570.558 241.592C570.418 240.884 570.431 240.155 570.596 239.454C570.761 238.752 571.074 238.093 571.514 237.522C572.425 236.29 577.801 232.564 578.794 234.536C579.884 236.649 574.784 242.361 570.558 241.592Z" fill="#2673DD" stroke="#263238" stroke-miterlimit="10"/>
<path d="M570.558 241.592L575.725 236.656" stroke="#263238" stroke-width="0.5" stroke-miterlimit="10"/>
<path d="M566.302 227.285L569.699 221.753" stroke="#263238" stroke-width="2" stroke-miterlimit="10"/>
<path d="M568.661 223.41C568.522 222.703 568.535 221.974 568.7 221.272C568.864 220.571 569.177 219.912 569.617 219.341C570.528 218.101 575.904 214.376 576.897 216.354C577.987 218.467 572.887 224.179 568.661 223.41Z" fill="#2673DD" stroke="#263238" stroke-miterlimit="10"/>
<path d="M568.661 223.41L573.828 218.475" stroke="#263238" stroke-width="0.5" stroke-miterlimit="10"/>
<path d="M564.853 215.652C564.714 214.945 564.727 214.216 564.892 213.514C565.056 212.813 565.369 212.154 565.809 211.583C566.72 210.351 572.096 206.625 573.089 208.596C574.179 210.709 569.079 216.421 564.853 215.652Z" fill="#2673DD" stroke="#263238" stroke-miterlimit="10"/>
<path d="M564.853 215.652L570.02 210.717" stroke="#263238" stroke-width="0.5" stroke-miterlimit="10"/>
<path d="M565.152 215.869C564.433 215.935 563.708 215.846 563.027 215.608C562.346 215.369 561.723 214.987 561.202 214.488C560.067 213.457 556.931 207.723 558.962 206.931C561.217 206.08 566.347 211.747 565.152 215.869Z" fill="#2673DD" stroke="#263238" stroke-miterlimit="10"/>
<path d="M565.152 215.869L560.784 210.209" stroke="#263238" stroke-width="0.5" stroke-miterlimit="10"/>
<path d="M590.897 229.167L581.108 323.486" stroke="#263238" stroke-width="2" stroke-miterlimit="10"/>
<path d="M583.274 305.499L579.876 299.966" stroke="#263238" stroke-width="2" stroke-miterlimit="10"/>
<path d="M580.914 301.653C581.053 300.946 581.039 300.216 580.873 299.515C580.707 298.813 580.393 298.154 579.951 297.584C579.04 296.352 573.664 292.626 572.671 294.597C571.573 296.688 576.688 302.4 580.914 301.653Z" fill="#2673DD" stroke="#263238" stroke-miterlimit="10"/>
<path d="M580.914 301.624L576.031 296.942" stroke="#263238" stroke-width="0.5" stroke-miterlimit="10"/>
<path d="M585.991 279.321L582.594 273.788" stroke="#263238" stroke-width="2" stroke-miterlimit="10"/>
<path d="M583.625 275.453C583.766 274.746 583.754 274.016 583.589 273.314C583.424 272.612 583.11 271.954 582.669 271.384C581.758 270.144 576.382 266.426 575.389 268.397C574.299 270.51 579.406 276.222 583.625 275.453Z" fill="#2673DD" stroke="#263238" stroke-miterlimit="10"/>
<path d="M583.625 275.453L578.749 270.771" stroke="#263238" stroke-width="0.5" stroke-miterlimit="10"/>
<path d="M584.879 290.05L581.482 284.517" stroke="#263238" stroke-width="2" stroke-miterlimit="10"/>
<path d="M582.512 286.175C582.654 285.468 582.642 284.739 582.477 284.036C582.312 283.334 581.998 282.676 581.556 282.106C580.645 280.874 575.269 277.148 574.276 279.119C573.186 281.24 578.293 286.944 582.512 286.175Z" fill="#2673DD" stroke="#263238" stroke-miterlimit="10"/>
<path d="M582.512 286.175L577.636 281.493" stroke="#263238" stroke-width="0.5" stroke-miterlimit="10"/>
<path d="M587.798 261.893L584.401 256.368" stroke="#263238" stroke-width="2" stroke-miterlimit="10"/>
<path d="M585.439 258.026C585.578 257.318 585.564 256.589 585.398 255.887C585.232 255.185 584.917 254.527 584.476 253.956C583.565 252.717 578.189 248.999 577.196 250.97C576.113 253.12 581.213 258.795 585.439 258.026Z" fill="#2673DD" stroke="#263238" stroke-miterlimit="10"/>
<path d="M585.439 258.026L580.556 253.344" stroke="#263238" stroke-width="0.5" stroke-miterlimit="10"/>
<path d="M589.613 244.399L586.215 238.866" stroke="#263238" stroke-width="2" stroke-miterlimit="10"/>
<path d="M587.253 240.524C587.392 239.816 587.378 239.087 587.212 238.385C587.046 237.683 586.732 237.025 586.29 236.455C585.387 235.223 580.011 231.497 579.01 233.468C577.927 235.588 583.027 241.293 587.253 240.524Z" fill="#2673DD" stroke="#263238" stroke-miterlimit="10"/>
<path d="M587.253 240.524L582.37 235.842" stroke="#263238" stroke-width="0.5" stroke-miterlimit="10"/>
<path d="M583.849 299.13L588.306 294.418" stroke="#263238" stroke-width="2" stroke-miterlimit="10"/>
<path d="M586.947 295.829C586.956 295.108 587.119 294.397 587.426 293.744C587.732 293.091 588.175 292.512 588.724 292.044C589.867 291.021 595.892 288.482 596.467 290.603C597.087 292.91 590.927 297.45 586.947 295.829Z" fill="#2673DD" stroke="#263238" stroke-miterlimit="10"/>
<path d="M586.947 295.829L593.025 292.059" stroke="#263238" stroke-width="0.5" stroke-miterlimit="10"/>
<path d="M586.775 270.906L591.233 266.187" stroke="#263238" stroke-width="2" stroke-miterlimit="10"/>
<path d="M589.882 267.598C589.888 266.877 590.05 266.166 590.355 265.513C590.66 264.86 591.102 264.28 591.651 263.812C592.794 262.789 598.819 260.251 599.394 262.379C600.021 264.686 593.854 269.218 589.882 267.598Z" fill="#2673DD" stroke="#263238" stroke-miterlimit="10"/>
<path d="M589.882 267.598L595.952 263.835" stroke="#263238" stroke-width="0.5" stroke-miterlimit="10"/>
<path d="M588.06 258.496L592.517 253.785" stroke="#263238" stroke-width="2" stroke-miterlimit="10"/>
<path d="M591.166 255.196C591.175 254.475 591.338 253.764 591.645 253.111C591.951 252.458 592.394 251.878 592.943 251.41C594.085 250.387 600.111 247.849 600.686 249.969C601.306 252.276 595.138 256.853 591.166 255.196Z" fill="#2673DD" stroke="#263238" stroke-miterlimit="10"/>
<path d="M591.166 255.196L597.236 251.425" stroke="#263238" stroke-width="0.5" stroke-miterlimit="10"/>
<path d="M589.949 240.315L594.406 235.596" stroke="#263238" stroke-width="2" stroke-miterlimit="10"/>
<path d="M593.055 237.015C593.061 236.294 593.222 235.582 593.528 234.929C593.833 234.276 594.275 233.696 594.825 233.229C595.974 232.199 602 229.66 602.567 231.788C603.195 234.095 597.027 238.635 593.055 237.015Z" fill="#2673DD" stroke="#263238" stroke-miterlimit="10"/>
<path d="M593.055 237.015L599.125 233.244" stroke="#263238" stroke-width="0.5" stroke-miterlimit="10"/>
<path d="M590.919 228.637C590.928 227.916 591.092 227.205 591.398 226.552C591.705 225.899 592.147 225.319 592.697 224.851C593.839 223.828 599.865 221.29 600.439 223.41C601.067 225.717 594.899 230.257 590.919 228.637Z" fill="#2673DD" stroke="#263238" stroke-miterlimit="10"/>
<path d="M590.919 228.637L596.997 224.866" stroke="#263238" stroke-width="0.5" stroke-miterlimit="10"/>
<path d="M591.173 228.906C590.457 228.822 589.766 228.586 589.148 228.214C588.53 227.842 587.998 227.342 587.589 226.748C586.693 225.501 584.804 219.244 586.97 218.893C589.337 218.52 593.227 225.128 591.173 228.906Z" fill="#2673DD" stroke="#263238" stroke-miterlimit="10"/>
<path d="M591.173 228.906L588.06 222.477" stroke="#263238" stroke-width="0.5" stroke-miterlimit="10"/>
<path d="M579.682 190.759V310.031" stroke="#263238" stroke-width="2" stroke-miterlimit="10"/>
<path d="M579.772 292.096L575.829 286.944" stroke="#263238" stroke-width="2" stroke-miterlimit="10"/>
<path d="M577.031 288.49C577.098 287.771 577.009 287.047 576.772 286.366C576.535 285.685 576.155 285.062 575.658 284.54C574.62 283.405 568.893 280.261 568.101 282.3C567.243 284.54 572.91 289.707 577.031 288.49Z" fill="#2673DD" stroke="#263238" stroke-miterlimit="10"/>
<path d="M577.031 288.49L571.693 284.338" stroke="#263238" stroke-width="0.5" stroke-miterlimit="10"/>
<path d="M579.772 269.681L575.829 264.537" stroke="#263238" stroke-width="2" stroke-miterlimit="10"/>
<path d="M577.031 266.075C577.097 265.358 577.009 264.635 576.772 263.955C576.535 263.275 576.155 262.653 575.658 262.132C574.62 260.99 568.893 257.847 568.101 259.892C567.243 262.132 572.91 267.307 577.031 266.075Z" fill="#2673DD" stroke="#263238" stroke-miterlimit="10"/>
<path d="M577.031 266.075L571.693 261.923" stroke="#263238" stroke-width="0.5" stroke-miterlimit="10"/>
<path d="M579.772 243.369L575.829 238.217" stroke="#263238" stroke-width="2" stroke-miterlimit="10"/>
<path d="M577.031 239.762C577.098 239.044 577.009 238.32 576.772 237.639C576.535 236.957 576.155 236.335 575.658 235.812C574.62 234.677 568.893 231.534 568.101 233.572C567.243 235.812 572.91 240.964 577.031 239.762Z" fill="#2673DD" stroke="#263238" stroke-miterlimit="10"/>
<path d="M577.031 239.762L571.693 235.611" stroke="#263238" stroke-width="0.5" stroke-miterlimit="10"/>
<path d="M579.772 225.852L575.829 220.7" stroke="#263238" stroke-width="2" stroke-miterlimit="10"/>
<path d="M577.031 222.245C577.098 221.527 577.009 220.803 576.772 220.122C576.535 219.441 576.155 218.818 575.658 218.296C574.62 217.161 568.893 214.01 568.101 216.056C567.243 218.296 572.91 223.448 577.031 222.245Z" fill="#2673DD" stroke="#263238" stroke-miterlimit="10"/>
<path d="M577.031 222.245L571.693 218.094" stroke="#263238" stroke-width="0.5" stroke-miterlimit="10"/>
<path d="M579.772 208.253L575.829 203.108" stroke="#263238" stroke-width="2" stroke-miterlimit="10"/>
<path d="M577.031 204.654C577.098 203.936 577.009 203.212 576.772 202.53C576.535 201.849 576.155 201.226 575.658 200.704C574.62 199.569 568.893 196.418 568.101 198.464C567.243 200.704 572.91 205.856 577.031 204.654Z" fill="#2673DD" stroke="#263238" stroke-miterlimit="10"/>
<path d="M577.031 204.654L571.693 200.503" stroke="#263238" stroke-width="0.5" stroke-miterlimit="10"/>
<path d="M579.69 298.943L583.639 293.791" stroke="#263238" stroke-width="2" stroke-miterlimit="10"/>
<path d="M582.437 295.337C582.371 294.618 582.46 293.894 582.697 293.213C582.934 292.532 583.314 291.909 583.811 291.387C584.842 290.252 590.576 287.101 591.36 289.147C592.219 291.387 586.551 296.539 582.437 295.337Z" fill="#2673DD" stroke="#263238" stroke-miterlimit="10"/>
<path d="M582.437 295.337L588.09 290.961" stroke="#263238" stroke-width="0.5" stroke-miterlimit="10"/>
<path d="M579.69 263.297L583.639 258.145" stroke="#263238" stroke-width="2" stroke-miterlimit="10"/>
<path d="M582.437 259.691C582.371 258.973 582.46 258.248 582.697 257.567C582.934 256.886 583.314 256.263 583.811 255.741C584.842 254.606 590.576 251.455 591.36 253.501C592.219 255.741 586.551 260.893 582.437 259.691Z" fill="#2673DD" stroke="#263238" stroke-miterlimit="10"/>
<path d="M582.437 259.691L588.09 255.315" stroke="#263238" stroke-width="0.5" stroke-miterlimit="10"/>
<path d="M579.69 245.698L583.639 240.546" stroke="#263238" stroke-width="2" stroke-miterlimit="10"/>
<path d="M582.437 242.092C582.371 241.374 582.46 240.649 582.697 239.968C582.934 239.287 583.314 238.664 583.811 238.142C584.842 237.007 590.576 233.864 591.36 235.902C592.219 238.142 586.551 243.294 582.437 242.092Z" fill="#2673DD" stroke="#263238" stroke-miterlimit="10"/>
<path d="M582.437 242.092L588.09 237.716" stroke="#263238" stroke-width="0.5" stroke-miterlimit="10"/>
<path d="M579.69 222.447L583.639 217.295" stroke="#263238" stroke-width="2" stroke-miterlimit="10"/>
<path d="M582.437 218.841C582.371 218.122 582.46 217.398 582.697 216.717C582.934 216.036 583.314 215.413 583.811 214.891C584.842 213.756 590.576 210.605 591.36 212.651C592.219 214.891 586.551 220.043 582.437 218.841Z" fill="#2673DD" stroke="#263238" stroke-miterlimit="10"/>
<path d="M582.437 218.841L588.09 214.465" stroke="#263238" stroke-width="0.5" stroke-miterlimit="10"/>
<path d="M579.69 204.161L583.639 199.009" stroke="#263238" stroke-width="2" stroke-miterlimit="10"/>
<path d="M582.437 200.555C582.371 199.837 582.46 199.112 582.697 198.431C582.934 197.75 583.314 197.127 583.811 196.605C584.842 195.47 590.576 192.327 591.36 194.365C592.219 196.605 586.551 201.757 582.437 200.555Z" fill="#2673DD" stroke="#263238" stroke-miterlimit="10"/>
<path d="M582.437 200.555L588.09 196.179" stroke="#263238" stroke-width="0.5" stroke-miterlimit="10"/>
<path d="M579.451 192.446C579.385 191.728 579.473 191.004 579.71 190.322C579.947 189.641 580.327 189.018 580.825 188.496C581.855 187.361 587.589 184.218 588.381 186.256C589.24 188.496 583.572 193.648 579.451 192.446Z" fill="#2673DD" stroke="#263238" stroke-miterlimit="10"/>
<path d="M579.451 192.446L585.103 188.071" stroke="#263238" stroke-width="0.5" stroke-miterlimit="10"/>
<path d="M579.727 192.692C579.005 192.683 578.294 192.519 577.64 192.211C576.987 191.903 576.408 191.459 575.941 190.908C574.926 189.765 572.395 183.732 574.515 183.165C576.8 182.545 581.355 188.72 579.727 192.692Z" fill="#2673DD" stroke="#263238" stroke-miterlimit="10"/>
<path d="M579.727 192.692L575.971 186.615" stroke="#263238" stroke-width="0.5" stroke-miterlimit="10"/>
<path d="M584.588 340.965H571.954L570.379 309.06H586.163L584.588 340.965Z" fill="#263238" stroke="#263238" stroke-miterlimit="10"/>
<path d="M589.493 88.8535C589.495 84.611 588.475 80.4306 586.519 76.6659C584.563 72.9013 581.729 69.6632 578.257 67.2258C574.784 64.7884 570.776 63.2235 566.571 62.6633C562.365 62.1032 558.087 62.5644 554.098 64.0079C550.108 65.4515 546.526 67.8348 543.652 70.9562C540.779 74.0777 538.7 77.8454 537.592 81.9404C536.483 86.0354 536.377 90.3372 537.283 94.4818C538.189 98.6263 540.081 102.492 542.797 105.751C546.686 110.413 548.816 116.292 548.815 122.364V125.978H577.323V122.364C577.307 116.302 579.421 110.427 583.296 105.765C587.287 101.033 589.481 95.0443 589.493 88.8535Z" fill="white" stroke="#263238" stroke-linecap="round" stroke-linejoin="round"/>
<path d="M577.323 125.985H548.778V133.049H577.323V125.985Z" fill="#2673DD" stroke="#263238" stroke-linecap="round" stroke-linejoin="round"/>
<path d="M548.778 133.064H577.323V136.595C577.323 137.532 576.951 138.43 576.288 139.093C575.626 139.755 574.728 140.127 573.791 140.127H552.302C551.365 140.127 550.467 139.755 549.805 139.093C549.142 138.43 548.77 137.532 548.77 136.595V133.064H548.778Z" fill="#2673DD" stroke="#263238" stroke-linecap="round" stroke-linejoin="round"/>
<path d="M552.377 140.12H573.716V142.36C573.716 143.629 573.212 144.846 572.314 145.744C571.417 146.641 570.2 147.146 568.93 147.146H557.163C555.893 147.146 554.676 146.641 553.778 145.744C552.881 144.846 552.377 143.629 552.377 142.36V140.12Z" fill="#263238" stroke="#263238" stroke-linecap="round" stroke-linejoin="round"/>
<path d="M593.204 88.9953H605.3" stroke="#263238" stroke-linecap="round" stroke-linejoin="round"/>
<path d="M519.665 88.9953H531.918" stroke="#263238" stroke-linecap="round" stroke-linejoin="round"/>
<path d="M562.486 58.3073V46.1815" stroke="#263238" stroke-linecap="round" stroke-linejoin="round"/>
<path d="M584.409 67.0657L592.756 58.718" stroke="#263238" stroke-linecap="round" stroke-linejoin="round"/>
<path d="M532.209 119.265L540.676 110.798" stroke="#263238" stroke-linecap="round" stroke-linejoin="round"/>
<path d="M540.318 66.8268L532.209 58.718" stroke="#263238" stroke-linecap="round" stroke-linejoin="round"/>
<path d="M592.756 119.265L584.685 111.194" stroke="#263238" stroke-linecap="round" stroke-linejoin="round"/>
<path d="M406.971 79.9831L372.019 31.6513L337.06 79.9831H351.441V133.676H392.597V79.9831H406.971Z" fill="#2673DD" stroke="#263238" stroke-linecap="round" stroke-linejoin="round"/>
<path d="M377.521 162.584C397.167 159.409 410.52 140.909 407.345 121.263C404.17 101.616 385.67 88.2639 366.023 91.4389C346.377 94.6138 333.025 113.114 336.2 132.76C339.375 152.406 357.875 165.759 377.521 162.584Z" fill="white" stroke="#263238" stroke-linecap="round" stroke-linejoin="round"/>
<path d="M399.213 140.847C406.851 125.699 400.764 107.227 385.616 99.5884C370.467 91.9498 351.995 98.0374 344.357 113.185C336.718 128.334 342.806 146.806 357.954 154.444C373.102 162.083 391.574 155.995 399.213 140.847Z" fill="white" stroke="#263238" stroke-linecap="round" stroke-linejoin="round"/>
<path d="M382.032 131.615C382.032 123.573 370.638 123.402 370.638 120.042C370.638 118.28 371.564 117.749 373.468 117.749C375.103 117.749 376.454 118.451 378.06 119.87L381.793 115.539C380.057 113.576 377.707 112.26 375.125 111.806V107.326H370.197V112C365.941 112.919 363.395 115.95 363.395 120.415C363.395 128.151 374.789 128.628 374.789 132.168C374.789 133.892 373.908 134.639 371.698 134.639C369.846 134.639 367.965 133.937 365.605 132.168L362.335 137.29C364.576 139.142 367.308 140.302 370.197 140.627V145.063H375.148V140.314C379.755 139.194 382.032 135.893 382.032 131.615Z" fill="#2673DD" stroke="#263238" stroke-linecap="round" stroke-linejoin="round"/>
<path d="M193.462 101.053C206.21 98.7405 214.671 86.5312 212.359 73.7824C210.046 61.0336 197.837 52.5732 185.088 54.8854C172.339 57.1977 163.879 69.407 166.191 82.1558C168.504 94.9045 180.713 103.365 193.462 101.053Z" fill="white" stroke="#263238" stroke-linecap="round" stroke-linejoin="round"/>
<path d="M195.903 55.4849L189.28 77.9745H212.74C212.738 72.9106 211.097 67.9834 208.062 63.9296C205.027 59.8759 200.761 56.9133 195.903 55.4849Z" fill="#2673DD" stroke="#263238" stroke-linecap="round" stroke-linejoin="round"/>
<path d="M203.847 63.1756L213.158 52.1996H221.148" stroke="#263238" stroke-width="0.5" stroke-linecap="round" stroke-linejoin="round"/>
<path d="M226.807 52.5281H238.784" stroke="#263238" stroke-width="0.5" stroke-linecap="round" stroke-linejoin="round"/>
<path d="M226.807 55.5223H238.784" stroke="#263238" stroke-width="0.5" stroke-linecap="round" stroke-linejoin="round"/>
<path d="M226.807 58.5164H238.784" stroke="#263238" stroke-width="0.5" stroke-linecap="round" stroke-linejoin="round"/>
<path d="M226.807 61.5105H238.784" stroke="#263238" stroke-width="0.5" stroke-linecap="round" stroke-linejoin="round"/>
<path d="M166.835 126.239H160.011V146.601H166.835V126.239Z" fill="#263238" stroke="#263238" stroke-width="0.5" stroke-linecap="round" stroke-linejoin="round"/>
<path d="M177.557 133.564H170.733V146.601H177.557V133.564Z" fill="#2673DD" stroke="#263238" stroke-linecap="round" stroke-linejoin="round"/>
<path d="M188.287 121.781H181.462V146.601H188.287V121.781Z" fill="#263238" stroke="#263238" stroke-width="0.5" stroke-linecap="round" stroke-linejoin="round"/>
<path d="M199.017 126.919H192.192V146.608H199.017V126.919Z" fill="#2673DD" stroke="#263238" stroke-linecap="round" stroke-linejoin="round"/>
<path d="M209.739 122.416H202.914V146.601H209.739V122.416Z" fill="#263238" stroke="#263238" stroke-width="0.5" stroke-linecap="round" stroke-linejoin="round"/>
<path d="M220.468 108.088H213.644V146.608H220.468V108.088Z" fill="#2673DD" stroke="#263238" stroke-linecap="round" stroke-linejoin="round"/>
<path d="M228.137 107.684H232.131" stroke="#263238" stroke-width="0.5" stroke-linecap="round" stroke-linejoin="round"/>
<path d="M228.137 115.465H232.131" stroke="#263238" stroke-width="0.5" stroke-linecap="round" stroke-linejoin="round"/>
<path d="M228.137 123.252H232.131" stroke="#263238" stroke-width="0.5" stroke-linecap="round" stroke-linejoin="round"/>
<path d="M228.137 131.04H232.131" stroke="#263238" stroke-width="0.5" stroke-linecap="round" stroke-linejoin="round"/>
<path d="M228.137 138.828H232.131" stroke="#263238" stroke-width="0.5" stroke-linecap="round" stroke-linejoin="round"/>
<path d="M228.137 146.608H232.131" stroke="#263238" stroke-width="0.5" stroke-linecap="round" stroke-linejoin="round"/>
<path d="M163.916 118.735L174.369 125.059L185.248 113.411L195.993 114.315L206.401 110.186L218.183 94.6849" stroke="#263238" stroke-linecap="round" stroke-linejoin="round"/>
<path d="M165.23 118.72C165.23 118.458 165.152 118.203 165.007 117.985C164.861 117.768 164.654 117.598 164.412 117.498C164.17 117.399 163.904 117.373 163.648 117.424C163.391 117.476 163.156 117.603 162.971 117.788C162.787 117.974 162.661 118.21 162.611 118.467C162.561 118.724 162.588 118.99 162.689 119.231C162.791 119.472 162.961 119.678 163.179 119.823C163.398 119.967 163.654 120.043 163.916 120.042C164.089 120.042 164.26 120.007 164.42 119.941C164.58 119.874 164.725 119.777 164.848 119.654C164.97 119.531 165.066 119.386 165.132 119.225C165.198 119.065 165.231 118.893 165.23 118.72Z" fill="#263238"/>
<path d="M175.691 125.059C175.691 124.798 175.613 124.542 175.468 124.325C175.323 124.108 175.116 123.938 174.875 123.838C174.633 123.738 174.368 123.712 174.111 123.763C173.855 123.814 173.619 123.94 173.435 124.125C173.25 124.31 173.124 124.545 173.073 124.801C173.022 125.058 173.048 125.324 173.148 125.565C173.248 125.807 173.418 126.013 173.635 126.158C173.852 126.303 174.108 126.381 174.369 126.381C174.543 126.382 174.715 126.348 174.876 126.282C175.037 126.216 175.183 126.119 175.306 125.996C175.429 125.873 175.526 125.727 175.592 125.566C175.658 125.405 175.692 125.233 175.691 125.059Z" fill="#263238"/>
<path d="M186.562 113.411C186.562 113.15 186.484 112.894 186.339 112.676C186.193 112.459 185.986 112.289 185.745 112.19C185.503 112.09 185.237 112.064 184.98 112.116C184.723 112.167 184.488 112.294 184.303 112.479C184.119 112.665 183.994 112.901 183.943 113.158C183.893 113.415 183.921 113.681 184.022 113.922C184.123 114.164 184.293 114.37 184.512 114.514C184.73 114.658 184.986 114.734 185.248 114.733C185.421 114.733 185.593 114.699 185.753 114.632C185.913 114.566 186.058 114.468 186.18 114.345C186.302 114.223 186.399 114.077 186.464 113.917C186.53 113.756 186.563 113.585 186.562 113.411Z" fill="#263238"/>
<path d="M197.307 114.315C197.307 114.053 197.229 113.797 197.083 113.58C196.938 113.362 196.731 113.193 196.489 113.093C196.247 112.993 195.981 112.968 195.724 113.019C195.468 113.071 195.232 113.197 195.048 113.383C194.863 113.569 194.738 113.805 194.688 114.062C194.638 114.318 194.665 114.584 194.766 114.826C194.867 115.067 195.038 115.273 195.256 115.417C195.475 115.562 195.731 115.638 195.993 115.636C196.166 115.636 196.337 115.602 196.497 115.536C196.657 115.469 196.802 115.372 196.924 115.249C197.047 115.126 197.143 114.98 197.209 114.82C197.274 114.66 197.308 114.488 197.307 114.315Z" fill="#263238"/>
<path d="M207.723 109.977C207.723 109.715 207.645 109.46 207.5 109.242C207.355 109.025 207.148 108.856 206.907 108.756C206.665 108.656 206.4 108.629 206.143 108.68C205.887 108.731 205.651 108.857 205.467 109.042C205.282 109.227 205.156 109.462 205.105 109.719C205.054 109.975 205.08 110.241 205.18 110.482C205.28 110.724 205.449 110.93 205.667 111.076C205.884 111.221 206.14 111.298 206.401 111.298C206.752 111.298 207.088 111.159 207.336 110.911C207.583 110.663 207.723 110.327 207.723 109.977Z" fill="#263238"/>
<path d="M219.498 94.6849C219.498 94.4232 219.42 94.1674 219.274 93.9499C219.129 93.7324 218.922 93.563 218.68 93.4632C218.438 93.3634 218.172 93.3377 217.915 93.3893C217.659 93.4409 217.423 93.5675 217.239 93.7531C217.054 93.9387 216.929 94.1748 216.879 94.4317C216.829 94.6886 216.856 94.9545 216.957 95.1959C217.058 95.4372 217.229 95.6431 217.447 95.7874C217.666 95.9317 217.922 96.008 218.184 96.0065C218.533 96.0045 218.867 95.8644 219.113 95.6168C219.359 95.3692 219.498 95.0341 219.498 94.6849Z" fill="#263238"/>
<path d="M479.726 308.687H483.982V267.68H479.726V308.687Z" fill="#263238" stroke="#263238" stroke-linecap="round" stroke-linejoin="round"/>
<path d="M500.922 269.12L508.427 269.997L513.19 229.268L505.685 228.39L500.922 269.12Z" fill="#263238" stroke="#263238" stroke-linecap="round" stroke-linejoin="round"/>
<path d="M476.448 310.367V303.453H487.252V310.427L530.469 327.772V335.955H527.52V329.736L481.697 319.305L437.084 329.736V335.955H434.217V327.772L476.448 310.367Z" fill="#8C8C8C" stroke="#263238" stroke-linecap="round" stroke-linejoin="round"/>
<path d="M471.214 280.777H492.494V267.68H471.214V280.777Z" fill="#263238" stroke="#263238" stroke-linecap="round" stroke-linejoin="round"/>
<path d="M530.507 336.284C530.507 335.377 530.776 334.49 531.28 333.736C531.784 332.982 532.5 332.394 533.339 332.048C534.177 331.701 535.099 331.611 535.988 331.788C536.878 331.966 537.695 332.403 538.336 333.045C538.976 333.687 539.412 334.504 539.589 335.394C539.765 336.284 539.673 337.206 539.325 338.043C538.976 338.881 538.388 339.597 537.633 340.099C536.878 340.602 535.991 340.87 535.084 340.868C534.482 340.868 533.886 340.75 533.33 340.519C532.775 340.289 532.27 339.951 531.845 339.525C531.419 339.099 531.083 338.594 530.853 338.038C530.623 337.482 530.506 336.886 530.507 336.284Z" fill="#263238" stroke="#263238" stroke-linecap="round" stroke-linejoin="round"/>
<path d="M533.083 336.284C533.083 335.895 533.198 335.516 533.414 335.193C533.629 334.87 533.936 334.618 534.295 334.47C534.654 334.321 535.049 334.282 535.429 334.358C535.81 334.434 536.16 334.621 536.435 334.895C536.71 335.17 536.897 335.52 536.972 335.901C537.048 336.282 537.009 336.677 536.861 337.035C536.712 337.394 536.46 337.701 536.137 337.917C535.814 338.132 535.435 338.248 535.046 338.248C534.526 338.248 534.026 338.041 533.658 337.672C533.29 337.304 533.083 336.805 533.083 336.284Z" fill="white" stroke="#263238" stroke-linecap="round" stroke-linejoin="round"/>
<path d="M424.719 336.284C424.719 335.377 424.988 334.491 425.492 333.737C425.995 332.983 426.711 332.395 427.549 332.048C428.387 331.701 429.309 331.611 430.198 331.787C431.087 331.964 431.904 332.401 432.545 333.042C433.186 333.683 433.623 334.5 433.8 335.389C433.977 336.279 433.886 337.201 433.539 338.038C433.192 338.876 432.604 339.592 431.851 340.096C431.097 340.6 430.21 340.868 429.303 340.868C428.088 340.868 426.921 340.385 426.062 339.526C425.202 338.666 424.719 337.5 424.719 336.284Z" fill="#263238" stroke="#263238" stroke-linecap="round" stroke-linejoin="round"/>
<path d="M429.303 338.248C430.388 338.248 431.267 337.368 431.267 336.284C431.267 335.199 430.388 334.32 429.303 334.32C428.219 334.32 427.34 335.199 427.34 336.284C427.34 337.368 428.219 338.248 429.303 338.248Z" fill="white" stroke="#263238" stroke-linecap="round" stroke-linejoin="round"/>
<path d="M479.883 336.194H483.482L485.289 311.636H478.083L479.883 336.194Z" fill="#8C8C8C" stroke="#263238" stroke-linecap="round" stroke-linejoin="round"/>
<path d="M480.054 341.1H483.653V330.953H480.054V341.1Z" fill="#263238" stroke="#263238" stroke-linecap="round" stroke-linejoin="round"/>
<path d="M510.197 248.834C512.297 249.037 514.417 248.824 516.434 248.208C518.452 247.592 520.328 246.584 521.956 245.242C523.584 243.901 524.932 242.251 525.923 240.389C526.913 238.526 527.527 236.486 527.729 234.386L532.747 182.187C533.154 177.946 531.862 173.717 529.152 170.43C526.443 167.142 522.539 165.065 518.299 164.655C514.057 164.249 509.829 165.544 506.541 168.255C503.254 170.965 501.177 174.87 500.767 179.111L495.742 231.377C495.353 235.607 496.656 239.819 499.365 243.091C502.074 246.362 505.969 248.428 510.197 248.834Z" fill="#8C8C8C" stroke="#263238" stroke-linecap="round" stroke-linejoin="round"/>
<path d="M506.389 248.468C510.63 248.876 514.859 247.583 518.146 244.874C521.434 242.165 523.511 238.261 523.921 234.02L528.946 181.754C529.341 177.519 528.042 173.301 525.332 170.023C522.622 166.745 518.724 164.675 514.491 164.267C512.391 164.065 510.272 164.279 508.255 164.896C506.237 165.513 504.361 166.522 502.734 167.864C501.107 169.207 499.76 170.857 498.77 172.72C497.78 174.583 497.168 176.622 496.966 178.722L491.941 230.944C491.534 235.184 492.827 239.412 495.536 242.698C498.246 245.985 502.15 248.06 506.389 248.468Z" fill="#8C8C8C" stroke="#263238" stroke-linecap="round" stroke-linejoin="round"/>
<path d="M436.494 271.787L511.429 273.758C511.845 273.771 512.259 273.702 512.648 273.555C513.038 273.407 513.394 273.185 513.697 272.9C514 272.615 514.244 272.273 514.414 271.894C514.585 271.514 514.68 271.105 514.692 270.689L515.073 258.698C515.086 258.282 515.017 257.868 514.87 257.479C514.722 257.09 514.5 256.733 514.215 256.43C513.93 256.127 513.588 255.883 513.209 255.713C512.829 255.542 512.42 255.447 512.004 255.435L437.076 253.464C436.661 253.45 436.247 253.518 435.858 253.664C435.469 253.811 435.112 254.032 434.809 254.317C434.506 254.601 434.262 254.943 434.091 255.322C433.92 255.701 433.826 256.109 433.813 256.525L433.44 268.524C433.414 269.361 433.72 270.175 434.293 270.786C434.865 271.398 435.657 271.758 436.494 271.787Z" fill="#8C8C8C" stroke="#263238" stroke-linecap="round" stroke-linejoin="round"/>
<path d="M467.825 272.367L511.439 273.745C513.186 273.8 514.648 272.428 514.703 270.681L515.082 258.688C515.137 256.94 513.765 255.479 512.018 255.423L468.404 254.045C466.657 253.99 465.195 255.362 465.14 257.109L464.761 269.102C464.706 270.85 466.078 272.311 467.825 272.367Z" fill="#8C8C8C" stroke="#263238" stroke-linecap="round" stroke-linejoin="round"/>
<path d="M431.499 323.098L431.133 325.86C431.133 325.86 427.818 332.491 426.526 333.596C425.234 334.701 417.133 338.195 415.662 338.748C414.191 339.3 416.767 340.988 420.269 341.145C423.771 341.301 430.214 341.331 432.425 340.779C434.635 340.226 438.868 337.09 439.794 336.911L440.541 339.3C440.541 339.3 444.595 337.807 446.066 337.464C447.537 337.12 449.934 335.224 449.934 335.224C449.097 332.651 448.115 330.128 446.992 327.667C446.312 326.432 445.44 325.313 444.409 324.352L441.653 321.067L431.499 323.098Z" fill="#263238" stroke="#263238" stroke-linecap="round" stroke-linejoin="round"/>
<path d="M453.787 217.877L447.709 221.559L434.448 225.426C434.448 225.426 392.455 233.162 390.059 235.947C387.662 238.732 388.565 241.106 390.611 244.608C392.657 248.11 428.213 325.674 428.213 325.674L442.953 322.724L418.268 248.453C418.268 248.453 464.688 257.847 472.774 256.368C480.861 254.89 491.195 246.243 493.031 239.613C494.868 232.983 486.401 222.44 486.401 222.44L453.787 217.877Z" fill="#2673DD" stroke="#263238" stroke-linecap="round" stroke-linejoin="round"/>
<path d="M407.822 241.248C407.822 241.248 417.103 245.728 418.768 250.768" stroke="#263238" stroke-linecap="round" stroke-linejoin="round"/>
<path d="M501.857 156.36L481.966 154.515L452.868 220.453L472.02 223.769L501.857 156.36Z" fill="white" stroke="#263238" stroke-linecap="round" stroke-linejoin="round"/>
<path d="M482.332 160.675C482.332 160.675 453.234 219.52 452.853 220.453C452.473 221.387 444.199 223.769 442.355 224.135C440.511 224.5 434.433 225.426 434.433 225.426L444.752 218.43L452.107 199.457L443.147 194.88C443.147 194.88 459.723 170.016 463.404 161.541C467.085 153.067 468.533 150.827 472.207 150.648C475.881 150.468 486.394 151.2 486.394 151.2L482.332 160.675Z" fill="#2673DD" stroke="#263238" stroke-linecap="round" stroke-linejoin="round"/>
<path d="M478.285 173.115L478.651 177.356C478.651 177.356 459.312 211.979 459.133 212.718C458.954 213.457 460.626 218.609 460.626 218.609L467.443 213.636L480.331 178.095L483.833 176.064V169.486L478.285 173.115Z" fill="#263238" stroke="#263238" stroke-linecap="round" stroke-linejoin="round"/>
<path d="M485.975 109.469C485.975 109.469 479.136 126.03 477.62 131.048C476.105 136.065 475.037 144.264 475.38 145.175C475.724 146.085 477.62 149.274 481.152 149.431C484.684 149.587 487.685 149.58 487.685 149.58L482.369 160.675C482.369 160.675 482.974 169.337 483.862 169.486C484.751 169.635 498.146 159.309 498.452 158.846C498.758 158.383 507.263 140.179 507.263 140.179C507.263 140.179 514.864 136.379 515.319 133.034C515.468 132.098 515.363 131.139 515.015 130.258C514.667 129.377 514.089 128.605 513.341 128.024V123.917L516.686 113.889C516.686 113.889 508.331 108.424 499.057 106.139C489.783 103.854 487.812 105.392 487.812 105.392L485.975 109.469Z" fill="white" stroke="#263238" stroke-linecap="round" stroke-linejoin="round"/>
<path d="M501.319 100.203C501.319 100.203 487.648 96.5516 481.57 101.875C475.492 107.199 491.292 115.733 496.459 116.48C501.626 117.227 508.01 116.174 506.486 117.548C504.963 118.922 501.626 121.042 503.298 122.409C504.348 123.252 505.528 123.918 506.792 124.38C506.792 124.38 499.654 140.06 498.437 141.852C497.22 143.644 494.943 143.524 493.576 143.069C492.21 142.613 485.677 138.514 483.549 137.753C481.421 136.991 477.471 134.714 476.56 137.148C475.649 139.582 473.364 149.908 476.709 152.186C480.054 154.463 496.309 148.691 498.743 147.019C501.178 145.346 501.932 142.307 502.387 141.703C502.843 141.098 509.376 130.308 509.981 129.547C510.586 128.785 513.326 128.053 513.326 128.053C513.326 128.053 518.799 117.107 519.254 112.859C519.71 108.61 505.426 100.053 501.319 100.203Z" fill="#263238" stroke="#263238" stroke-linecap="round" stroke-linejoin="round"/>
<path d="M487.043 121.319L486.737 128.039C486.737 128.039 479.599 136.088 479.599 136.999C479.599 137.909 488.103 136.849 488.103 136.849" stroke="#263238" stroke-linecap="round" stroke-linejoin="round"/>
<path d="M485.975 119.803C485.715 119.294 485.283 118.892 484.756 118.67C484.229 118.447 483.64 118.418 483.093 118.586" stroke="#263238" stroke-linecap="round" stroke-linejoin="round"/>
<path d="M492.359 123.596C492.359 123.596 496.765 123.14 498.131 126.485" stroke="#263238" stroke-linecap="round" stroke-linejoin="round"/>
<path d="M480.48 140.463C480.48 140.463 484.43 142.897 487.013 142.897" stroke="white" stroke-linecap="round" stroke-linejoin="round"/>
<path d="M493.86 130.181C493.442 131.01 492.681 131.458 492.158 131.197C491.635 130.936 491.546 130.047 491.964 129.226C492.382 128.404 493.143 127.949 493.666 128.21C494.189 128.472 494.278 129.36 493.86 130.181Z" fill="#263238"/>
<path d="M484.348 126.485C483.937 127.307 483.168 127.762 482.645 127.493C482.123 127.225 482.033 126.351 482.451 125.522C482.869 124.693 483.631 124.245 484.154 124.514C484.676 124.783 484.766 125.657 484.348 126.485Z" fill="#263238"/>
<path d="M418.425 316.938L417.133 324.673L414.37 325.42C414.37 325.42 411.787 328.533 411.242 329.28C410.697 330.027 403.872 334.985 402.035 335.911C400.198 336.836 395.584 337.195 395.771 338.487C395.957 339.778 405.716 340.883 411.981 341.063C418.245 341.242 421.74 339.226 421.74 339.226L422.292 340.51L428.736 339.957C428.736 339.957 428.37 333.88 428.557 331.304C428.615 329.209 428.491 327.112 428.183 325.039L427.818 319.7L418.425 316.938Z" fill="#263238" stroke="#263238" stroke-linecap="round" stroke-linejoin="round"/>
<path d="M470.183 226.531C470.183 226.531 417.872 232.975 416.767 234.267C415.662 235.559 416.58 273.683 416.58 273.683L410.502 318.304L429.289 324.053C429.289 324.053 435.187 286.429 437.211 276.267C438.594 268.71 439.579 261.086 440.16 253.426C440.16 253.426 469.078 260.057 478.987 254.531C488.895 249.006 486.901 242.189 486.901 242.189" fill="#2673DD"/>
<path d="M470.183 226.531C470.183 226.531 417.872 232.975 416.767 234.267C415.662 235.559 416.58 273.683 416.58 273.683L410.502 318.304L429.289 324.053C429.289 324.053 435.187 286.429 437.211 276.267C438.594 268.71 439.579 261.086 440.16 253.426C440.16 253.426 469.078 260.057 478.987 254.531C488.895 249.006 486.901 242.189 486.901 242.189" stroke="#263238" stroke-linecap="round" stroke-linejoin="round"/>
<path d="M417.581 272.19C417.581 272.19 419.963 261.483 420.433 255.763" stroke="#263238" stroke-linecap="round" stroke-linejoin="round"/>
<path d="M436.27 247.266C435.703 246.507 435.02 245.842 434.246 245.295" stroke="#263238" stroke-linecap="round" stroke-linejoin="round"/>
<path d="M440.16 253.426C440.16 253.426 439.1 251.351 437.711 249.252" stroke="#263238" stroke-linecap="round" stroke-linejoin="round"/>
<path d="M501.125 152.858C501.125 152.858 480.308 191.147 475.888 200.928C471.468 210.709 465.547 224.321 465.547 225.792C465.547 227.263 461.679 265.029 462.971 265.761C464.262 266.493 483.594 260.236 492.621 256.741C501.648 253.247 502.014 250.664 502.753 248.633C503.492 246.602 503.306 220.453 503.306 220.453C503.306 220.453 522.092 167.037 521.905 164.648C521.718 162.258 501.125 152.858 501.125 152.858Z" fill="#2673DD" stroke="#263238" stroke-linecap="round" stroke-linejoin="round"/>
<path d="M485.303 191.595C481.891 194.94 479.024 197.434 479.024 197.434" stroke="#263238" stroke-linecap="round" stroke-linejoin="round"/>
<path d="M507.756 157.091C507.756 157.091 499.102 174.041 494.674 180.858C492.49 183.982 490.025 186.901 487.312 189.579" stroke="#263238" stroke-linecap="round" stroke-linejoin="round"/>
<path d="M480.069 153.537C480.069 153.537 471.109 168.515 468.526 177.356C465.942 186.196 465.39 190.796 465.39 190.796" stroke="#263238" stroke-linecap="round" stroke-linejoin="round"/>
<path d="M475.335 174.959L483.847 169.486L484.176 182.329" stroke="#263238" stroke-linecap="round" stroke-linejoin="round"/>
<path d="M493.494 232.505L496.339 232.057" stroke="#263238" stroke-linecap="round" stroke-linejoin="round"/>
<path d="M495.413 228.741L475.335 231.138V235.372L489.671 233.109" stroke="#263238" stroke-linecap="round" stroke-linejoin="round"/>
<path d="M467.421 159.301C467.421 159.301 470.736 152.305 472.394 152.119C474.051 151.932 477.732 152.119 477.732 153.612C477.732 155.105 475.709 155.269 475.709 155.269H472.946L471.654 158.585L467.421 159.301Z" fill="white" stroke="#263238" stroke-linecap="round" stroke-linejoin="round"/>
<path d="M462.814 172.562L464.106 165.379C464.106 165.379 464.658 159.122 465.599 158.749C466.54 158.376 474.992 158.57 474.992 158.57C474.992 158.57 475.179 165.932 474.439 167.776C473.7 169.62 470.385 170.352 470.385 170.352C470.079 171.501 469.649 172.613 469.101 173.667C468.548 174.414 466.517 175.325 466.517 175.325L465.965 176.818L461.179 173.682L462.814 172.562Z" fill="white" stroke="#263238" stroke-linecap="round" stroke-linejoin="round"/>
<path d="M470.363 170.36L469.444 166.858L472.946 166.671" fill="white"/>
<path d="M470.363 170.36L469.444 166.858L472.946 166.671" stroke="#263238" stroke-linecap="round" stroke-linejoin="round"/>
<path d="M460.97 172.017L468.526 177.356L465.577 180.484L459.133 174.593L460.97 172.017Z" fill="white" stroke="#263238" stroke-linecap="round" stroke-linejoin="round"/>
<path d="M459.133 174.593L467.787 181.037L451.211 206.274C449.25 206.691 447.212 206.562 445.319 205.901C442.183 204.796 439.242 198.539 439.242 197.8C439.242 197.06 459.133 174.593 459.133 174.593Z" fill="#2673DD" stroke="#263238" stroke-linecap="round" stroke-linejoin="round"/>
<path d="M452.502 203.877C452.502 203.877 449.74 198.718 449.553 197.247C449.366 195.776 449.187 192.827 448.261 191.722C447.335 190.617 446.238 189.877 445.872 188.22C445.506 186.562 443.841 187.301 443.632 188.967C443.423 190.632 444.916 192.282 444.916 192.282C444.916 192.282 440.317 190.788 439.578 191.177C438.838 191.565 437.338 192.095 437.733 193.417C437.979 194.227 438.291 195.017 438.667 195.776C438.667 195.776 435.725 199.644 435.725 201.481C435.725 203.317 437.748 206.274 439.227 207.379C440.705 208.484 445.857 209.619 445.857 209.619L452.502 203.877Z" fill="white" stroke="#263238" stroke-linecap="round" stroke-linejoin="round"/>
<path d="M505.643 165.977L488.97 200.562L448.261 202.802C447.235 203.051 446.297 203.578 445.55 204.324C444.803 205.071 444.276 206.009 444.028 207.036C443.6 208.721 443.414 210.458 443.475 212.195C443.475 212.195 470.549 215.511 479.024 216.063C487.499 216.616 497.81 217.721 499.102 216.429C500.394 215.137 515.678 183.464 515.678 183.464" fill="#2673DD"/>
<path d="M505.643 165.977L488.97 200.562L448.261 202.802C447.235 203.051 446.297 203.578 445.55 204.324C444.803 205.071 444.276 206.009 444.028 207.036C443.6 208.721 443.414 210.458 443.475 212.195C443.475 212.195 470.549 215.511 479.024 216.063C487.499 216.616 497.81 217.721 499.102 216.429C500.394 215.137 515.678 183.464 515.678 183.464" stroke="#263238" stroke-linecap="round" stroke-linejoin="round"/>
<path d="M261.983 267.688H257.727V308.695H261.983V267.688Z" fill="#263238" stroke="#263238" stroke-linecap="round" stroke-linejoin="round"/>
<path d="M236.05 228.399L228.545 229.276L233.308 270.006L240.813 269.128L236.05 228.399Z" fill="#263238" stroke="#263238" stroke-linecap="round" stroke-linejoin="round"/>
<path d="M265.261 310.367V303.453H254.457V310.427L211.239 327.772V335.955H214.189V329.736L260.012 319.305L304.625 329.736V335.955H307.492V327.772L265.261 310.367Z" fill="#8C8C8C" stroke="#263238" stroke-linecap="round" stroke-linejoin="round"/>
<path d="M270.495 267.688H249.215V280.784H270.495V267.688Z" fill="#263238" stroke="#263238" stroke-linecap="round" stroke-linejoin="round"/>
<path d="M211.239 336.284C211.239 335.377 210.971 334.491 210.467 333.737C209.963 332.983 209.247 332.395 208.409 332.048C207.572 331.701 206.65 331.611 205.761 331.787C204.871 331.964 204.054 332.401 203.413 333.042C202.772 333.683 202.335 334.5 202.158 335.389C201.982 336.279 202.072 337.201 202.419 338.038C202.766 338.876 203.354 339.592 204.108 340.096C204.862 340.6 205.748 340.868 206.655 340.868C207.871 340.868 209.037 340.385 209.897 339.526C210.756 338.666 211.239 337.5 211.239 336.284Z" fill="#263238" stroke="#263238" stroke-linecap="round" stroke-linejoin="round"/>
<path d="M208.619 336.284C208.619 335.895 208.503 335.516 208.288 335.193C208.072 334.87 207.765 334.618 207.406 334.47C207.048 334.321 206.653 334.282 206.272 334.358C205.891 334.434 205.541 334.621 205.266 334.895C204.992 335.17 204.805 335.52 204.729 335.901C204.653 336.282 204.692 336.677 204.841 337.035C204.989 337.394 205.241 337.701 205.564 337.917C205.887 338.132 206.267 338.248 206.655 338.248C207.176 338.248 207.675 338.041 208.043 337.672C208.412 337.304 208.619 336.805 208.619 336.284Z" fill="white" stroke="#263238" stroke-linecap="round" stroke-linejoin="round"/>
<path d="M316.96 336.284C316.96 335.377 316.691 334.491 316.187 333.737C315.684 332.983 314.968 332.395 314.13 332.048C313.292 331.701 312.37 331.611 311.481 331.787C310.592 331.964 309.775 332.401 309.134 333.042C308.493 333.683 308.056 334.5 307.879 335.389C307.702 336.279 307.793 337.201 308.14 338.038C308.487 338.876 309.074 339.592 309.828 340.096C310.582 340.6 311.469 340.868 312.375 340.868C313.591 340.868 314.757 340.385 315.617 339.526C316.477 338.666 316.96 337.5 316.96 336.284Z" fill="#263238" stroke="#263238" stroke-linecap="round" stroke-linejoin="round"/>
<path d="M312.405 338.248C313.49 338.248 314.369 337.368 314.369 336.284C314.369 335.199 313.49 334.32 312.405 334.32C311.321 334.32 310.442 335.199 310.442 336.284C310.442 337.368 311.321 338.248 312.405 338.248Z" fill="white" stroke="#263238" stroke-linecap="round" stroke-linejoin="round"/>
<path d="M261.819 336.194H258.22L256.42 311.636H263.626L261.819 336.194Z" fill="#8C8C8C" stroke="#263238" stroke-linecap="round" stroke-linejoin="round"/>
<path d="M261.654 330.953H258.055V341.1H261.654V330.953Z" fill="#263238" stroke="#263238" stroke-linecap="round" stroke-linejoin="round"/>
<path d="M231.511 248.834C229.412 249.037 227.292 248.824 225.275 248.208C223.257 247.592 221.381 246.584 219.752 245.242C218.124 243.901 216.777 242.251 215.786 240.389C214.796 238.526 214.182 236.486 213.98 234.386L208.955 182.12C208.752 180.02 208.965 177.9 209.581 175.883C210.197 173.865 211.205 171.989 212.547 170.361C213.888 168.733 215.538 167.385 217.4 166.394C219.263 165.404 221.303 164.79 223.403 164.588C227.644 164.182 231.873 165.477 235.16 168.187C238.447 170.898 240.524 174.802 240.934 179.043L245.959 231.31C246.367 235.55 245.074 239.778 242.365 243.064C239.655 246.351 235.751 248.426 231.511 248.834Z" fill="#8C8C8C" stroke="#263238" stroke-linecap="round" stroke-linejoin="round"/>
<path d="M235.319 248.468C231.079 248.876 226.85 247.583 223.562 244.874C220.275 242.165 218.198 238.261 217.788 234.02L212.763 181.754C212.367 177.52 213.666 173.303 216.374 170.026C219.082 166.748 222.979 164.677 227.211 164.267C231.452 163.859 235.682 165.153 238.97 167.864C242.258 170.575 244.334 174.481 244.742 178.722L249.76 230.937C250.168 235.176 248.876 239.404 246.168 242.691C243.461 245.979 239.558 248.057 235.319 248.468Z" fill="#8C8C8C" stroke="#263238" stroke-linecap="round" stroke-linejoin="round"/>
<path d="M307.806 271.787L230.279 273.758C229.864 273.771 229.449 273.702 229.06 273.555C228.671 273.407 228.315 273.185 228.012 272.9C227.709 272.615 227.465 272.273 227.294 271.894C227.123 271.514 227.029 271.105 227.017 270.689L226.613 258.698C226.587 257.859 226.895 257.045 227.469 256.433C228.043 255.821 228.836 255.462 229.675 255.435L307.253 253.464C307.669 253.45 308.083 253.518 308.472 253.664C308.861 253.811 309.217 254.032 309.52 254.317C309.823 254.601 310.067 254.943 310.238 255.322C310.409 255.701 310.504 256.109 310.516 256.525L310.897 268.524C310.91 268.941 310.84 269.358 310.691 269.748C310.543 270.139 310.318 270.496 310.031 270.799C309.744 271.102 309.399 271.346 309.017 271.515C308.635 271.685 308.224 271.777 307.806 271.787Z" fill="#8C8C8C" stroke="#263238" stroke-linecap="round" stroke-linejoin="round"/>
<path d="M273.324 254.053L229.711 255.431C227.963 255.486 226.591 256.947 226.647 258.695L227.025 270.688C227.081 272.436 228.542 273.807 230.29 273.752L273.903 272.374C275.651 272.319 277.023 270.857 276.967 269.11L276.589 257.117C276.533 255.369 275.072 253.997 273.324 254.053Z" fill="#8C8C8C" stroke="#263238" stroke-linecap="round" stroke-linejoin="round"/>
<path d="M317.707 247.363C317.707 247.363 318.371 260.176 320.133 271.652C321.895 283.129 324.815 317.946 324.815 317.946C325.733 321.442 326.983 324.842 328.548 328.1C329.593 330.264 330.93 332.274 332.521 334.074C332.521 334.074 338.262 339.816 338.038 340.697C337.814 341.578 334.215 341.488 330.684 340.824C327.152 340.159 326.428 339.33 324.442 337.994C322.455 336.657 317.938 334.947 315.952 334.26C313.966 333.573 313.309 331.841 313.973 329.855C314.638 327.869 316.848 323.232 316.848 320.365C316.848 317.498 315.078 303.893 310.24 294.836C305.402 285.779 302.512 270.107 302.512 270.107L317.707 247.363Z" fill="white" stroke="#263238" stroke-linecap="round" stroke-linejoin="round"/>
<path d="M318.879 330.52C317.475 329.429 316.161 328.28 315.041 327.197C314.623 328.265 314.235 329.205 314.018 329.855C313.354 331.841 314.018 333.588 315.997 334.26C317.975 334.932 322.5 336.65 324.486 337.994C326.473 339.338 327.197 340.159 330.729 340.824C334.26 341.488 337.867 341.57 338.083 340.697C338.3 339.823 332.565 334.074 332.565 334.074L329.698 335.403C329.698 335.403 322.851 333.611 318.879 330.52Z" fill="#2673DD" stroke="#263238" stroke-linecap="round" stroke-linejoin="round"/>
<path d="M233.005 221.051C233.005 221.051 231.019 228.831 232.101 233.744C233.184 238.657 240.606 250.021 253.449 252.739C266.291 255.457 298.57 254.569 298.57 254.569C298.57 254.569 290.789 266.388 287.892 280.62C285.981 290.043 280.119 303.229 279.216 305.223C278.313 307.216 267.635 310.83 268.016 312.458C268.397 314.085 269.644 324.21 272.354 328.377C275.065 332.543 279.589 334.35 281.396 334.888C283.203 335.425 283.569 335.425 283.569 333.618C283.569 331.811 282.3 329.28 282.3 327.645C282.3 326.01 282.121 314.952 282.845 313.533C283.569 312.114 307.253 274.773 310.867 268.651C314.481 262.528 320.096 250.559 321.724 248.573C323.351 246.587 325.338 243.869 323.71 240.434C322.082 237 284.711 225.501 284.711 225.501L282.748 218.549L264.081 217.467L233.005 221.051Z" fill="white" stroke="#263238" stroke-linecap="round" stroke-linejoin="round"/>
<path d="M284.711 225.493L282.748 218.542L264.081 217.459L232.967 221.073C232.967 221.073 230.937 228.861 232.064 233.767C233.856 241.524 240.569 250.044 253.411 252.762C266.254 255.48 298.532 254.591 298.532 254.591C298.532 254.591 301.594 239.292 307.574 233.326C300.391 230.877 284.711 225.493 284.711 225.493Z" fill="#263238" stroke="#263238" stroke-linecap="round" stroke-linejoin="round"/>
<path d="M298.57 254.539C302.877 253.398 307.058 251.822 311.046 249.835L298.57 254.539Z" fill="white"/>
<path d="M298.57 254.539C302.877 253.398 307.058 251.822 311.046 249.835" stroke="#263238" stroke-linecap="round" stroke-linejoin="round"/>
<path d="M274.146 321.112C272.862 318.125 272.944 312.152 273.108 308.956C270.375 310.307 267.814 311.614 268.001 312.428C268.359 314.056 269.629 324.18 272.339 328.347C275.05 332.513 279.574 334.32 281.381 334.858C283.188 335.395 283.554 335.395 283.554 333.588C283.554 331.781 282.292 329.258 282.285 327.615C280.393 327.374 278.52 327.008 276.677 326.517C276.677 326.517 275.953 325.271 274.146 321.112Z" fill="#2673DD" stroke="#263238" stroke-linecap="round" stroke-linejoin="round"/>
<path d="M271.533 149.423L265.925 151.775C265.925 151.775 270.45 194.133 270.271 200.107C270.092 206.08 269.726 218.027 269.726 218.027C269.726 218.027 277.506 220.379 282.748 218.572L282.389 198.136C282.389 198.136 286.19 178.595 284.741 172.264C283.293 165.932 278.768 154.717 278.768 154.717C278.768 154.717 276.64 149.602 271.533 149.423Z" fill="white" stroke="#263238" stroke-linecap="round" stroke-linejoin="round"/>
<path d="M269.92 167.694L275.356 159.413L282.038 169.12C282.038 169.12 279.149 155.553 278.783 154.65C277.916 152.947 276.606 151.51 274.99 150.491C272.817 149.042 270.278 148.997 268.837 148.863C267.396 148.729 265.94 151.76 265.94 151.76L269.92 167.694Z" fill="white" stroke="#263238" stroke-linecap="round" stroke-linejoin="round"/>
<path d="M267.381 148.759C267.381 148.759 249.2 152.738 247.639 153.873C246.079 155.008 245.399 158.704 245.788 160.123C246.176 161.541 250.335 192.229 250.335 192.229L229.428 222.768C229.428 222.768 236.253 228.45 242.644 229.585C249.036 230.72 262.67 229.018 267.501 227.032L272.332 225.045C272.332 225.045 274.572 187.966 272.19 173.331C269.808 158.697 267.381 148.759 267.381 148.759Z" fill="#2673DD" stroke="#263238" stroke-linecap="round" stroke-linejoin="round"/>
<path d="M323.21 195.918L330.31 192.797C330.31 192.797 332.446 188.108 332.73 187.682C333.013 187.257 335.425 186.547 336.56 185.547C337.695 184.546 339.263 182.851 339.689 182.709C340.114 182.568 340.823 183.844 339.689 185.547C338.828 186.753 337.826 187.851 336.702 188.817L343.668 186.264C343.668 186.264 346.364 181.716 347.073 183.703C347.782 185.689 344.086 191.804 343.243 193.79C342.399 195.776 341.533 196.777 339.972 197.06C338.412 197.344 333.581 198.195 332.588 198.337C331.595 198.479 325.479 202.026 325.479 202.026L323.21 195.918Z" fill="white" stroke="#263238" stroke-linecap="round" stroke-linejoin="round"/>
<path d="M333.066 194.499C334.327 193.432 335.783 192.371 336.56 192.371C338.128 192.371 341.533 192.655 341.533 192.655C341.533 192.655 343.526 188.108 344.519 187.428C345.513 186.749 346.364 187.712 345.513 189.131" fill="white"/>
<path d="M333.066 194.499C334.327 193.432 335.783 192.371 336.56 192.371C338.128 192.371 341.533 192.655 341.533 192.655C341.533 192.655 343.526 188.108 344.519 187.428C345.513 186.749 346.364 187.712 345.513 189.131" stroke="#263238" stroke-linecap="round" stroke-linejoin="round"/>
<path d="M276.901 152.171C276.901 152.171 281.449 171.913 281.307 179.297C281.165 186.682 278.88 190.4 279.313 192.939C279.746 195.477 280.732 225.329 280.732 225.329L284.711 225.471C284.711 225.471 283.718 214.107 283.86 211.971C284.002 209.836 285.421 201.316 285.421 201.316C285.421 201.316 292.529 215.384 293.522 216.093C294.515 216.802 327.473 202.743 327.473 202.743L325.054 194.641L299.914 199.756C299.914 199.756 294.941 183.277 294.231 179.723C293.522 176.169 292.955 163.677 290.961 160.548C288.967 157.42 276.901 152.171 276.901 152.171Z" fill="#2673DD" stroke="#263238" stroke-linecap="round" stroke-linejoin="round"/>
<path d="M285.421 201.316C285.421 201.316 286.272 197.77 287.698 188.392C288.555 182.793 288.603 177.1 287.84 171.487" stroke="#263238" stroke-linecap="round" stroke-linejoin="round"/>
<path d="M283.868 163.229C284.547 168.344 285.055 174.66 284.144 178.162C283.104 182.137 281.774 186.03 280.164 189.81" stroke="#263238" stroke-linecap="round" stroke-linejoin="round"/>
<path d="M282.613 155.307C282.613 155.307 283.039 157.45 283.509 160.533" stroke="#263238" stroke-linecap="round" stroke-linejoin="round"/>
<path d="M269.024 182.933C270.868 187.503 272.496 191.961 272.496 191.961" stroke="#263238" stroke-linecap="round" stroke-linejoin="round"/>
<path d="M260.422 151.028C260.422 151.028 263.685 171.061 266.246 176.46C266.769 177.557 267.337 178.857 267.911 180.193" stroke="#263238" stroke-linecap="round" stroke-linejoin="round"/>
<path d="M300.765 191.662L306.305 190.094C306.305 190.094 309.859 185.547 310.71 184.412C311.562 183.277 313.548 183.277 314.974 182.426C316.4 181.575 318.237 178.446 318.946 179.013C319.655 179.581 318.946 182.142 318.199 182.851C317.248 183.621 316.251 184.331 315.213 184.979C314.645 185.405 321.888 183.703 321.888 183.703C321.888 183.703 326.577 179.581 326.861 180.716C327.145 181.851 324.725 185.831 324.725 185.831C324.725 185.831 321.321 189.093 319.611 190.512C317.901 191.931 313.787 192.506 312.652 192.752C311.517 192.999 309.531 193.32 309.531 193.32L301.004 196.441L300.765 191.662Z" fill="white" stroke="#263238" stroke-linecap="round" stroke-linejoin="round"/>
<path d="M323.635 186.667C323.635 186.667 320.649 188.085 319.088 188.795L323.635 186.667Z" fill="white"/>
<path d="M323.635 186.667C323.635 186.667 320.649 188.085 319.088 188.795" stroke="#263238" stroke-linecap="round" stroke-linejoin="round"/>
<path d="M315.258 184.979L312.697 185.547" stroke="#263238" stroke-linecap="round" stroke-linejoin="round"/>
<path d="M250.761 152.738C250.761 152.738 242.383 155.576 241.099 157.711C239.814 159.847 244.369 177.311 247.781 186.973C251.194 196.635 260.281 212.823 261.415 213.39C262.55 213.957 292.245 203.452 299.04 201.316C305.835 199.181 306.992 198.053 306.992 198.053L304.005 190.378L269.92 196.485L259.467 163.677" fill="#2673DD"/>
<path d="M250.761 152.738C250.761 152.738 242.383 155.576 241.099 157.711C239.814 159.847 244.369 177.311 247.781 186.973C251.194 196.635 260.281 212.823 261.415 213.39C262.55 213.957 292.245 203.452 299.04 201.316C305.835 199.181 306.992 198.053 306.992 198.053L304.005 190.378L269.92 196.485L259.467 163.677" stroke="#263238" stroke-linecap="round" stroke-linejoin="round"/>
<path d="M291.924 109.476C291.924 109.476 295.239 111.716 293.559 114.128C291.879 116.54 288.333 116.704 288.333 116.704L285.234 111.821C285.234 111.821 288.923 107.445 291.924 109.476Z" fill="#263238" stroke="#263238" stroke-linecap="round" stroke-linejoin="round"/>
<path d="M288.445 112.388C288.445 112.388 293.53 124.455 293.246 125.492C292.962 126.53 290.595 128.151 291.67 129.726C292.746 131.301 295.897 134.452 295.814 134.893C295.732 135.333 291.879 137.581 291.879 137.581C291.879 137.581 289.184 147.288 288.086 148.706C286.989 150.125 277.723 148.4 277.723 148.4L275.766 159.272L264.761 149.012L260.646 145.13C260.646 145.13 256.958 128.569 264.783 118.616C272.608 108.663 288.445 112.388 288.445 112.388Z" fill="white" stroke="#263238" stroke-linecap="round" stroke-linejoin="round"/>
<path d="M287.743 129.39C287.743 130.405 287.325 131.227 286.854 131.219C286.384 131.212 286.018 130.376 286.041 129.353C286.063 128.33 286.451 127.516 286.922 127.523C287.392 127.531 287.758 128.367 287.743 129.39Z" fill="#263238"/>
<path d="M287.765 140.008C286.886 139.966 286.024 139.746 285.232 139.361C284.44 138.976 283.734 138.434 283.158 137.768C283.158 137.768 282.882 142.136 284.241 142.389C285.6 142.643 287.765 140.008 287.765 140.008Z" fill="#263238" stroke="#263238" stroke-linecap="round" stroke-linejoin="round"/>
<path d="M284.906 125.343C284.906 125.343 287.735 122.946 290.267 125.754" stroke="#263238" stroke-linecap="round" stroke-linejoin="round"/>
<path d="M277.723 148.4L273.131 147.303L276.588 153.716L277.723 148.4Z" fill="#263238" stroke="#263238" stroke-linecap="round" stroke-linejoin="round"/>
<path d="M288.445 112.388C288.445 112.388 287.444 115.532 282.554 119.639C277.663 123.745 273.287 126.359 273.302 127.493C273.317 128.628 274.049 129.689 273.063 129.965C272.26 130.068 271.444 129.93 270.719 129.569C270.719 129.569 268.345 136.341 267.986 141.12C267.841 144.274 268.32 147.426 269.397 150.394C269.397 150.394 258.862 150.961 252.784 146.347C246.706 141.732 244.996 136.506 245.668 131.973C246.34 127.441 248.267 113.128 257.615 106.116C266.963 99.1052 280.358 99.3964 284.906 102.256C289.453 105.116 292.746 107.214 291.909 109.476C291.073 111.739 288.445 112.388 288.445 112.388Z" fill="#263238" stroke="#263238" stroke-linecap="round" stroke-linejoin="round"/>
<path d="M266.366 254.994C266.087 254.996 265.811 254.934 265.559 254.815C265.027 254.524 264.618 254.049 264.411 253.479C264.203 252.908 264.211 252.282 264.432 251.716C267.807 242.503 271.675 226.068 267.71 221.163C266.784 220.416 261.206 218.923 231.161 222.029L228.973 222.253C226.875 222.432 225.083 225.464 224.62 226.509C224.521 226.776 224.366 227.018 224.166 227.221C223.966 227.423 223.725 227.58 223.459 227.681C223.193 227.782 222.908 227.825 222.624 227.807C222.34 227.789 222.063 227.71 221.812 227.577C221.298 227.247 220.92 226.743 220.747 226.158C220.575 225.572 220.619 224.944 220.871 224.388C221.163 223.731 223.858 217.937 228.652 217.519L230.78 217.303C262.797 213.972 268.934 215.652 270.801 217.952C277.85 226.673 269.308 250.805 268.3 253.531C268.169 253.945 267.912 254.308 267.566 254.57C267.219 254.832 266.8 254.981 266.366 254.994Z" fill="white" stroke="#263238" stroke-linecap="round" stroke-linejoin="round"/>
<path d="M398.362 184.83H349.298L337.949 223.276H387.012L398.362 184.83Z" fill="#D9D9D9" stroke="#263238" stroke-linecap="round" stroke-linejoin="round"/>
<path d="M302.057 221.17L301.437 223.276H387.012L387.639 221.17H302.057Z" fill="#D9D9D9" stroke="#263238" stroke-linecap="round" stroke-linejoin="round"/>
<path d="M338.658 221.17L338.038 223.276H387.012L387.639 221.17H338.658Z" fill="#263238" stroke="#263238" stroke-linecap="round" stroke-linejoin="round"/>
<path d="M386.31 229.048H378.007V340.062H386.31V229.048Z" fill="white" stroke="#263238" stroke-linecap="round" stroke-linejoin="round"/>
<path d="M386.31 229.048H378.007V247.386H386.31V229.048Z" fill="#263238" stroke="#263238" stroke-linecap="round" stroke-linejoin="round"/>
<path d="M487.178 223.298H276.394V229.466H487.178V223.298Z" fill="white" stroke="#263238" stroke-linecap="round" stroke-linejoin="round"/>
<path d="M425.481 340.965H338.121C346.763 336.901 356.197 334.795 365.747 334.798H397.951C407.502 334.793 416.936 336.899 425.578 340.965H425.481Z" fill="white" stroke="#263238" stroke-linecap="round" stroke-linejoin="round"/>
</svg>
