<svg width="617" height="515" viewBox="0 0 617 515" fill="none" xmlns="http://www.w3.org/2000/svg">
<g opacity="0.3">
<g clip-path="url(#clip0_23_53)">
<circle cx="445.23" cy="2" r="2" fill="#17181A"/>
<circle cx="461.23" cy="2" r="2" fill="#17181A"/>
<circle cx="477.23" cy="2" r="2" fill="#17181A"/>
<circle cx="493.23" cy="2" r="2" fill="#17181A"/>
<circle cx="509.23" cy="2" r="2" fill="#17181A"/>
</g>
<g clip-path="url(#clip1_23_53)">
<circle cx="445.23" cy="18" r="2" fill="#17181A"/>
<circle cx="461.23" cy="18" r="2" fill="#17181A"/>
<circle cx="477.23" cy="18" r="2" fill="#17181A"/>
<circle cx="493.23" cy="18" r="2" fill="#17181A"/>
<circle cx="509.23" cy="18" r="2" fill="#17181A"/>
</g>
<g clip-path="url(#clip2_23_53)">
<circle cx="445.23" cy="34" r="2" fill="#17181A"/>
<circle cx="461.23" cy="34" r="2" fill="#17181A"/>
<circle cx="477.23" cy="34" r="2" fill="#17181A"/>
<circle cx="493.23" cy="34" r="2" fill="#17181A"/>
<circle cx="509.23" cy="34" r="2" fill="#17181A"/>
</g>
<g clip-path="url(#clip3_23_53)">
<circle cx="445.23" cy="50" r="2" fill="#17181A"/>
<circle cx="461.23" cy="50" r="2" fill="#17181A"/>
<circle cx="477.23" cy="50" r="2" fill="#17181A"/>
<circle cx="493.23" cy="50" r="2" fill="#17181A"/>
<circle cx="509.23" cy="50" r="2" fill="#17181A"/>
</g>
<g clip-path="url(#clip4_23_53)">
<circle cx="445.23" cy="66" r="2" fill="#17181A"/>
<circle cx="461.23" cy="66" r="2" fill="#17181A"/>
<circle cx="477.23" cy="66" r="2" fill="#17181A"/>
<circle cx="493.23" cy="66" r="2" fill="#17181A"/>
<circle cx="509.23" cy="66" r="2" fill="#17181A"/>
</g>
<g clip-path="url(#clip5_23_53)">
<circle cx="445.23" cy="82" r="2" fill="#17181A"/>
<circle cx="461.23" cy="82" r="2" fill="#17181A"/>
<circle cx="477.23" cy="82" r="2" fill="#17181A"/>
<circle cx="493.23" cy="82" r="2" fill="#17181A"/>
<circle cx="509.23" cy="82" r="2" fill="#17181A"/>
</g>
<g clip-path="url(#clip6_23_53)">
<circle cx="445.23" cy="98" r="2" fill="#17181A"/>
<circle cx="461.23" cy="98" r="2" fill="#17181A"/>
<circle cx="477.23" cy="98" r="2" fill="#17181A"/>
<circle cx="493.23" cy="98" r="2" fill="#17181A"/>
<circle cx="509.23" cy="98" r="2" fill="#17181A"/>
</g>
</g>
<path opacity="0.3" fill-rule="evenodd" clip-rule="evenodd" d="M37.5085 470.175C38.591 471.46 39.7394 472.708 40.9537 473.915C42.1679 475.123 43.4231 476.265 44.7148 477.341L37.5085 470.175ZM53.771 483.522L31.2933 461.169C30.2496 459.292 29.3206 457.368 28.5062 455.409L59.5638 486.293C57.5933 485.483 55.659 484.56 53.771 483.522ZM64.0391 487.918C65.4135 488.354 66.8011 488.736 68.1988 489.066L25.7179 446.822C26.0495 448.212 26.4342 449.592 26.872 450.959L64.0391 487.918ZM24.99 443.273L71.7677 489.79C72.9279 489.987 74.0931 490.149 75.2614 490.275L24.5019 439.799C24.6288 440.961 24.7915 442.119 24.99 443.273ZM24.2502 436.723L78.3542 490.526C79.3836 490.581 80.4143 490.609 81.4449 490.61L24.1651 433.65C24.1659 434.675 24.1942 435.7 24.2502 436.723ZM24.2301 430.889L84.221 490.546C85.1568 490.501 86.0917 490.434 87.0249 490.345L24.4319 428.101C24.3418 429.029 24.2745 429.959 24.2301 430.889ZM24.734 425.576L89.5638 490.044C90.4264 489.923 91.2867 489.782 92.1441 489.621L25.1593 423.01C24.9979 423.863 24.8561 424.718 24.734 425.576ZM25.6525 420.676L94.4919 489.131C95.2938 488.946 96.0924 488.744 96.8872 488.524L26.2628 418.294C26.0419 419.084 25.8385 419.878 25.6525 420.676ZM26.9177 416.12L99.0734 487.873C99.8228 487.633 100.568 487.378 101.309 487.107L27.6877 413.896C27.4152 414.633 27.1585 415.374 26.9177 416.12ZM28.4845 411.864L103.353 486.315C104.056 486.027 104.754 485.724 105.447 485.408L29.3968 409.782C29.0782 410.471 28.7741 411.165 28.4845 411.864ZM30.3218 407.877L107.363 484.488C108.022 484.156 108.677 483.81 109.326 483.451L31.364 405.924C31.003 406.57 30.6556 407.22 30.3218 407.877ZM32.4073 404.136L111.124 482.414C111.744 482.041 112.358 481.655 112.966 481.257L33.5706 402.304C33.17 402.909 32.7822 403.52 32.4073 404.136ZM34.725 400.627L114.653 480.109C115.235 479.698 115.811 479.274 116.38 478.838L36.0031 398.909C35.5649 399.476 35.1389 400.048 34.725 400.627ZM37.2637 397.338L117.961 477.585C118.506 477.136 119.046 476.676 119.578 476.204L38.6521 395.729C38.1777 396.259 37.7149 396.795 37.2637 397.338ZM40.0154 394.26L121.056 474.848C121.379 474.542 121.699 474.231 122.016 473.915C122.201 473.731 122.384 473.547 122.566 473.361L41.511 392.758C41.3243 392.939 41.1385 393.121 40.9537 393.305C40.6364 393.621 40.3236 393.939 40.0154 394.26ZM42.975 391.389L123.943 471.905C124.422 471.38 124.89 470.849 125.346 470.311L44.5777 389.994C44.0369 390.447 43.5026 390.912 42.975 391.389ZM46.144 388.726L126.621 468.754C127.064 468.192 127.495 467.625 127.914 467.051L47.8565 387.44C47.2795 387.857 46.7085 388.285 46.144 388.726ZM49.5284 386.278L129.083 465.388C129.489 464.789 129.882 464.183 130.262 463.572L51.3549 385.105C50.7403 385.483 50.1313 385.874 49.5284 386.278ZM53.1373 384.052L131.321 461.8C131.687 461.16 132.04 460.514 132.38 459.864L55.0839 382.999C54.4297 383.337 53.7807 383.688 53.1373 384.052ZM56.9834 382.063L133.321 457.975C133.646 457.292 133.956 456.604 134.252 455.911L59.0586 381.137C58.362 381.432 57.6702 381.74 56.9834 382.063ZM61.0847 380.327L135.067 453.896C135.346 453.166 135.609 452.432 135.857 451.693L63.3002 379.541C62.5575 379.788 61.8188 380.05 61.0847 380.327ZM65.4662 378.87L136.532 449.539C136.76 448.757 136.971 447.97 137.165 447.18L67.8387 378.24C67.0443 378.433 66.2533 378.643 65.4662 378.87ZM70.1632 377.727L137.682 444.869C137.852 444.025 138.002 443.178 138.134 442.329L72.7166 377.277C71.8628 377.408 71.0115 377.558 70.1632 377.727ZM75.2274 376.949L138.464 439.833C138.565 438.916 138.643 437.997 138.699 437.077L77.9981 376.715C77.0731 376.771 76.1493 376.849 75.2274 376.949ZM80.7384 376.615L138.8 434.352C138.813 433.342 138.799 432.332 138.759 431.323L83.7851 376.656C82.7701 376.615 81.7541 376.602 80.7384 376.615ZM86.8284 376.857L138.556 428.296C138.45 427.157 138.309 426.019 138.133 424.887L90.2573 377.278C89.118 377.103 87.9745 376.963 86.8284 376.857ZM93.7466 377.922L137.485 421.417C137.189 420.067 136.843 418.726 136.448 417.397L97.789 378.953C96.4521 378.56 95.1037 378.217 93.7466 377.922ZM102.09 380.405L134.988 413.12C134.281 411.291 133.476 409.491 132.572 407.728L107.512 382.808C105.739 381.909 103.929 381.108 102.09 380.405ZM114.748 387.179L128.176 400.532C126.357 397.998 124.303 395.579 122.016 393.305C119.729 391.031 117.296 388.989 114.748 387.179Z" fill="#575757"/>
<path d="M617 447.88H10.6459V448.18H617V447.88Z" fill="#EBEBEB"/>
<path d="M556.243 467.188H516.078V467.488H556.243V467.188Z" fill="#EBEBEB"/>
<path d="M412.319 470.452H401.781V470.752H412.319V470.452Z" fill="#EBEBEB"/>
<path d="M514.866 456.052H491.594V456.352H514.866V456.052Z" fill="#EBEBEB"/>
<path d="M126.641 458.068H74.2645V458.368H126.641V458.068Z" fill="#EBEBEB"/>
<path d="M145.123 458.068H137.447V458.368H145.123V458.068Z" fill="#EBEBEB"/>
<path d="M283.687 463.132H170.081V463.432H283.687V463.132Z" fill="#EBEBEB"/>
<path d="M298.058 394.36H63.8959C62.0615 394.357 60.3033 393.634 59.0073 392.349C57.7113 391.064 56.9835 389.323 56.9835 387.508V61.792C56.9994 59.9872 57.7344 58.2616 59.0286 56.9899C60.3229 55.7182 62.0719 55.0031 63.8959 55H298.058C299.894 55 301.656 55.7219 302.954 57.0069C304.253 58.2919 304.982 60.0347 304.982 61.852V387.508C304.982 389.325 304.253 391.068 302.954 392.353C301.656 393.638 299.894 394.36 298.058 394.36ZM63.8959 55.24C62.1419 55.2432 60.4608 55.9349 59.2217 57.1633C57.9826 58.3917 57.2866 60.0564 57.2866 61.792V387.508C57.2866 389.244 57.9826 390.908 59.2217 392.137C60.4608 393.365 62.1419 394.057 63.8959 394.06H298.058C299.813 394.057 301.495 393.366 302.736 392.138C303.977 390.91 304.676 389.245 304.679 387.508V61.792C304.676 60.0553 303.977 58.3906 302.736 57.1625C301.495 55.9345 299.813 55.2432 298.058 55.24H63.8959Z" fill="#EBEBEB"/>
<path d="M560.379 394.36H326.205C324.369 394.357 322.61 393.634 321.312 392.35C320.014 391.065 319.283 389.324 319.28 387.508V61.792C319.299 59.9861 320.037 58.2605 321.333 56.9891C322.629 55.7177 324.38 55.0031 326.205 55H560.379C562.201 55.0062 563.946 55.7227 565.238 56.9941C566.53 58.2654 567.263 59.9893 567.279 61.792V387.508C567.279 389.321 566.553 391.06 565.259 392.345C563.966 393.629 562.211 394.354 560.379 394.36ZM326.205 55.24C324.45 55.2432 322.767 55.9345 321.526 57.1625C320.285 58.3906 319.587 60.0553 319.583 61.792V387.508C319.587 389.245 320.285 390.91 321.526 392.138C322.767 393.366 324.45 394.057 326.205 394.06H560.379C562.134 394.057 563.816 393.366 565.057 392.138C566.298 390.91 566.997 389.245 567 387.508V61.792C566.997 60.0553 566.298 58.3906 565.057 57.1625C563.816 55.9345 562.134 55.2432 560.379 55.24H326.205Z" fill="#EBEBEB"/>
<path d="M439.86 106.768C439.861 105.993 439.707 105.225 439.407 104.509C439.106 103.794 438.665 103.144 438.109 102.598C437.553 102.052 436.893 101.621 436.167 101.33C435.441 101.038 434.664 100.892 433.881 100.9C433.302 100.9 432.727 100.981 432.171 101.14C432.259 100.544 432.303 99.9424 432.304 99.34C432.305 96.0543 430.989 92.9025 428.645 90.5747C426.302 88.2468 423.122 86.9327 419.801 86.92C419.025 86.9208 418.25 86.9891 417.485 87.124C416.247 85.1111 414.381 83.5513 412.169 82.6799C409.956 81.8084 407.517 81.6727 405.22 82.2932C402.923 82.9136 400.892 84.2566 399.433 86.1194C397.975 87.9823 397.169 90.2639 397.136 92.62H396.954C394.331 92.7099 391.845 93.8043 390.021 95.6725C388.198 97.5406 387.178 100.037 387.178 102.634C387.178 105.231 388.198 107.727 390.021 109.596C391.845 111.464 394.331 112.558 396.954 112.648H434.087C435.634 112.604 437.102 111.966 438.18 110.868C439.258 109.769 439.86 108.299 439.86 106.768Z" fill="#F0F0F0"/>
<path d="M418.055 115.54V104.104H408.633V115.54H400.956L413.35 125.908L425.744 115.54H418.055Z" fill="#E0E0E0"/>
<path d="M254.012 124.072C254.012 120.767 252.686 117.598 250.326 115.26C247.966 112.922 244.764 111.607 241.424 111.604C240.192 111.606 238.967 111.783 237.786 112.132C237.982 110.865 238.079 109.585 238.077 108.304C238.077 101.302 235.266 94.5873 230.263 89.6363C225.259 84.6853 218.473 81.9039 211.398 81.9039C209.75 81.9036 208.105 82.0562 206.486 82.3599C203.858 78.0837 199.896 74.7694 195.197 72.9173C190.498 71.0651 185.318 70.7756 180.438 72.0925C175.559 73.4093 171.244 76.2611 168.147 80.2173C165.049 84.1735 163.335 89.0195 163.265 94.0239H162.877C160.013 93.9566 157.164 94.4566 154.498 95.4947C151.832 96.5327 149.403 98.0878 147.353 100.068C145.303 102.049 143.674 104.415 142.562 107.028C141.45 109.641 140.877 112.447 140.877 115.282C140.877 118.117 141.45 120.923 142.562 123.536C143.674 126.148 145.303 128.515 147.353 130.495C149.403 132.476 151.832 134.031 154.498 135.069C157.164 136.107 160.013 136.607 162.877 136.54H241.764C245.045 136.452 248.162 135.1 250.45 132.771C252.738 130.442 254.017 127.32 254.012 124.072Z" fill="#F0F0F0"/>
<path d="M187.701 125.032V149.332H207.723V125.032H224.034L197.706 103.024L171.39 125.032H187.701Z" fill="#E0E0E0"/>
<path d="M264.065 184.756V152.08H365.181V184.432" stroke="#E6E6E6" stroke-miterlimit="10"/>
<path d="M316.115 121.288V184.672" stroke="#E6E6E6" stroke-miterlimit="10"/>
<path d="M333.323 108.844H298.931C298.134 108.844 297.488 109.483 297.488 110.272V130.516C297.488 131.305 298.134 131.944 298.931 131.944H333.323C334.12 131.944 334.766 131.305 334.766 130.516V110.272C334.766 109.483 334.12 108.844 333.323 108.844Z" fill="#F0F0F0"/>
<path d="M332.96 111.556H299.283C299.001 111.556 298.773 111.782 298.773 112.06V130.516C298.773 130.794 299.001 131.02 299.283 131.02H332.96C333.241 131.02 333.469 130.794 333.469 130.516V112.06C333.469 111.782 333.241 111.556 332.96 111.556Z" fill="#E0E0E0"/>
<path d="M281.262 181.792H246.869C246.072 181.792 245.426 182.431 245.426 183.22V203.464C245.426 204.253 246.072 204.892 246.869 204.892H281.262C282.059 204.892 282.705 204.253 282.705 203.464V183.22C282.705 182.431 282.059 181.792 281.262 181.792Z" fill="#F0F0F0"/>
<path d="M280.898 184.504H247.221C246.94 184.504 246.712 184.73 246.712 185.008V203.464C246.712 203.742 246.94 203.968 247.221 203.968H280.898C281.179 203.968 281.407 203.742 281.407 203.464V185.008C281.407 184.73 281.179 184.504 280.898 184.504Z" fill="#E0E0E0"/>
<path d="M333.323 181.792H298.931C298.134 181.792 297.488 182.431 297.488 183.22V203.464C297.488 204.253 298.134 204.892 298.931 204.892H333.323C334.12 204.892 334.766 204.253 334.766 203.464V183.22C334.766 182.431 334.12 181.792 333.323 181.792Z" fill="#F0F0F0"/>
<path d="M332.96 184.504H299.283C299.001 184.504 298.773 184.73 298.773 185.008V203.464C298.773 203.742 299.001 203.968 299.283 203.968H332.96C333.241 203.968 333.469 203.742 333.469 203.464V185.008C333.469 184.73 333.241 184.504 332.96 184.504Z" fill="#E0E0E0"/>
<path d="M382.462 181.792H348.07C347.273 181.792 346.627 182.431 346.627 183.22V203.464C346.627 204.253 347.273 204.892 348.07 204.892H382.462C383.259 204.892 383.905 204.253 383.905 203.464V183.22C383.905 182.431 383.259 181.792 382.462 181.792Z" fill="#F0F0F0"/>
<path d="M382.098 184.504H348.421C348.14 184.504 347.912 184.73 347.912 185.008V203.464C347.912 203.742 348.14 203.968 348.421 203.968H382.098C382.38 203.968 382.608 203.742 382.608 203.464V185.008C382.608 184.73 382.38 184.504 382.098 184.504Z" fill="#E0E0E0"/>
<path d="M315.419 142.181L306.106 151.396C305.723 151.776 305.723 152.391 306.106 152.771L315.419 161.986C315.802 162.365 316.424 162.365 316.808 161.986L326.121 152.771C326.504 152.391 326.504 151.776 326.121 151.396L316.808 142.181C316.424 141.801 315.802 141.801 315.419 142.181Z" fill="#E0E0E0"/>
<path opacity="0.8" d="M118.686 136.18H94.4198C93.8371 136.18 93.3647 136.647 93.3647 137.224V150.772C93.3647 151.349 93.8371 151.816 94.4198 151.816H118.686C119.269 151.816 119.741 151.349 119.741 150.772V137.224C119.741 136.647 119.269 136.18 118.686 136.18Z" fill="#E0E0E0"/>
<path d="M100.168 169.816H80.9465C80.3638 169.816 79.8915 170.283 79.8915 170.86V180.712C79.8915 181.289 80.3638 181.756 80.9465 181.756H100.168C100.751 181.756 101.223 181.289 101.223 180.712V170.86C101.223 170.283 100.751 169.816 100.168 169.816Z" fill="#E0E0E0"/>
<path d="M132.535 169.816H113.314C112.731 169.816 112.259 170.283 112.259 170.86V180.712C112.259 181.289 112.731 181.756 113.314 181.756H132.535C133.118 181.756 133.59 181.289 133.59 180.712V170.86C133.59 170.283 133.118 169.816 132.535 169.816Z" fill="#E0E0E0"/>
<path d="M112.635 195.088H103.551C102.969 195.088 102.496 195.555 102.496 196.132V204.244C102.496 204.82 102.969 205.288 103.551 205.288H112.635C113.217 205.288 113.69 204.82 113.69 204.244V196.132C113.69 195.555 113.217 195.088 112.635 195.088Z" fill="#E0E0E0"/>
<path d="M126.848 195.088H117.764C117.182 195.088 116.709 195.555 116.709 196.132V204.244C116.709 204.82 117.182 205.288 117.764 205.288H126.848C127.43 205.288 127.903 204.82 127.903 204.244V196.132C127.903 195.555 127.43 195.088 126.848 195.088Z" fill="#E0E0E0"/>
<path d="M141.073 195.088H131.989C131.407 195.088 130.934 195.555 130.934 196.132V204.244C130.934 204.82 131.407 205.288 131.989 205.288H141.073C141.655 205.288 142.128 204.82 142.128 204.244V196.132C142.128 195.555 141.655 195.088 141.073 195.088Z" fill="#E0E0E0"/>
<path d="M79.7339 195.088H70.6507C70.068 195.088 69.5956 195.555 69.5956 196.132V204.244C69.5956 204.82 70.068 205.288 70.6507 205.288H79.7339C80.3166 205.288 80.7889 204.82 80.7889 204.244V196.132C80.7889 195.555 80.3166 195.088 79.7339 195.088Z" fill="#E0E0E0"/>
<path d="M95.1595 195.088H86.0763C85.4936 195.088 85.0212 195.555 85.0212 196.132V204.244C85.0212 204.82 85.4936 205.288 86.0763 205.288H95.1595C95.7422 205.288 96.2145 204.82 96.2145 204.244V196.132C96.2145 195.555 95.7422 195.088 95.1595 195.088Z" fill="#E0E0E0"/>
<path d="M121.706 169.816H122.918V161.416H107.153V151.816H105.94V161.416H90.1752V169.816H91.3879V162.616H121.706V169.816Z" fill="#E0E0E0"/>
<path d="M90.1753 189.016H74.4101V195.016H75.6228V190.216H90.1753V195.016H91.388V181.816H90.1753V189.016Z" fill="#E0E0E0"/>
<path d="M122.918 190.216V181.816H121.706V190.216H107.153V195.016H108.366V191.416H121.706V195.016H122.918V191.416H136.258V195.016H137.471V190.216H122.918Z" fill="#E0E0E0"/>
<path d="M472.688 139.936V148.6L477.175 149.02C477.777 151.86 478.912 154.563 480.522 156.988L477.635 160.432L483.796 166.528L487.277 163.672C489.725 165.27 492.457 166.393 495.329 166.984L495.729 171.4H504.436L504.861 166.96C507.732 166.369 510.465 165.246 512.913 163.648L516.394 166.504L522.554 160.408L519.68 157C521.29 154.575 522.425 151.872 523.027 149.032L527.514 148.612V139.996L523.027 139.576C522.427 136.739 521.292 134.04 519.68 131.62L522.566 128.176L516.406 122.08L512.925 124.924C510.474 123.331 507.743 122.208 504.873 121.612L504.448 117.172H495.729L495.305 121.612C492.435 122.208 489.703 123.331 487.252 124.924L483.772 122.08L477.611 128.176L480.497 131.62C478.886 134.04 477.75 136.739 477.15 139.576L472.688 139.936ZM500.107 132.58C502.441 132.58 504.723 133.265 506.664 134.548C508.604 135.832 510.117 137.656 511.01 139.79C511.902 141.925 512.135 144.273 511.679 146.538C511.223 148.803 510.098 150.884 508.446 152.516C506.795 154.149 504.691 155.26 502.402 155.709C500.112 156.158 497.739 155.925 495.583 155.04C493.427 154.154 491.585 152.656 490.29 150.734C488.995 148.812 488.305 146.554 488.307 144.244C488.311 141.151 489.553 138.186 491.763 136C493.973 133.813 496.97 132.583 500.095 132.58H500.107Z" fill="#F5F5F5"/>
<path d="M478.303 202.84C480.552 202.372 482.691 201.488 484.609 200.236L487.337 202.48L492.188 197.68L489.933 194.98C491.193 193.08 492.081 190.964 492.552 188.74L496.069 188.404V181.648L492.552 181.324C492.083 179.099 491.195 176.982 489.933 175.084L492.188 172.384L487.337 167.584L484.609 169.816C482.69 168.567 480.551 167.688 478.303 167.224L477.975 163.744H471.148L470.82 167.224C468.572 167.688 466.433 168.567 464.514 169.816L461.774 167.632L456.923 172.432L459.178 175.132C457.916 177.03 457.028 179.147 456.559 181.372L453.042 181.696V188.452L456.559 188.788C457.03 191.012 457.918 193.128 459.178 195.028L456.923 197.704L461.774 202.504L464.502 200.26C466.42 201.512 468.559 202.396 470.808 202.864L471.136 206.332H477.963L478.303 202.84ZM465.315 185.056C465.312 183.245 465.853 181.473 466.868 179.966C467.883 178.459 469.328 177.283 471.018 176.588C472.709 175.893 474.57 175.71 476.365 176.062C478.161 176.414 479.811 177.285 481.106 178.565C482.401 179.845 483.284 181.477 483.642 183.253C484 185.03 483.817 186.871 483.117 188.545C482.417 190.219 481.231 191.649 479.71 192.656C478.188 193.663 476.398 194.2 474.568 194.2C472.116 194.2 469.764 193.237 468.029 191.522C466.294 189.808 465.318 187.482 465.315 185.056Z" fill="#F5F5F5"/>
<path d="M463.071 166.276L465.363 168.148L469.426 164.14L467.522 161.872C468.585 160.277 469.334 158.498 469.729 156.628L472.676 156.352V150.688L469.729 150.412C469.334 148.542 468.585 146.763 467.522 145.168L469.426 142.9L465.411 138.892L463.119 140.764C461.511 139.714 459.717 138.973 457.832 138.58L457.553 135.664H451.817L451.538 138.58C449.648 138.971 447.85 139.712 446.239 140.764L443.947 138.892L439.896 142.9L441.788 145.168C440.729 146.763 439.984 148.543 439.593 150.412L436.634 150.688V156.352L439.593 156.628C439.984 158.497 440.729 160.277 441.788 161.872L439.848 164.2L443.898 168.208L446.19 166.336C447.8 167.389 449.599 168.127 451.49 168.508L451.769 171.436H457.505L457.784 168.508C459.674 168.106 461.469 167.348 463.071 166.276ZM446.869 153.52C446.869 152.001 447.324 150.516 448.177 149.253C449.03 147.99 450.242 147.006 451.66 146.425C453.079 145.843 454.639 145.691 456.145 145.988C457.65 146.284 459.033 147.015 460.119 148.089C461.204 149.164 461.943 150.532 462.243 152.022C462.542 153.512 462.388 155.056 461.801 156.459C461.214 157.862 460.219 159.062 458.942 159.906C457.666 160.75 456.166 161.2 454.63 161.2C452.572 161.2 450.598 160.391 449.142 158.951C447.687 157.51 446.869 155.557 446.869 153.52Z" fill="#F5F5F5"/>
<path d="M543.498 377.836H462.064V430.24H543.498V377.836Z" fill="#F5F5F5"/>
<path d="M540.502 387.664H465.036V427.624H540.502V387.664Z" fill="#E0E0E0"/>
<path d="M527.017 393.64H471.184V395.356H527.017V393.64Z" fill="#F5F5F5"/>
<path d="M497.973 398.896H471.184V400.612H497.973V398.896Z" fill="#F5F5F5"/>
<path d="M504.921 404.164H471.184V405.88H504.921V404.164Z" fill="#F5F5F5"/>
<path d="M483.068 409.432H471.184V411.148H483.068V409.432Z" fill="#F5F5F5"/>
<path d="M478.885 414.7H471.184V416.416H478.885V414.7Z" fill="#F5F5F5"/>
<path d="M126.567 377.539L68.6246 377.799L68.7867 413.163L126.729 412.903L126.567 377.539Z" fill="#EBEBEB"/>
<path d="M90.8544 404.272C90.5975 404.273 90.347 404.193 90.1389 404.044L79.5762 396.4C79.4234 396.29 79.2988 396.145 79.2125 395.978C79.1261 395.812 79.0804 395.627 79.079 395.44C79.0771 395.252 79.1201 395.066 79.2043 394.897C79.2886 394.728 79.4118 394.581 79.5641 394.468L90.0662 386.728C90.3251 386.539 90.6494 386.459 90.9678 386.506C91.2862 386.553 91.5726 386.724 91.764 386.98C91.9553 387.236 92.036 387.557 91.9882 387.872C91.9405 388.187 91.7682 388.471 91.5093 388.66L82.3291 395.428L91.5699 402.1C91.7778 402.249 91.9326 402.459 92.012 402.701C92.0914 402.942 92.0913 403.203 92.0118 403.444C91.9322 403.685 91.7773 403.896 91.5693 404.044C91.3614 404.193 91.1111 404.273 90.8544 404.272Z" fill="#FAFAFA"/>
<path d="M104.582 404.2C104.392 404.202 104.204 404.159 104.033 404.076C103.863 403.993 103.714 403.871 103.6 403.72C103.505 403.593 103.436 403.449 103.398 403.296C103.359 403.143 103.352 402.984 103.375 402.828C103.399 402.672 103.453 402.522 103.536 402.387C103.618 402.252 103.726 402.134 103.855 402.04L113.035 395.272L103.794 388.6C103.535 388.411 103.363 388.127 103.315 387.812C103.267 387.497 103.348 387.176 103.539 386.92C103.731 386.664 104.017 386.493 104.336 386.446C104.654 386.399 104.978 386.479 105.237 386.668L115.8 394.3C115.954 394.412 116.08 394.558 116.166 394.727C116.253 394.896 116.298 395.083 116.297 395.272C116.297 395.458 116.253 395.642 116.169 395.809C116.085 395.975 115.963 396.12 115.812 396.232L105.31 403.972C105.098 404.124 104.843 404.204 104.582 404.2Z" fill="#FAFAFA"/>
<path d="M94.9533 404.26C94.8168 404.259 94.6815 404.234 94.5531 404.188C94.2515 404.082 94.0045 403.862 93.866 403.577C93.7274 403.291 93.7085 402.963 93.8134 402.664L99.2584 387.256C99.311 387.107 99.3927 386.97 99.4988 386.852C99.605 386.735 99.7335 386.639 99.8771 386.57C100.021 386.502 100.176 386.462 100.336 386.453C100.495 386.444 100.654 386.466 100.805 386.518C100.955 386.57 101.094 386.651 101.213 386.756C101.332 386.861 101.429 386.988 101.498 387.13C101.567 387.272 101.607 387.426 101.616 387.584C101.625 387.741 101.603 387.899 101.55 388.048L96.1054 403.456C96.022 403.692 95.8661 403.897 95.6595 404.041C95.453 404.185 95.2061 404.262 94.9533 404.26Z" fill="#FAFAFA"/>
<path d="M313.823 502.072C443.683 502.072 548.955 495.99 548.955 488.488C548.955 480.986 443.683 474.904 313.823 474.904C183.963 474.904 78.6909 480.986 78.6909 488.488C78.6909 495.99 183.963 502.072 313.823 502.072Z" fill="#F5F5F5"/>
<path d="M416.151 488.488H425.065L437.192 422.2H428.278L416.151 488.488Z" fill="#263238"/>
<path opacity="0.2" d="M416.151 488.488H425.065L437.192 422.2H428.278L416.151 488.488Z" fill="white"/>
<path opacity="0.2" d="M416.151 488.488H422.639L434.766 422.2H428.278L416.151 488.488Z" fill="white"/>
<path d="M391.06 441.916H426.702C426.96 441.918 427.216 441.868 427.455 441.771C427.695 441.674 427.912 441.531 428.095 441.35C428.277 441.169 428.422 440.954 428.52 440.718C428.618 440.481 428.668 440.228 428.666 439.972C428.668 439.716 428.618 439.463 428.52 439.226C428.422 438.99 428.277 438.775 428.095 438.594C427.912 438.413 427.695 438.27 427.455 438.173C427.216 438.076 426.96 438.026 426.702 438.028H391.06C390.802 438.026 390.546 438.076 390.307 438.173C390.067 438.27 389.85 438.413 389.668 438.594C389.485 438.775 389.34 438.99 389.242 439.226C389.144 439.463 389.094 439.716 389.096 439.972C389.094 440.228 389.144 440.481 389.242 440.718C389.34 440.954 389.485 441.169 389.668 441.35C389.85 441.531 390.067 441.674 390.307 441.771C390.546 441.868 390.802 441.918 391.06 441.916Z" fill="#263238"/>
<path d="M387.095 464.116H422.748C423.27 464.113 423.77 463.905 424.138 463.539C424.506 463.172 424.713 462.677 424.713 462.16C424.71 461.645 424.502 461.153 424.134 460.789C423.766 460.425 423.268 460.219 422.748 460.216H387.095C386.575 460.219 386.077 460.425 385.709 460.789C385.341 461.153 385.133 461.645 385.13 462.16C385.13 462.677 385.337 463.172 385.705 463.539C386.073 463.905 386.573 464.113 387.095 464.116Z" fill="#263238"/>
<path d="M379.77 488.488H388.683L400.81 422.2H391.897L379.77 488.488Z" fill="#263238"/>
<path opacity="0.2" d="M379.77 488.488H388.683L400.81 422.2H391.897L379.77 488.488Z" fill="white"/>
<path opacity="0.2" d="M379.77 488.488H386.258L398.385 422.2H391.897L379.77 488.488Z" fill="white"/>
<path d="M462.659 488.488H453.745L441.618 422.2H450.531L462.659 488.488Z" fill="#263238"/>
<path opacity="0.4" d="M462.659 488.488H453.745L441.618 422.2H450.531L462.659 488.488Z" fill="white"/>
<path opacity="0.2" d="M460.233 488.488H453.745L441.618 422.2H448.106L460.233 488.488Z" fill="white"/>
<path d="M447.003 441.916H411.349C410.828 441.916 410.328 441.711 409.96 441.347C409.591 440.982 409.384 440.488 409.384 439.972C409.384 439.456 409.591 438.962 409.96 438.597C410.328 438.233 410.828 438.028 411.349 438.028H447.003C447.524 438.028 448.023 438.233 448.392 438.597C448.76 438.962 448.967 439.456 448.967 439.972C448.967 440.488 448.76 440.982 448.392 441.347C448.023 441.711 447.524 441.916 447.003 441.916Z" fill="#263238"/>
<path d="M450.956 464.116H415.314C415.055 464.116 414.799 464.065 414.56 463.967C414.321 463.868 414.104 463.724 413.921 463.542C413.738 463.361 413.594 463.145 413.496 462.908C413.398 462.67 413.348 462.416 413.35 462.16C413.35 461.644 413.557 461.15 413.925 460.785C414.294 460.421 414.793 460.216 415.314 460.216H450.956C451.477 460.216 451.977 460.421 452.345 460.785C452.714 461.15 452.921 461.644 452.921 462.16C452.922 462.416 452.872 462.67 452.774 462.908C452.676 463.145 452.532 463.361 452.349 463.542C452.167 463.724 451.95 463.868 451.711 463.967C451.471 464.065 451.215 464.116 450.956 464.116Z" fill="#263238"/>
<path opacity="0.2" d="M447.003 441.916H411.349C410.828 441.916 410.328 441.711 409.96 441.347C409.591 440.982 409.384 440.488 409.384 439.972C409.384 439.456 409.591 438.962 409.96 438.597C410.328 438.233 410.828 438.028 411.349 438.028H447.003C447.524 438.028 448.023 438.233 448.392 438.597C448.76 438.962 448.967 439.456 448.967 439.972C448.967 440.488 448.76 440.982 448.392 441.347C448.023 441.711 447.524 441.916 447.003 441.916Z" fill="white"/>
<path opacity="0.2" d="M450.956 464.116H415.314C415.055 464.116 414.799 464.065 414.56 463.967C414.321 463.868 414.104 463.724 413.921 463.542C413.738 463.361 413.594 463.145 413.496 462.908C413.398 462.67 413.348 462.416 413.35 462.16C413.35 461.644 413.557 461.15 413.925 460.785C414.294 460.421 414.793 460.216 415.314 460.216H450.956C451.477 460.216 451.977 460.421 452.345 460.785C452.714 461.15 452.921 461.644 452.921 462.16C452.922 462.416 452.872 462.67 452.774 462.908C452.676 463.145 452.532 463.361 452.349 463.542C452.167 463.724 451.95 463.868 451.711 463.967C451.471 464.065 451.215 464.116 450.956 464.116Z" fill="white"/>
<path d="M426.277 488.488H417.364L405.237 422.2H414.15L426.277 488.488Z" fill="#263238"/>
<path opacity="0.4" d="M426.277 488.488H417.364L405.237 422.2H414.15L426.277 488.488Z" fill="white"/>
<path opacity="0.2" d="M423.852 488.488H417.364L405.237 422.2H411.725L423.852 488.488Z" fill="white"/>
<path d="M454 419.032H389.617C388.82 419.032 388.174 419.671 388.174 420.46V423.928C388.174 424.717 388.82 425.356 389.617 425.356H454C454.797 425.356 455.443 424.717 455.443 423.928V420.46C455.443 419.671 454.797 419.032 454 419.032Z" fill="#263238"/>
<path opacity="0.2" d="M414.09 419.032H389.617C388.82 419.032 388.174 419.671 388.174 420.46V423.928C388.174 424.717 388.82 425.356 389.617 425.356H414.09C414.887 425.356 415.533 424.717 415.533 423.928V420.46C415.533 419.671 414.887 419.032 414.09 419.032Z" fill="white"/>
<path d="M246.336 435.22H164.902V487.624H246.336V435.22Z" fill="#2673DD"/>
<path opacity="0.6" d="M246.336 435.22H164.902V487.624H246.336V435.22Z" fill="white"/>
<path d="M243.365 445.048H167.886V485.008H243.365V445.048Z" fill="#2673DD"/>
<path d="M229.867 451.012H174.034V452.728H229.867V451.012Z" fill="white"/>
<path d="M200.823 456.28H174.034V457.996H200.823V456.28Z" fill="white"/>
<path d="M207.772 461.548H174.034V463.264H207.772V461.548Z" fill="white"/>
<path d="M185.919 466.804H174.034V468.52H185.919V466.804Z" fill="white"/>
<path d="M181.735 472.072H174.034V473.788H181.735V472.072Z" fill="white"/>
<path d="M346.966 488.488H280.68L291.897 401.284H335.749L346.966 488.488Z" fill="#2673DD"/>
<path opacity="0.6" d="M346.966 488.488H280.68L288.356 428.824L291.909 401.284H335.737L340.976 441.916L346.966 488.488Z" fill="white"/>
<path opacity="0.1" d="M340.975 441.916L288.356 428.824L291.909 401.284H335.737L340.975 441.916Z" fill="black"/>
<path d="M470.105 186.256H157.541C156.491 186.256 155.451 186.461 154.48 186.859C153.51 187.257 152.628 187.841 151.886 188.577C151.144 189.312 150.555 190.185 150.154 191.146C149.753 192.107 149.548 193.137 149.55 194.176V403.552C149.55 405.649 150.391 407.661 151.89 409.144C153.389 410.627 155.422 411.46 157.541 411.46H470.105C472.224 411.46 474.257 410.627 475.756 409.144C477.254 407.661 478.096 405.649 478.096 403.552V194.2C478.101 193.159 477.898 192.126 477.499 191.163C477.099 190.199 476.511 189.323 475.769 188.585C475.026 187.847 474.143 187.261 473.171 186.861C472.199 186.462 471.157 186.256 470.105 186.256Z" fill="#2673DD"/>
<path opacity="0.7" d="M470.105 186.256H157.541C156.491 186.256 155.451 186.461 154.48 186.859C153.51 187.257 152.628 187.841 151.886 188.577C151.144 189.312 150.555 190.185 150.154 191.146C149.753 192.107 149.548 193.137 149.55 194.176V403.552C149.55 405.649 150.391 407.661 151.89 409.144C153.389 410.627 155.422 411.46 157.541 411.46H470.105C472.224 411.46 474.257 410.627 475.756 409.144C477.254 407.661 478.096 405.649 478.096 403.552V194.2C478.101 193.159 477.898 192.126 477.499 191.163C477.099 190.199 476.511 189.323 475.769 188.585C475.026 187.847 474.143 187.261 473.171 186.861C472.199 186.462 471.157 186.256 470.105 186.256Z" fill="white"/>
<path d="M467.582 194.008H160.076V395.908H467.582V194.008Z" fill="#2673DD"/>
<path d="M369.486 481.936H258.148C257.451 481.936 256.886 482.495 256.886 483.184V487.132C256.886 487.821 257.451 488.38 258.148 488.38H369.486C370.183 488.38 370.747 487.821 370.747 487.132V483.184C370.747 482.495 370.183 481.936 369.486 481.936Z" fill="#2673DD"/>
<path opacity="0.7" d="M369.486 481.936H258.148C257.451 481.936 256.886 482.495 256.886 483.184V487.132C256.886 487.821 257.451 488.38 258.148 488.38H369.486C370.183 488.38 370.747 487.821 370.747 487.132V483.184C370.747 482.495 370.183 481.936 369.486 481.936Z" fill="white"/>
<path opacity="0.2" d="M467.582 194.2H160.076V224.296H467.582V194.2Z" fill="black"/>
<path opacity="0.4" d="M291.849 224.656H160.076V395.908H291.849V224.656Z" fill="white"/>
<path d="M420.25 268.336V271.336H417.218" stroke="white" stroke-miterlimit="10"/>
<path d="M410.815 271.336H311.495" stroke="white" stroke-miterlimit="10" stroke-dasharray="5.28 5.28"/>
<path d="M308.293 271.336H305.261V268.336" stroke="white" stroke-miterlimit="10"/>
<path d="M305.261 262.9V211.264" stroke="white" stroke-miterlimit="10" stroke-dasharray="4.53 4.53"/>
<path d="M305.261 208.552V205.552H308.293" stroke="white" stroke-miterlimit="10"/>
<path d="M314.696 205.552H414.017" stroke="white" stroke-miterlimit="10" stroke-dasharray="5.28 5.28"/>
<path d="M417.218 205.552H420.25V208.552" stroke="white" stroke-miterlimit="10"/>
<path d="M420.25 213.988V265.624" stroke="white" stroke-miterlimit="10" stroke-dasharray="4.53 4.53"/>
<path d="M422.178 203.644H418.334V207.448H422.178V203.644Z" fill="#2673DD" stroke="white" stroke-miterlimit="10"/>
<path d="M422.178 269.44H418.334V273.244H422.178V269.44Z" fill="#2673DD" stroke="white" stroke-miterlimit="10"/>
<path d="M307.177 203.644H303.333V207.448H307.177V203.644Z" fill="#2673DD" stroke="white" stroke-miterlimit="10"/>
<path d="M307.177 269.44H303.333V273.244H307.177V269.44Z" fill="#2673DD" stroke="white" stroke-miterlimit="10"/>
<path d="M364.684 203.644H360.84V207.448H364.684V203.644Z" fill="#2673DD" stroke="white" stroke-miterlimit="10"/>
<path d="M364.684 269.44H360.84V273.244H364.684V269.44Z" fill="#2673DD" stroke="white" stroke-miterlimit="10"/>
<path d="M422.178 236.536H418.334V240.34H422.178V236.536Z" fill="#2673DD" stroke="white" stroke-miterlimit="10"/>
<path d="M307.177 236.536H303.333V240.34H307.177V236.536Z" fill="#2673DD" stroke="white" stroke-miterlimit="10"/>
<path opacity="0.7" d="M409.809 227.644H381.662C380.396 227.644 379.37 228.659 379.37 229.912V237.364C379.37 238.617 380.396 239.632 381.662 239.632H409.809C411.075 239.632 412.101 238.617 412.101 237.364V229.912C412.101 228.659 411.075 227.644 409.809 227.644Z" fill="white"/>
<path opacity="0.7" d="M361.301 227.644H333.154C331.888 227.644 330.862 228.659 330.862 229.912V237.364C330.862 238.617 331.888 239.632 333.154 239.632H361.301C362.566 239.632 363.593 238.617 363.593 237.364V229.912C363.593 228.659 362.566 227.644 361.301 227.644Z" fill="white"/>
<path opacity="0.7" d="M298.858 373.552H270.711C269.445 373.552 268.419 374.567 268.419 375.82V383.272C268.419 384.525 269.445 385.54 270.711 385.54H298.858C300.124 385.54 301.15 384.525 301.15 383.272V375.82C301.15 374.567 300.124 373.552 298.858 373.552Z" fill="white"/>
<path d="M447.282 204.904H457.517" stroke="white" stroke-width="1.5" stroke-linecap="round" stroke-linejoin="round"/>
<path d="M447.282 209.704H457.517" stroke="white" stroke-width="1.5" stroke-linecap="round" stroke-linejoin="round"/>
<path d="M447.282 214.504H457.517" stroke="white" stroke-width="1.5" stroke-linecap="round" stroke-linejoin="round"/>
<path opacity="0.5" d="M284.063 251.2H180.922V353.26H284.063V251.2Z" fill="white"/>
<path d="M224.095 259.54V347.584" stroke="#2673DD" stroke-miterlimit="10"/>
<path d="M268.577 347.584C256.776 347.584 245.459 342.945 237.115 334.689C228.77 326.432 224.083 315.233 224.083 303.556C224.083 291.882 228.769 280.687 237.111 272.432C245.453 264.177 256.767 259.54 268.565 259.54" stroke="#2673DD" stroke-miterlimit="10"/>
<path d="M270.505 257.644H266.661V261.448H270.505V257.644Z" fill="white" stroke="#2673DD" stroke-miterlimit="10"/>
<path d="M270.505 345.676H266.661V349.48H270.505V345.676Z" fill="white" stroke="#2673DD" stroke-miterlimit="10"/>
<path d="M226.023 301.66H222.179V305.464H226.023V301.66Z" fill="white" stroke="#2673DD" stroke-miterlimit="10"/>
<path d="M225.089 259.54C225.089 259.735 225.031 259.925 224.922 260.087C224.812 260.248 224.657 260.375 224.475 260.449C224.294 260.523 224.094 260.543 223.901 260.505C223.708 260.467 223.531 260.373 223.392 260.236C223.252 260.098 223.158 259.923 223.119 259.732C223.081 259.541 223.101 259.343 223.176 259.163C223.251 258.984 223.379 258.83 223.542 258.722C223.706 258.614 223.898 258.556 224.095 258.556C224.357 258.559 224.609 258.664 224.794 258.848C224.98 259.031 225.086 259.28 225.089 259.54Z" fill="white" stroke="#2673DD" stroke-miterlimit="10"/>
<path d="M225.089 347.584C225.089 347.778 225.031 347.968 224.922 348.129C224.814 348.291 224.659 348.417 224.478 348.492C224.297 348.567 224.098 348.587 223.905 348.55C223.713 348.513 223.535 348.42 223.396 348.284C223.256 348.147 223.161 347.973 223.121 347.783C223.081 347.593 223.099 347.396 223.173 347.216C223.246 347.036 223.371 346.881 223.533 346.772C223.695 346.662 223.886 346.602 224.083 346.6C224.214 346.598 224.345 346.623 224.467 346.671C224.589 346.72 224.7 346.792 224.794 346.884C224.887 346.975 224.962 347.084 225.012 347.205C225.063 347.325 225.089 347.454 225.089 347.584Z" fill="white" stroke="#2673DD" stroke-miterlimit="10"/>
<path opacity="0.7" d="M394.989 375.004H363.762C361.369 375.004 359.074 374.063 357.382 372.389C355.69 370.715 354.74 368.444 354.74 366.076C354.74 363.708 355.69 361.437 357.382 359.763C359.074 358.089 361.369 357.148 363.762 357.148H394.989C397.382 357.148 399.677 358.089 401.369 359.763C403.061 361.437 404.012 363.708 404.012 366.076C404.012 368.444 403.061 370.715 401.369 372.389C399.677 374.063 397.382 375.004 394.989 375.004Z" fill="white"/>
<path opacity="0.7" d="M422.421 298.864H325.95C325.426 298.864 324.923 298.658 324.552 298.291C324.182 297.924 323.973 297.427 323.973 296.908C323.983 296.397 324.196 295.91 324.566 295.552C324.936 295.195 325.433 294.997 325.95 295H422.409C422.668 294.998 422.925 295.048 423.164 295.145C423.404 295.242 423.622 295.384 423.806 295.565C423.99 295.746 424.135 295.961 424.235 296.197C424.334 296.434 424.386 296.688 424.386 296.944C424.376 297.454 424.165 297.941 423.798 298.3C423.431 298.658 422.937 298.861 422.421 298.864Z" fill="white"/>
<path opacity="0.7" d="M422.421 313.108H325.95C325.691 313.11 325.434 313.06 325.195 312.964C324.955 312.867 324.737 312.724 324.553 312.543C324.369 312.362 324.224 312.147 324.124 311.911C324.025 311.674 323.973 311.42 323.973 311.164C323.973 310.645 324.182 310.148 324.552 309.781C324.923 309.414 325.426 309.208 325.95 309.208H422.409C422.933 309.208 423.436 309.414 423.807 309.781C424.177 310.148 424.386 310.645 424.386 311.164C424.386 311.68 424.179 312.174 423.81 312.539C423.442 312.903 422.942 313.108 422.421 313.108Z" fill="white"/>
<path opacity="0.7" d="M422.421 327.4H362.331C361.809 327.4 361.308 327.196 360.938 326.831C360.567 326.467 360.358 325.973 360.355 325.456C360.355 324.937 360.563 324.44 360.934 324.073C361.304 323.706 361.807 323.5 362.331 323.5H422.409C422.933 323.5 423.436 323.706 423.807 324.073C424.177 324.44 424.386 324.937 424.386 325.456C424.382 325.971 424.174 326.463 423.807 326.827C423.439 327.191 422.941 327.397 422.421 327.4Z" fill="white"/>
<path opacity="0.4" d="M176.605 202.54H169.79V209.284H176.605V202.54Z" fill="black"/>
<path opacity="0.4" d="M188.102 202.54H184.779C183.814 202.54 183.032 203.314 183.032 204.268V207.556C183.032 208.51 183.814 209.284 184.779 209.284H188.102C189.066 209.284 189.848 208.51 189.848 207.556V204.268C189.848 203.314 189.066 202.54 188.102 202.54Z" fill="black"/>
<path opacity="0.4" d="M199.986 202.54H199.404C197.683 202.54 196.287 203.921 196.287 205.624V206.2C196.287 207.903 197.683 209.284 199.404 209.284H199.986C201.707 209.284 203.103 207.903 203.103 206.2V205.624C203.103 203.921 201.707 202.54 199.986 202.54Z" fill="black"/>
<path opacity="0.9" d="M190.672 368.8V366.172L189.314 366.052C189.12 365.199 188.775 364.386 188.296 363.652L189.169 362.608L187.289 360.748L186.234 361.612C185.492 361.137 184.671 360.796 183.809 360.604L183.687 359.26H181.031L180.898 360.604C180.036 360.797 179.215 361.138 178.473 361.612L177.418 360.748L175.538 362.608L176.411 363.652C175.921 364.381 175.576 365.196 175.392 366.052L174.022 366.172V368.8L175.392 368.932C175.577 369.788 175.922 370.602 176.411 371.332L175.538 372.388L177.418 374.236L178.473 373.372C179.21 373.856 180.033 374.198 180.898 374.38L181.031 375.736H183.687L183.809 374.38C184.674 374.198 185.497 373.856 186.234 373.372L187.289 374.236L189.169 372.388L188.296 371.332C188.78 370.6 189.125 369.787 189.314 368.932L190.672 368.8ZM182.317 371.044C181.597 371.044 180.894 370.833 180.296 370.437C179.697 370.042 179.231 369.479 178.956 368.822C178.68 368.164 178.608 367.44 178.749 366.742C178.889 366.043 179.236 365.402 179.744 364.898C180.253 364.395 180.901 364.052 181.607 363.913C182.313 363.774 183.044 363.846 183.709 364.118C184.374 364.391 184.942 364.852 185.342 365.444C185.742 366.036 185.955 366.732 185.955 367.444C185.955 368.399 185.572 369.314 184.889 369.99C184.207 370.665 183.282 371.044 182.317 371.044Z" fill="white"/>
<path opacity="0.6" d="M201.441 376.216V374.2L200.374 374.092C200.229 373.416 199.958 372.773 199.574 372.196L200.253 371.368L198.785 369.916L197.961 370.6C197.373 370.22 196.719 369.951 196.033 369.808L195.936 368.74H193.85L193.753 369.808C193.066 369.951 192.412 370.22 191.825 370.6L191 369.916L189.52 371.368L190.212 372.196C189.828 372.773 189.556 373.416 189.411 374.092L188.344 374.2V376.252L189.411 376.36C189.556 377.036 189.828 377.679 190.212 378.256L189.52 379.084L191 380.536L191.825 379.852C192.412 380.232 193.066 380.501 193.753 380.644L193.85 381.7H195.936L196.033 380.644C196.719 380.501 197.373 380.232 197.961 379.852L198.785 380.536L200.253 379.084L199.574 378.256C199.958 377.679 200.229 377.036 200.374 376.36L201.441 376.216ZM194.893 377.98C194.333 377.982 193.786 377.821 193.32 377.515C192.853 377.209 192.489 376.773 192.274 376.262C192.058 375.752 192 375.189 192.108 374.646C192.215 374.103 192.484 373.604 192.878 373.211C193.273 372.819 193.776 372.552 194.325 372.443C194.873 372.334 195.442 372.389 195.959 372.6C196.476 372.811 196.918 373.169 197.229 373.629C197.54 374.09 197.706 374.631 197.706 375.184C197.708 375.551 197.636 375.914 197.495 376.253C197.355 376.592 197.148 376.901 196.886 377.16C196.625 377.42 196.314 377.626 195.972 377.767C195.63 377.908 195.263 377.98 194.893 377.98Z" fill="white"/>
<path opacity="0.4" d="M190.672 382.06V380.332L189.775 380.248C189.655 379.68 189.429 379.138 189.108 378.652L189.69 377.968L188.477 376.768L187.774 377.332C187.282 377.015 186.736 376.791 186.161 376.672L186.076 375.784H184.306L184.221 376.672C183.646 376.791 183.1 377.015 182.608 377.332L181.905 376.768L180.692 377.968L181.274 378.652C180.953 379.138 180.727 379.68 180.607 380.248L179.697 380.332V382.06L180.607 382.144C180.725 382.717 180.951 383.262 181.274 383.752L180.692 384.436L181.905 385.636L182.608 385.06C183.096 385.386 183.644 385.614 184.221 385.732L184.306 386.62H186.052L186.137 385.732C186.714 385.614 187.261 385.386 187.75 385.06L188.453 385.636L189.666 384.436L189.084 383.752C189.406 383.262 189.633 382.717 189.751 382.144L190.672 382.06ZM185.179 383.536C184.714 383.524 184.263 383.377 183.882 383.113C183.501 382.849 183.208 382.479 183.038 382.051C182.868 381.622 182.83 381.154 182.928 380.704C183.026 380.254 183.256 379.843 183.589 379.521C183.922 379.2 184.343 378.983 184.8 378.898C185.257 378.812 185.729 378.862 186.158 379.041C186.587 379.219 186.952 379.519 187.21 379.902C187.467 380.286 187.604 380.736 187.604 381.196C187.604 381.508 187.541 381.818 187.419 382.106C187.296 382.393 187.116 382.654 186.89 382.872C186.664 383.09 186.396 383.261 186.102 383.375C185.809 383.489 185.494 383.544 185.179 383.536Z" fill="white"/>
<path d="M419.547 204.868L424.689 218.476L433.287 209.956L419.547 204.868Z" fill="#2673DD"/>
<path d="M427.828 211.16L425.907 213.061L430.169 217.278L432.09 215.378L427.828 211.16Z" fill="#2673DD"/>
<path opacity="0.4" d="M433.287 209.956L419.547 204.868L424.689 218.476L428.036 215.164L430.158 217.276L432.074 215.38L429.952 213.268L433.287 209.956Z" fill="white"/>
<path d="M208.875 253.504L221.815 258.304L215.036 251.596C214.785 251.739 214.494 251.796 214.207 251.759C213.92 251.722 213.653 251.593 213.447 251.392C213.196 251.144 213.055 250.807 213.055 250.456C213.055 250.105 213.196 249.768 213.447 249.52C213.698 249.272 214.038 249.132 214.393 249.132C214.748 249.132 215.088 249.272 215.339 249.52C215.542 249.724 215.673 249.988 215.71 250.272C215.747 250.556 215.689 250.844 215.545 251.092L222.324 257.8L217.473 244.996L213.18 245.932L213.023 244.408L212.21 243.604L207.456 248.308L208.269 249.112L209.821 249.268L208.875 253.504Z" fill="#263238"/>
<path opacity="0.2" d="M208.875 253.504L221.815 258.304L215.036 251.596C214.785 251.739 214.494 251.796 214.207 251.759C213.92 251.722 213.653 251.593 213.447 251.392C213.196 251.144 213.055 250.807 213.055 250.456C213.055 250.105 213.196 249.768 213.447 249.52C213.698 249.272 214.038 249.132 214.393 249.132C214.748 249.132 215.088 249.272 215.339 249.52C215.542 249.724 215.673 249.988 215.71 250.272C215.747 250.556 215.689 250.844 215.545 251.092L222.324 257.8L217.473 244.996L213.18 245.932L213.023 244.408L212.21 243.604L207.456 248.308L208.269 249.112L209.821 249.268L208.875 253.504Z" fill="white"/>
<g opacity="0.1">
<path d="M205.043 194.008L159.469 362.512V194.008H205.043Z" fill="white"/>
<path d="M256.474 194.008L201.866 395.908H164.248L218.844 194.008H256.474Z" fill="white"/>
<path d="M311.167 194.008L256.559 395.908H239.545L294.153 194.008H311.167Z" fill="white"/>
<path d="M361.531 194.008L306.923 395.908H300.835L355.443 194.008H361.531Z" fill="white"/>
</g>
<path d="M546.542 238.6C550.847 243.508 572.748 285.256 568.516 295C564.284 304.744 529.188 293.512 529.188 293.512L531.286 279.748C531.286 279.748 544.917 280.228 546.226 278.944C547.536 277.66 527.781 258.148 527.781 258.148L546.542 238.6Z" fill="#263238"/>
<g opacity="0.2">
<path d="M568.492 295C567.972 296.128 567.065 297.037 565.933 297.568L565.23 297.88H565.133C564.915 297.97 564.693 298.046 564.466 298.108C563.48 298.421 562.464 298.63 561.434 298.732L560.548 298.816C560.112 298.816 559.675 298.876 559.227 298.888H558.014C546.251 298.888 529.139 293.428 529.139 293.428L531.237 279.664C531.237 279.664 544.868 280.144 546.178 278.86C546.493 278.548 545.559 277.156 543.971 275.26C540.114 270.568 532.389 262.756 529.2 259.564L527.757 258.124L546.542 238.6C550.847 243.46 572.748 285.208 568.492 295Z" fill="white"/>
</g>
<path opacity="0.2" d="M565.957 297.532L565.254 297.844H565.157C564.94 297.934 564.717 298.011 564.49 298.072C563.504 298.385 562.488 298.594 561.458 298.696L560.573 298.78C560.136 298.78 559.7 298.84 559.251 298.852H558.038C546.275 298.852 529.164 293.392 529.164 293.392L531.262 279.628C531.262 279.628 546.614 280.912 547.924 279.628C548.167 279.124 546.469 277.42 543.959 275.248C540.102 270.556 532.377 262.744 529.188 259.552L538.065 250.168L544.82 249.448C544.82 249.448 559.772 273.4 565.957 297.532Z" fill="black"/>
<path d="M502.29 237.184C499.865 238.924 498.652 241.396 499.622 242.704L563.701 330.124C564.66 331.432 567.412 331.072 569.838 329.332C572.263 327.592 573.476 325.108 572.506 323.812L508.426 236.38C507.468 235.084 504.727 235.432 502.29 237.184Z" fill="#263238"/>
<path opacity="0.7" d="M508.426 236.38L572.506 323.8C573.464 325.096 572.263 327.568 569.838 329.32C567.412 331.072 564.66 331.408 563.714 330.112L499.634 242.68C499.389 242.224 499.281 241.709 499.322 241.195C499.363 240.68 499.551 240.188 499.865 239.776C500.192 239.198 500.6 238.669 501.077 238.204C501.449 237.824 501.855 237.479 502.29 237.172C504.728 235.444 507.468 235.084 508.426 236.38Z" fill="white"/>
<path opacity="0.3" d="M572.506 323.8C573.464 325.096 572.263 327.568 569.838 329.32C567.412 331.072 564.66 331.408 563.714 330.112C563.18 329.392 564.502 328.3 565.278 326.728L499.865 239.8C500.192 239.222 500.6 238.693 501.077 238.228L565.169 325.66C565.545 325.281 565.951 324.932 566.382 324.616C568.807 322.864 571.548 322.504 572.506 323.8Z" fill="black"/>
<path d="M494.359 234.76C492.309 236.92 491.606 239.56 492.794 240.676L572.469 314.488C573.682 315.592 576.289 314.728 578.339 312.556C580.388 310.384 581.092 307.756 579.903 306.628L500.228 232.816C499.04 231.724 496.408 232.6 494.359 234.76Z" fill="#2673DD"/>
<path opacity="0.7" d="M500.228 232.828L579.903 306.64C581.116 307.732 580.388 310.384 578.339 312.556C576.289 314.728 573.658 315.58 572.469 314.488L492.794 240.676C492.469 240.271 492.266 239.784 492.208 239.271C492.15 238.757 492.24 238.237 492.467 237.772C492.685 237.143 492.986 236.546 493.364 235.996C493.664 235.571 493.997 235.17 494.359 234.796C496.408 232.6 499.04 231.724 500.228 232.828Z" fill="white"/>
<path opacity="0.3" d="M579.903 306.64C581.116 307.732 580.388 310.384 578.339 312.556C576.289 314.728 573.658 315.58 572.469 314.488C571.814 313.876 572.906 312.568 573.367 310.888L492.467 237.796C492.685 237.167 492.986 236.57 493.364 236.02L573.051 309.844C573.344 309.418 573.673 309.016 574.034 308.644C576.083 306.4 578.715 305.536 579.903 306.64Z" fill="black"/>
<path d="M513.508 470.32L507.444 470.416C501.271 441.724 496.906 406.216 494.189 379.432C493.765 375.232 493.377 371.26 492.976 367.552C492.819 365.788 492.661 364.096 492.516 362.464C491.788 354.412 491.303 348.064 490.988 344.08C490.769 341.2 490.66 339.616 490.66 339.616H512.707L512.501 345.148L511.773 363.4L511.701 365.488L511.24 377.548L510.476 398.08C518.007 427 513.508 470.32 513.508 470.32Z" fill="#EBB376"/>
<path d="M562.743 468.784L556.765 469.9C544.795 440.296 533.554 402.388 526.241 375.904C525.113 371.8 524.07 367.96 523.136 364.48C523.136 364.3 523.052 364.132 523.003 363.964C521.16 357.052 519.741 351.544 518.856 348.052L517.801 343.816L539.387 340.12L540.599 349.12L542.406 362.32L542.758 364.912L543.971 373.924L547.257 398.092C559.724 425.332 562.743 468.784 562.743 468.784Z" fill="#EBB376"/>
<path opacity="0.2" d="M542.467 362.344L523.136 364.48C523.136 364.3 523.051 364.132 523.003 363.964C521.16 357.052 519.741 351.544 518.856 348.052L540.684 349.12L542.467 362.344Z" fill="black"/>
<path opacity="0.2" d="M512.452 345.148L511.773 363.4L511.701 365.488L493.025 367.54C492.867 365.776 492.71 364.084 492.564 362.452C491.836 354.4 491.351 348.052 491.036 344.068L512.452 345.148Z" fill="black"/>
<path d="M495.572 490.264C496.701 489.356 497.987 488.657 499.367 488.2C499.367 488.2 503.503 484.144 505.504 471.928L510.912 470.524C511.832 470.307 512.796 470.373 513.676 470.714C514.556 471.056 515.31 471.655 515.836 472.432C515.985 472.649 516.1 472.888 516.175 473.14C516.455 474.45 516.649 475.777 516.758 477.112C517.06 481.578 517.089 486.058 516.842 490.528H515.86L515.472 482.128C515.327 479.26 513.107 482.62 512.477 485.728C511.846 488.836 510.5 492.076 504.17 492.232C496.772 492.34 493.704 492.052 495.572 490.264Z" fill="#263238"/>
<path d="M516.03 472.6C516.382 469.744 516.491 464.776 516.491 464.776L504.461 466.096C504.461 466.096 505.916 471.748 504.715 475.996C510.779 474.352 516.03 472.6 516.03 472.6Z" fill="#263238"/>
<path d="M544.516 490.264C545.647 489.36 546.933 488.665 548.312 488.212C548.312 488.212 552.447 484.156 554.436 471.94L559.857 470.536C560.777 470.319 561.741 470.385 562.621 470.727C563.501 471.068 564.255 471.667 564.781 472.444C564.93 472.661 565.045 472.9 565.12 473.152C565.4 474.462 565.594 475.789 565.702 477.124C566.003 481.59 566.027 486.071 565.775 490.54H564.853L564.465 482.14C564.32 479.272 562.101 482.632 561.47 485.74C560.839 488.848 559.493 492.088 553.151 492.244C545.717 492.34 542.649 492.052 544.516 490.264Z" fill="#263238"/>
<path d="M564.963 472.6C565.327 469.744 565.436 464.776 565.436 464.776L553.406 466.096C553.406 466.096 554.861 471.748 553.66 475.996C559.724 474.352 564.963 472.6 564.963 472.6Z" fill="#263238"/>
<path d="M544.553 356.452L521.669 359.344L520.784 359.452L516.078 342.388L514.866 360.676L490.345 359.404C479.43 295.96 498.094 280.972 498.094 280.972L531.359 287.596C546.42 312.94 542.843 342.388 542.843 342.388L544.553 356.452Z" fill="#2673DD"/>
<path d="M513.047 201.928C513.047 204.424 511.931 206.44 510.621 206.44C509.312 206.44 508.123 204.424 508.123 201.928C508.123 199.432 509.239 197.416 510.621 197.416C512.004 197.416 513.047 199.432 513.047 201.928Z" stroke="#263238" stroke-width="0.5" stroke-linecap="round" stroke-linejoin="round"/>
<path d="M529.479 217C529.39 217.082 529.292 217.155 529.188 217.216C527.804 218.26 526.226 219.023 524.543 219.46C519.632 220.588 516.272 219.916 514.077 217.72C511.009 214.42 510.245 208.576 510.682 201.52C510.758 198.712 511.282 195.934 512.234 193.288C512.234 193.288 512.234 193.18 512.234 193.156C512.234 193.132 512.307 192.952 512.355 192.856C512.957 191.364 513.927 190.044 515.177 189.019C516.427 187.994 517.917 187.295 519.51 186.988C520.892 186.682 522.303 186.525 523.718 186.52C537.628 186.412 540.126 209.188 529.479 217Z" fill="#EBB376"/>
<path opacity="0.2" d="M529.188 217.252C527.793 218.235 526.214 218.933 524.543 219.304C519.632 220.432 516.272 219.604 514.077 217.372C517.017 218.091 520.113 217.838 522.894 216.652C523.921 216.277 525.02 216.136 526.11 216.24C527.2 216.344 528.252 216.69 529.188 217.252Z" fill="black"/>
<path d="M530.595 229.672C531.456 233.584 526.326 235.18 526.326 235.18C517.946 231.58 516.394 227.224 516.394 227.224C523.391 223.624 521.366 213.412 521.366 213.412L522.785 214.108L532.765 216.04C532.765 216.04 530 221.296 529.637 222.496C527.745 228.796 530.595 229.672 530.595 229.672Z" fill="#EBB376"/>
<path d="M512.222 193.228C512.222 193.228 511.458 202.828 520.711 207.016C520.711 207.016 524.676 217.036 530.51 217.168C538.477 217.36 545.487 206.164 542.734 194.752C539.132 179.944 516.466 178.744 512.222 193.228Z" fill="#263238"/>
<path d="M516.006 204.244C516.006 202.744 517.218 200.212 519.644 200.56C522.069 200.908 523.452 206.884 517.437 208.216C516.527 208.408 516.006 207.4 516.006 204.244Z" fill="#EBB376"/>
<path d="M529.188 182.98C529.188 182.98 519.898 180.652 514.757 184.36C508.754 188.68 506.474 193.144 513.544 200.08C513.544 200.08 529.151 195.076 534.342 196.132C537.376 196.737 540.353 197.592 543.243 198.688C544.371 188.488 534.378 180.892 529.188 182.98Z" fill="#263238"/>
<path d="M516.006 201.928C516.006 201.928 518.431 213.04 514.623 222.52C514.623 222.52 536.694 230.092 544.371 225.976C552.047 221.86 545.014 208.048 544.686 200.08C544.359 192.112 540.866 180.34 529.188 182.98C517.509 185.62 516.006 201.928 516.006 201.928Z" fill="#263238"/>
<path d="M508.062 201.22H517.388" stroke="#263238" stroke-width="0.5" stroke-linecap="round" stroke-linejoin="round"/>
<path opacity="0.2" d="M521.669 359.344L520.784 359.452L516.078 342.388C516.078 342.388 526.168 325.336 523.015 316.456C523.464 317.08 534.33 333.028 521.669 359.344Z" fill="black"/>
<path d="M502.775 228.808C502.775 228.808 513.871 224.896 530.595 229.672C547.318 234.448 547.948 241.492 547.948 241.492C547.948 241.492 537.349 265.264 535.676 292.18L492.091 290.572C492.091 290.572 486.889 252.58 502.775 228.808Z" fill="#263238"/>
<path opacity="0.2" d="M547.948 241.492C547.948 241.492 537.349 265.264 535.676 292.18L492.091 290.572C491.57 286.191 491.303 281.783 491.291 277.372C491.205 270.915 491.61 264.461 492.503 258.064C493.959 248.104 496.954 237.472 502.775 228.76C502.775 228.76 513.871 224.848 530.595 229.624C547.318 234.4 547.948 241.492 547.948 241.492Z" fill="white"/>
<path opacity="0.2" d="M502.169 259.732C502.169 259.732 500.362 270.676 491.254 277.42C491.168 270.963 491.574 264.509 492.467 258.112L502.169 259.732Z" fill="black"/>
<path d="M454.012 228.052L448.518 219.988C448.518 219.988 447.682 216.484 446.614 215.692C445.547 214.9 434.997 210.448 433.723 210.472C432.45 210.496 432.511 218.608 433.723 219.988C434.936 221.368 441.654 224.32 443.425 224.62C445.196 224.92 444.322 224.62 444.322 224.62L449.173 234.22L454.012 228.052Z" fill="#EBB376"/>
<path d="M502.775 228.808C491.006 233.685 479.651 239.488 468.819 246.16L451.077 222.16C451.077 222.16 446.299 223.624 444.529 231.856C444.529 231.856 453.636 266.188 465.472 269.596C477.308 273.004 502.193 259.672 502.193 259.672C502.193 259.672 509.396 241.84 502.775 228.808Z" fill="#263238"/>
<path opacity="0.2" d="M502.775 228.808C491.006 233.685 479.651 239.488 468.819 246.16L451.077 222.16C451.077 222.16 446.299 223.624 444.529 231.856C444.529 231.856 453.636 266.188 465.472 269.596C477.308 273.004 502.193 259.672 502.193 259.672C502.193 259.672 509.396 241.84 502.775 228.808Z" fill="white"/>
<path d="M513.992 227.296C513.992 227.296 517.861 254.704 530.121 255.808C542.382 256.912 547.876 236.608 545.802 234.208C543.728 231.808 527.927 227.116 513.992 227.296Z" fill="#263238"/>
<path opacity="0.3" d="M513.992 227.296C513.992 227.296 517.861 254.704 530.121 255.808C542.382 256.912 547.876 236.608 545.802 234.208C543.728 231.808 527.927 227.116 513.992 227.296Z" fill="white"/>
<path d="M77.7814 479.404H86.7676L87.5074 458.812H78.5212L77.7814 479.404Z" fill="#B97964"/>
<path d="M88.0046 478.372H77.0902C76.9104 478.369 76.7353 478.428 76.5955 478.54C76.4558 478.652 76.3604 478.809 76.3262 478.984L74.5556 486.892C74.5183 487.061 74.515 487.235 74.5461 487.405C74.5771 487.575 74.6419 487.737 74.7366 487.882C74.8313 488.027 74.9541 488.152 75.0978 488.25C75.2416 488.348 75.4036 488.416 75.5743 488.452H75.8654C79.3943 488.392 81.9289 488.176 86.3917 488.176C89.1324 488.176 97.306 488.464 101.138 488.464C104.97 488.464 105.395 484.78 103.855 484.444C96.9301 482.944 91.7276 480.844 89.5083 478.912C89.0942 478.55 88.5568 478.357 88.0046 478.372Z" fill="#263238"/>
<path d="M88.6231 479.608C88.5819 479.596 88.5449 479.573 88.5169 479.541C88.4889 479.509 88.471 479.47 88.4654 479.428C88.4578 479.388 88.4631 479.347 88.4805 479.31C88.4979 479.274 88.5266 479.243 88.5624 479.224C88.8899 479.02 91.7882 477.256 92.7827 477.76C92.895 477.812 92.9894 477.895 93.0541 478C93.1188 478.104 93.1509 478.225 93.1465 478.348C93.1796 478.558 93.1555 478.774 93.0766 478.972C92.9978 479.17 92.867 479.344 92.6978 479.476C92.1957 479.823 91.586 479.985 90.9757 479.932C90.1821 479.907 89.3933 479.799 88.6231 479.608ZM89.2415 479.308C90.2901 479.659 91.4345 479.604 92.4431 479.152C92.5481 479.058 92.6284 478.94 92.6769 478.808C92.7255 478.676 92.741 478.535 92.722 478.396C92.722 478.228 92.6493 478.144 92.5886 478.144C92.5025 478.1 92.4064 478.08 92.3097 478.084C91.2179 478.296 90.1768 478.711 89.2415 479.308Z" fill="#2673DD"/>
<path d="M88.5624 479.644C88.5307 479.623 88.5051 479.594 88.4881 479.561C88.4711 479.527 88.4633 479.49 88.4654 479.452C88.4654 479.332 88.6958 476.776 89.6781 475.936C89.7985 475.829 89.9415 475.75 90.0968 475.704C90.252 475.658 90.4155 475.647 90.5755 475.672C90.7367 475.673 90.8927 475.729 91.0182 475.829C91.1437 475.929 91.2312 476.068 91.2668 476.224C91.4487 477.16 89.6539 479.116 88.7201 479.62H88.6231L88.5624 479.644ZM90.0055 476.2C89.3763 477 89.0082 477.972 88.9505 478.984C89.8721 478.288 91.0121 476.812 90.903 476.236C90.903 476.236 90.9029 476.02 90.5876 476.02H90.4906C90.3119 476.018 90.1388 476.082 90.0055 476.2Z" fill="#2673DD"/>
<path opacity="0.2" d="M78.5212 458.824H87.5074L87.1193 469.444H78.1331L78.5212 458.824Z" fill="black"/>
<path d="M124.022 480.064L133.299 481.036L135.033 461.26L125.768 460.288L124.022 480.064Z" fill="#B97964"/>
<path d="M134.269 478.084H123.428C123.249 478.085 123.076 478.147 122.938 478.258C122.799 478.369 122.702 478.523 122.664 478.696L120.893 486.616C120.85 486.782 120.84 486.955 120.865 487.125C120.89 487.295 120.948 487.459 121.037 487.606C121.126 487.754 121.244 487.882 121.384 487.984C121.524 488.086 121.683 488.159 121.851 488.2H122.142C125.671 488.14 128.206 487.924 132.681 487.924C135.409 487.924 143.595 488.2 147.415 488.2C151.235 488.2 151.672 484.516 150.132 484.18C143.207 482.692 138.005 480.58 135.785 478.648C135.369 478.28 134.828 478.079 134.269 478.084Z" fill="#263238"/>
<path d="M134.888 479.32C134.847 479.309 134.81 479.285 134.782 479.253C134.754 479.221 134.736 479.182 134.73 479.14C134.721 479.099 134.727 479.056 134.747 479.018C134.767 478.981 134.8 478.952 134.839 478.936C135.155 478.732 138.053 476.968 139.047 477.484C139.16 477.532 139.255 477.613 139.32 477.716C139.385 477.819 139.417 477.939 139.411 478.06C139.441 478.271 139.416 478.486 139.34 478.685C139.264 478.884 139.138 479.061 138.975 479.2C138.464 479.537 137.853 479.693 137.241 479.644C136.447 479.619 135.658 479.511 134.888 479.32ZM135.506 479.032C136.556 479.38 137.701 479.32 138.708 478.864C138.814 478.77 138.895 478.652 138.943 478.521C138.992 478.389 139.007 478.247 138.987 478.108C138.987 477.94 138.914 477.868 138.853 477.868C138.773 477.82 138.68 477.799 138.587 477.808C137.505 478.017 136.476 478.433 135.555 479.032H135.506Z" fill="#2673DD"/>
<path d="M134.839 479.368C134.806 479.348 134.779 479.319 134.76 479.286C134.741 479.252 134.731 479.214 134.73 479.176C134.73 479.044 134.961 476.5 136.004 475.66C136.127 475.557 136.27 475.48 136.424 475.432C136.578 475.385 136.74 475.368 136.901 475.384C137.063 475.383 137.22 475.438 137.346 475.538C137.472 475.639 137.559 475.779 137.592 475.936C137.774 476.884 135.979 478.84 135.046 479.332H134.949L134.839 479.368ZM136.27 475.912C135.641 476.708 135.273 477.675 135.215 478.684C136.137 478 137.277 476.512 137.168 475.936C137.168 475.936 137.168 475.72 136.852 475.72H136.768C136.584 475.725 136.408 475.793 136.27 475.912Z" fill="#2673DD"/>
<path opacity="0.2" d="M125.768 460.288L135.033 461.26L134.124 471.46L124.859 470.488L125.768 460.288Z" fill="black"/>
<path d="M82.1957 278.26H129.892C134.415 302.752 148.604 389.404 138.38 466.66L122.239 464.68C122.239 464.68 123.731 362.188 109.494 324.28C107.857 344.56 105.856 366.136 104.219 377.62C100.071 405.88 91.194 467.62 91.194 467.62H74.8103C74.8103 467.62 78.1695 408.508 79.7218 380.74C81.4196 350.56 82.1957 284.452 82.1957 278.26Z" fill="#263238"/>
<path d="M140.272 470.332L120.299 467.392L120.917 461.92L141.691 464.62L140.272 470.332Z" fill="#2673DD"/>
<path d="M93.2192 467.728H73.8401V462.004L93.9468 461.632L93.2192 467.728Z" fill="#2673DD"/>
<path opacity="0.2" d="M109.542 324.244C111.883 330.887 113.663 337.71 114.866 344.644C116.2 326.644 110.864 307.444 110.864 307.444L109.542 324.244Z" fill="black"/>
<path d="M80.8738 286.468L79.7824 292.168C79.7824 292.168 113.144 296.44 133.893 296.32L133.166 292.408L80.8738 286.468Z" fill="#2673DD"/>
<path d="M148.579 237.112C148.579 237.112 160.112 273.112 167.983 275.512C175.853 277.912 195.875 248.164 195.875 248.164C195.875 248.164 213.859 247.996 214.66 246.784C215.46 245.572 209.991 233.032 208.681 233.02C207.371 233.008 191.703 238.84 191.109 239.824C190.515 240.808 172.53 257.824 171.706 257.32C170.881 256.816 164.041 235.42 164.041 235.42L148.579 237.112Z" fill="#B97964"/>
<path d="M198.252 246.215C198.392 246.187 198.531 246.152 198.668 246.109L198.466 245.98C198.401 246.064 198.329 246.143 198.252 246.215Z" fill="#B97964"/>
<path d="M142.031 232.96L143.437 235.516L149.998 247.516L151.369 250L169.79 243.664C169.79 243.664 162.125 215.368 159.469 212.464L142.031 232.96Z" fill="#2673DD"/>
<path opacity="0.4" d="M142.031 232.96L143.437 235.516L149.998 247.516L151.369 250L169.79 243.664C169.79 243.664 162.125 215.368 159.469 212.464L142.031 232.96Z" fill="white"/>
<path opacity="0.2" d="M143.437 235.516L149.998 247.516C154.061 239.632 152.884 228.832 152.884 228.832L143.437 235.516Z" fill="black"/>
<path d="M159.469 212.476C155.999 208.51 151.749 205.284 146.979 202.994C142.209 200.705 137.019 199.399 131.723 199.156C113.678 198.316 108.002 200.092 101.405 205.924C91.764 214.444 79.7703 287.8 79.7703 287.8C97.3658 292.647 115.644 294.613 133.881 293.62C133.881 293.62 134.1 273.22 140.612 259.528C147.946 244.275 154.246 228.557 159.469 212.476Z" fill="#2673DD"/>
<path opacity="0.4" d="M79.7703 287.8C97.3658 292.648 115.644 294.618 133.881 293.632C133.881 293.632 133.881 291.112 134.233 287.26C134.379 285.436 134.597 283.3 134.9 280.996C135.203 278.692 135.64 276.064 136.113 273.448C136.404 272.044 136.743 270.628 137.107 269.224C137.953 265.891 139.106 262.641 140.551 259.516C141.352 257.836 142.128 256.168 142.88 254.536C144.177 251.68 145.414 248.908 146.518 246.256C148.943 240.676 151.005 235.576 152.727 231.112C153.94 227.908 155.031 225.04 155.916 222.58C156.899 219.832 157.675 217.576 158.245 215.896C158.984 213.676 159.348 212.464 159.348 212.464C158.746 211.717 158.098 211.008 157.408 210.34C150.64 203.739 141.692 199.776 132.208 199.18H131.601C117.849 198.544 111.289 199.42 106.025 202.456C104.328 203.461 102.739 204.635 101.284 205.96C99.9148 207.428 98.8369 209.138 98.1064 211C95.865 216.158 94.0244 221.477 92.6007 226.912L91.8003 229.828C90.5876 234.28 89.4477 239.02 88.3563 243.82C88.041 245.188 87.7378 246.556 87.4346 247.912C86.9859 250 86.5372 252.076 86.1127 254.128C85.0213 259.3 84.039 264.316 83.178 268.828C81.9653 275.308 80.983 280.732 80.4009 284.104C80.0007 286.48 79.7703 287.8 79.7703 287.8ZM132.766 199.84C133.982 199.87 135.197 199.962 136.404 200.116C141.255 200.764 148.713 204.616 148.531 206.44C148.349 208.264 145.511 212.92 138.259 211.792C135.732 211.33 133.334 210.34 131.225 208.888C127.224 206.272 124.313 202.732 124.022 201.58C123.658 200.2 128.364 199.732 132.778 199.864L132.766 199.84Z" fill="white"/>
<path d="M117.219 224.296C117.219 224.296 107.663 247.18 105.698 266.2L131.541 269.464C131.541 269.464 143.134 238.54 145.535 228.868C145.535 228.844 124.895 226.804 117.219 224.296Z" fill="#2673DD"/>
<path opacity="0.4" d="M140.491 229.744L144.08 230.092L141.449 232.108L140.491 229.744Z" fill="white"/>
<path d="M126.423 201.64C128.376 207.16 135.64 209.68 139.448 210.04C140.85 210.259 142.286 210.016 143.535 209.348C144.784 208.68 145.777 207.625 146.36 206.344C146.36 206.344 142.006 204.196 142.443 201.784C142.751 200.309 143.362 198.912 144.238 197.68C144.691 196.976 145.185 196.299 145.717 195.652L138.744 180.856C137.192 187.264 132.426 199.576 126.423 201.64Z" fill="#B97964"/>
<path opacity="0.2" d="M138.465 187.684C135.143 194.884 139.836 199.84 142.443 201.736C142.751 200.261 143.362 198.864 144.238 197.632L138.465 187.684Z" fill="black"/>
<path d="M161.846 168.472C161.846 168.472 164.078 180.664 157.65 185.548C151.223 190.432 150.568 167.656 150.568 167.656L161.846 168.472Z" fill="#B97964"/>
<path opacity="0.4" d="M161.846 168.472C161.846 168.472 164.078 180.664 157.65 185.548C151.223 190.432 150.568 167.656 150.568 167.656L161.846 168.472Z" fill="black"/>
<path d="M138.866 195.808C140.299 197.785 142.348 199.242 144.698 199.955C147.049 200.668 149.571 200.598 151.878 199.756C154.891 198.709 157.385 196.563 158.851 193.756C159.057 193.384 159.239 192.976 159.421 192.556C162.428 184.984 163.059 166.504 154.958 167.188C148.264 167.752 141.715 165.712 138.296 171.436C137.319 173.064 136.745 174.898 136.622 176.788C135.894 185.62 135.045 190.744 138.866 195.808Z" fill="#B97964"/>
<path d="M149.634 181.156C149.489 181.852 149.828 182.488 150.301 182.56C150.774 182.632 151.235 182.092 151.344 181.36C151.453 180.628 151.138 180.028 150.677 179.968C150.216 179.908 149.744 180.436 149.634 181.156Z" fill="#263238"/>
<path d="M157.747 182.296C157.602 182.992 157.954 183.628 158.414 183.7C158.875 183.772 159.348 183.232 159.445 182.5C159.542 181.768 159.251 181.168 158.778 181.096C158.305 181.024 157.844 181.624 157.747 182.296Z" fill="#263238"/>
<path d="M155.116 182.284C155.662 184.573 156.523 186.778 157.675 188.836C157.131 189.115 156.533 189.274 155.922 189.301C155.31 189.328 154.7 189.222 154.134 188.992L155.116 182.284Z" fill="#A24E3F"/>
<path d="M147.5 178.204C147.574 178.226 147.653 178.227 147.727 178.208C147.802 178.189 147.87 178.15 147.924 178.096C148.296 177.717 148.751 177.429 149.254 177.254C149.757 177.079 150.294 177.022 150.823 177.088C150.934 177.109 151.049 177.088 151.144 177.027C151.238 176.967 151.306 176.873 151.332 176.764C151.345 176.71 151.346 176.655 151.336 176.6C151.326 176.546 151.305 176.495 151.275 176.449C151.244 176.403 151.204 176.363 151.158 176.333C151.112 176.303 151.059 176.282 151.005 176.272C150.346 176.176 149.673 176.235 149.041 176.443C148.41 176.652 147.836 177.004 147.367 177.472C147.288 177.552 147.244 177.66 147.244 177.772C147.244 177.884 147.288 177.991 147.367 178.072C147.405 178.121 147.45 178.166 147.5 178.204Z" fill="#263238"/>
<path d="M161.628 180.016C161.706 180.046 161.793 180.046 161.871 180.016C161.925 180.002 161.975 179.978 162.019 179.944C162.063 179.91 162.099 179.867 162.125 179.819C162.151 179.77 162.167 179.717 162.171 179.662C162.176 179.607 162.168 179.552 162.15 179.5C161.957 178.86 161.612 178.275 161.144 177.795C160.675 177.315 160.097 176.953 159.457 176.74C159.404 176.724 159.348 176.718 159.292 176.724C159.237 176.73 159.183 176.746 159.134 176.773C159.085 176.8 159.043 176.837 159.009 176.881C158.975 176.924 158.95 176.974 158.936 177.028C158.906 177.135 158.92 177.249 158.974 177.345C159.029 177.442 159.12 177.513 159.227 177.544C159.729 177.727 160.181 178.022 160.547 178.408C160.913 178.793 161.184 179.257 161.337 179.764C161.361 179.826 161.4 179.882 161.451 179.926C161.502 179.97 161.562 180.001 161.628 180.016Z" fill="#263238"/>
<path d="M148.507 189.304C148.507 189.304 149.998 192.472 153.042 192.352" stroke="#263238" stroke-width="0.5" stroke-linecap="round" stroke-linejoin="round"/>
<path d="M144.638 166.876L144.759 170.788C144.068 171.036 143.497 171.535 143.162 172.182C142.827 172.83 142.752 173.58 142.952 174.28C143.898 177.64 141.558 182.512 138.853 184.288C138.853 184.288 138.853 182.872 137.641 183.088C136.428 183.304 136.052 190.672 138.053 194.38C138.053 194.38 133.772 190.48 132.499 182.596C131.286 175.312 131.517 170.692 132.499 167.2L144.638 166.876Z" fill="#B97964"/>
<path opacity="0.4" d="M144.638 166.876L144.759 170.788C144.068 171.036 143.497 171.535 143.162 172.182C142.827 172.83 142.752 173.58 142.952 174.28C143.898 177.64 141.558 182.512 138.853 184.288C138.853 184.288 138.853 182.872 137.641 183.088C136.428 183.304 136.052 190.672 138.053 194.38C138.053 194.38 133.772 190.48 132.499 182.596C131.286 175.312 131.517 170.692 132.499 167.2L144.638 166.876Z" fill="black"/>
<path d="M131.82 171.568C136.147 171.987 140.515 171.724 144.759 170.788C156.971 168.388 162.174 172.828 162.174 172.828C163.019 172.076 163.684 171.147 164.123 170.11C164.561 169.072 164.761 167.951 164.708 166.828C164.357 163.348 159.469 162.76 159.469 162.76C159.469 162.76 158.002 158.836 154.764 157.648C151.526 156.46 148.276 159.436 148.276 159.436C148.276 159.436 144.238 155.572 139.533 156.676C137.949 156.998 136.524 157.848 135.498 159.084C134.471 160.32 133.905 161.868 133.893 163.468C133.893 163.468 128.376 164.02 128.497 166.828C128.618 169.636 131.82 171.568 131.82 171.568Z" fill="#263238"/>
<path d="M150.58 186.268C152.77 186.268 154.546 184.242 154.546 181.744C154.546 179.245 152.77 177.22 150.58 177.22C148.39 177.22 146.615 179.245 146.615 181.744C146.615 184.242 148.39 186.268 150.58 186.268Z" stroke="#263238" stroke-width="0.5" stroke-linecap="round" stroke-linejoin="round"/>
<path d="M164.514 182.416C164.405 183.167 164.08 183.871 163.578 184.445C163.076 185.019 162.417 185.437 161.681 185.651C160.946 185.865 160.163 185.865 159.427 185.652C158.691 185.438 158.033 185.02 157.53 184.447C157.027 183.873 156.702 183.169 156.592 182.418C156.483 181.667 156.594 180.9 156.912 180.21C157.23 179.519 157.742 178.933 158.386 178.523C159.031 178.112 159.782 177.893 160.549 177.892C161.678 177.978 162.728 178.501 163.471 179.348C164.213 180.195 164.588 181.297 164.514 182.416Z" stroke="#263238" stroke-width="0.5" stroke-linecap="round" stroke-linejoin="round"/>
<path d="M154.534 182.284C154.534 182.284 155.819 181.492 156.583 182.416" stroke="#263238" stroke-width="0.5" stroke-linecap="round" stroke-linejoin="round"/>
<path d="M146.615 181.744L139.666 180.82C138.755 180.704 137.835 180.95 137.107 181.504L136.804 181.744" stroke="#263238" stroke-width="0.5" stroke-linecap="round" stroke-linejoin="round"/>
<path d="M131.747 183.4C132.444 185.511 133.957 187.262 135.955 188.272C138.611 189.58 140.503 187.372 140.236 184.6C139.993 182.128 138.332 178.408 135.385 178.264C134.756 178.243 134.132 178.378 133.569 178.656C133.006 178.934 132.521 179.347 132.16 179.857C131.799 180.367 131.572 180.958 131.5 181.577C131.428 182.195 131.513 182.822 131.747 183.4Z" fill="#B97964"/>
<path opacity="0.2" d="M87.4346 247.948C98.8825 243.244 107.929 223.816 107.929 223.816L101.429 219.928L92.6007 226.948L91.8003 229.864C90.5876 234.316 89.4477 239.056 88.3562 243.856C88.0409 245.224 87.7377 246.592 87.4346 247.948Z" fill="black"/>
<path d="M150.483 250.012L170.226 242.836L170.796 244.492L151.041 251.452L150.483 250.012Z" fill="#2673DD"/>
<path d="M99.3296 299.394L42.1014 290.415L36.5045 325.342L93.7327 334.321L99.3296 299.394Z" fill="#2673DD"/>
<path d="M62.3437 303.712L50.7138 309.676L59.9061 318.904" stroke="white" stroke-width="2" stroke-linecap="round" stroke-linejoin="round"/>
<path d="M73.4521 321.028L85.0698 315.064L75.8896 305.836" stroke="white" stroke-width="2" stroke-linecap="round" stroke-linejoin="round"/>
<path d="M63.9565 319.54L71.8391 305.2" stroke="white" stroke-width="2" stroke-linecap="round" stroke-linejoin="round"/>
<path d="M94.5774 209.056C94.5774 209.056 73.0034 230.476 70.0686 234.64C67.1339 238.804 61.5069 284.968 61.5069 284.968C61.5069 284.968 60.2942 285.376 60.2214 286.372C60.1487 287.368 60.0274 300.328 60.2214 300.928C60.4154 301.528 70.3354 307.588 71.8028 306.148C73.2702 304.708 75.3075 290.032 75.3075 290.032L70.0686 284.968C70.0686 284.968 76.1321 250.972 79.9764 245.464C83.8207 239.956 99.4889 228.172 99.4889 228.172L94.5774 209.056Z" fill="#B97964"/>
<path d="M111.155 200.428C114.296 207.016 111.907 220.888 106.11 225.784C99.9769 230.817 93.4931 235.416 86.707 239.548L76.1321 225.832C76.1321 225.832 87.3861 214.96 94.2015 208.696C98.837 204.249 104.768 201.357 111.155 200.428Z" fill="#2673DD"/>
<path opacity="0.4" d="M111.155 200.428C114.296 207.016 111.907 220.888 106.11 225.784C99.9769 230.817 93.4931 235.416 86.707 239.548L76.1321 225.832C76.1321 225.832 87.3861 214.96 94.2015 208.696C98.837 204.249 104.768 201.357 111.155 200.428Z" fill="white"/>
<path d="M76.1322 224.956L74.8224 226.72L85.8702 241.012L87.4346 239.908L76.1322 224.956Z" fill="#2673DD"/>
<defs>
<clipPath id="clip0_23_53">
<rect width="68" height="4" fill="white" transform="translate(443.23)"/>
</clipPath>
<clipPath id="clip1_23_53">
<rect width="68" height="4" fill="white" transform="translate(443.23 16)"/>
</clipPath>
<clipPath id="clip2_23_53">
<rect width="68" height="4" fill="white" transform="translate(443.23 32)"/>
</clipPath>
<clipPath id="clip3_23_53">
<rect width="68" height="4" fill="white" transform="translate(443.23 48)"/>
</clipPath>
<clipPath id="clip4_23_53">
<rect width="68" height="4" fill="white" transform="translate(443.23 64)"/>
</clipPath>
<clipPath id="clip5_23_53">
<rect width="68" height="4" fill="white" transform="translate(443.23 80)"/>
</clipPath>
<clipPath id="clip6_23_53">
<rect width="68" height="4" fill="white" transform="translate(443.23 96)"/>
</clipPath>
</defs>
</svg>
