<svg xmlns="http://www.w3.org/2000/svg" xmlns:xlink="http://www.w3.org/1999/xlink" viewBox="0 0 500 500"><defs><clipPath id="freepik--clip-path--inject-75"><rect x="401.33" y="130.48" width="12.56" height="12.02" style="fill:#3179FF"></rect></clipPath></defs><g id="freepik--background-simple--inject-75"><path d="M397.7,434.79a124.26,124.26,0,0,0,38.24-43.52c57.16-107.09,44.25-265-65.83-332.73C319.23,27.24,246,7.43,191,39.57c-44.6,26.08-71.94,75.17-94.56,119.83C82.23,187.49,70.52,217.72,53,244,30.28,278.08,5.27,323.6,30.52,363.2c34.41,53.94,99.4,78.57,158.33,94.79,63.94,17.59,135.84,20.08,194.9-14.23Q390.92,439.59,397.7,434.79Z" style="fill:#3179FF"></path><path d="M397.7,434.79a124.26,124.26,0,0,0,38.24-43.52c57.16-107.09,44.25-265-65.83-332.73C319.23,27.24,246,7.43,191,39.57c-44.6,26.08-71.94,75.17-94.56,119.83C82.23,187.49,70.52,217.72,53,244,30.28,278.08,5.27,323.6,30.52,363.2c34.41,53.94,99.4,78.57,158.33,94.79,63.94,17.59,135.84,20.08,194.9-14.23Q390.92,439.59,397.7,434.79Z" style="fill:#fff;opacity:0.7000000000000001"></path></g><g id="freepik--Artboard--inject-75"><rect x="120.91" y="48.39" width="267.18" height="272.82" style="fill:#263238;stroke:#263238;stroke-linecap:round;stroke-linejoin:round"></rect><line x1="129.2" y1="68.12" x2="122.51" y2="68.12" style="fill:none;stroke:#ababab;stroke-linecap:round;stroke-linejoin:round"></line><line x1="129.2" y1="80.46" x2="122.51" y2="80.46" style="fill:none;stroke:#ababab;stroke-linecap:round;stroke-linejoin:round"></line><line x1="129.2" y1="92.79" x2="122.51" y2="92.79" style="fill:none;stroke:#ababab;stroke-linecap:round;stroke-linejoin:round"></line><line x1="129.2" y1="105.13" x2="122.51" y2="105.13" style="fill:none;stroke:#ababab;stroke-linecap:round;stroke-linejoin:round"></line><line x1="129.2" y1="117.46" x2="122.51" y2="117.46" style="fill:none;stroke:#ababab;stroke-linecap:round;stroke-linejoin:round"></line><line x1="129.2" y1="129.8" x2="122.51" y2="129.8" style="fill:none;stroke:#ababab;stroke-linecap:round;stroke-linejoin:round"></line><line x1="129.2" y1="142.13" x2="122.51" y2="142.13" style="fill:none;stroke:#ababab;stroke-linecap:round;stroke-linejoin:round"></line><line x1="129.2" y1="154.46" x2="122.51" y2="154.46" style="fill:none;stroke:#ababab;stroke-linecap:round;stroke-linejoin:round"></line><line x1="129.2" y1="166.8" x2="122.51" y2="166.8" style="fill:none;stroke:#ababab;stroke-linecap:round;stroke-linejoin:round"></line><line x1="129.2" y1="179.13" x2="122.51" y2="179.13" style="fill:none;stroke:#ababab;stroke-linecap:round;stroke-linejoin:round"></line><line x1="129.2" y1="191.47" x2="122.51" y2="191.47" style="fill:none;stroke:#ababab;stroke-linecap:round;stroke-linejoin:round"></line><line x1="129.2" y1="203.8" x2="122.51" y2="203.8" style="fill:none;stroke:#ababab;stroke-linecap:round;stroke-linejoin:round"></line><line x1="129.2" y1="216.13" x2="122.51" y2="216.13" style="fill:none;stroke:#ababab;stroke-linecap:round;stroke-linejoin:round"></line><line x1="129.2" y1="228.47" x2="122.51" y2="228.47" style="fill:none;stroke:#ababab;stroke-linecap:round;stroke-linejoin:round"></line><line x1="129.2" y1="240.8" x2="122.51" y2="240.8" style="fill:none;stroke:#ababab;stroke-linecap:round;stroke-linejoin:round"></line><line x1="129.2" y1="253.14" x2="122.51" y2="253.14" style="fill:none;stroke:#ababab;stroke-linecap:round;stroke-linejoin:round"></line><line x1="129.2" y1="265.47" x2="122.51" y2="265.47" style="fill:none;stroke:#ababab;stroke-linecap:round;stroke-linejoin:round"></line><line x1="129.2" y1="277.81" x2="122.51" y2="277.81" style="fill:none;stroke:#ababab;stroke-linecap:round;stroke-linejoin:round"></line><line x1="129.2" y1="290.14" x2="122.51" y2="290.14" style="fill:none;stroke:#ababab;stroke-linecap:round;stroke-linejoin:round"></line><line x1="129.2" y1="302.47" x2="122.51" y2="302.47" style="fill:none;stroke:#ababab;stroke-linecap:round;stroke-linejoin:round"></line><line x1="129.6" y1="66.48" x2="129.6" y2="61.75" style="fill:none;stroke:#ababab;stroke-linecap:round;stroke-linejoin:round"></line><line x1="142.6" y1="66.48" x2="142.6" y2="61.75" style="fill:none;stroke:#ababab;stroke-linecap:round;stroke-linejoin:round"></line><line x1="155.61" y1="66.48" x2="155.61" y2="61.75" style="fill:none;stroke:#ababab;stroke-linecap:round;stroke-linejoin:round"></line><line x1="168.61" y1="66.48" x2="168.61" y2="61.75" style="fill:none;stroke:#ababab;stroke-linecap:round;stroke-linejoin:round"></line><line x1="181.61" y1="66.48" x2="181.61" y2="61.75" style="fill:none;stroke:#ababab;stroke-linecap:round;stroke-linejoin:round"></line><line x1="194.62" y1="66.48" x2="194.62" y2="61.75" style="fill:none;stroke:#ababab;stroke-linecap:round;stroke-linejoin:round"></line><line x1="207.62" y1="66.48" x2="207.62" y2="61.75" style="fill:none;stroke:#ababab;stroke-linecap:round;stroke-linejoin:round"></line><line x1="220.62" y1="66.48" x2="220.62" y2="61.75" style="fill:none;stroke:#ababab;stroke-linecap:round;stroke-linejoin:round"></line><line x1="233.63" y1="66.48" x2="233.63" y2="61.75" style="fill:none;stroke:#ababab;stroke-linecap:round;stroke-linejoin:round"></line><line x1="246.63" y1="66.48" x2="246.63" y2="61.75" style="fill:none;stroke:#ababab;stroke-linecap:round;stroke-linejoin:round"></line><line x1="259.63" y1="66.48" x2="259.63" y2="61.75" style="fill:none;stroke:#ababab;stroke-linecap:round;stroke-linejoin:round"></line><line x1="272.64" y1="66.48" x2="272.64" y2="61.75" style="fill:none;stroke:#ababab;stroke-linecap:round;stroke-linejoin:round"></line><line x1="285.64" y1="66.48" x2="285.64" y2="61.75" style="fill:none;stroke:#ababab;stroke-linecap:round;stroke-linejoin:round"></line><line x1="298.64" y1="66.48" x2="298.64" y2="61.75" style="fill:none;stroke:#ababab;stroke-linecap:round;stroke-linejoin:round"></line><line x1="311.65" y1="66.48" x2="311.65" y2="61.75" style="fill:none;stroke:#ababab;stroke-linecap:round;stroke-linejoin:round"></line><line x1="324.65" y1="66.48" x2="324.65" y2="61.75" style="fill:none;stroke:#ababab;stroke-linecap:round;stroke-linejoin:round"></line><line x1="337.65" y1="66.48" x2="337.65" y2="61.75" style="fill:none;stroke:#ababab;stroke-linecap:round;stroke-linejoin:round"></line><line x1="350.66" y1="66.48" x2="350.66" y2="61.75" style="fill:none;stroke:#ababab;stroke-linecap:round;stroke-linejoin:round"></line><line x1="363.66" y1="66.48" x2="363.66" y2="61.75" style="fill:none;stroke:#ababab;stroke-linecap:round;stroke-linejoin:round"></line><rect x="379.38" y="48.39" width="8.72" height="272.82" style="fill:#696969;stroke:#263238;stroke-linecap:round;stroke-linejoin:round"></rect><rect x="379.38" y="180.87" width="8.72" height="23.43" style="fill:#263238;stroke:#263238;stroke-linecap:round;stroke-linejoin:round"></rect><rect x="120.91" y="312.85" width="267.18" height="8.36" style="fill:#696969;stroke:#263238;stroke-linecap:round;stroke-linejoin:round"></rect><rect x="129.2" y="68.12" width="250.61" height="244.62" style="fill:#fff;stroke:#263238;stroke-linecap:round;stroke-linejoin:round"></rect><line x1="128.97" y1="235.78" x2="380.05" y2="235.78" style="fill:#fff;stroke:#263238;stroke-linecap:round;stroke-linejoin:round"></line><rect x="120.91" y="48.39" width="267.18" height="11.98" style="fill:#696969;stroke:#263238;stroke-linecap:round;stroke-linejoin:round"></rect><rect x="120.91" y="48.39" width="74.02" height="11.98" style="fill:#8a8a8a;stroke:#263238;stroke-linecap:round;stroke-linejoin:round"></rect><path d="M249.15,249.14c-.14-.67-1.14-1.28-2.77-1.55l-1.13-34.4a1.39,1.39,0,0,0-2.77.09l1.12,34.19c-2.21.14-4.07.86-3.88,1.67C240.09,250.76,249.71,251.82,249.15,249.14Z" style="fill:#fff;stroke:#263238;stroke-linecap:round;stroke-linejoin:round"></path><path d="M294.08,183.05s4.91,2,3.27,6.14-12.69,18.42-23.34,21.7-19.24,2.05-27.43,2.45-31.11.82-37.25,0a32.26,32.26,0,0,1-9.42-2.45s8.19,3.68,22.93-11.88S240,169.54,262.55,170,294.08,183.05,294.08,183.05Z" style="fill:#fff;stroke:#263238;stroke-linecap:round;stroke-linejoin:round"></path><path d="M217.1,185.5s-4.91-7.37-12.28-10.23-37.67-9.83-41.76-3.69,7.37,21.7,18.42,30.3,22.52,12.69,33.58,10.24S251.5,183.46,256,181s34.39.41,38.08,2.05c0,0,15.56-52,15.56-55.69s-4.92-2.86-8.6,1.64-24.16,14.74-45.45,7.78S229,116.72,220,124.09s-11.46,27-7,43.4S217.1,185.5,217.1,185.5Z" style="fill:#3179FF;stroke:#263238;stroke-linecap:round;stroke-linejoin:round"></path><path d="M194.84,202c-.75-.29-1.52-.6-2.3-.93" style="fill:none;stroke:#263238;stroke-linecap:round;stroke-linejoin:round"></path><path d="M290.39,179.77s-28.66-4.09-34-2.45-15.15,16-27.84,22.51c-10.6,5.47-19.2,6.66-29.62,3.57" style="fill:none;stroke:#263238;stroke-linecap:round;stroke-linejoin:round"></path><path d="M230.33,196.3c.5.24,1,.46,1.51.67" style="fill:none;stroke:#263238;stroke-linecap:round;stroke-linejoin:round"></path><path d="M217.1,185.5a46.52,46.52,0,0,0,11.19,9.71" style="fill:none;stroke:#263238;stroke-linecap:round;stroke-linejoin:round"></path><path d="M198,210.1a1.39,1.39,0,0,0-1.73.92l-16.87,55.06c-3.19.06-5.73,1-5.73,2.18s2.71,2.19,6.05,2.19,6.06-1,6.06-2.19c0-.88-1.45-1.64-3.54-2l16.68-54.44A1.39,1.39,0,0,0,198,210.1Z" style="fill:#fff;stroke:#263238;stroke-linecap:round;stroke-linejoin:round"></path><path d="M250.21,284.52l-1.55-73.12a1.37,1.37,0,0,0-1.42-1.36,1.39,1.39,0,0,0-1.36,1.42l1.56,73c-2.78.2-4.87,1.09-4.87,2.15s2.71,2.19,6.06,2.19,6.06-1,6.06-2.19C254.69,285.62,252.79,284.77,250.21,284.52Z" style="fill:#fff;stroke:#263238;stroke-linecap:round;stroke-linejoin:round"></path><path d="M309.12,265.2l-14.61-70.68a1.39,1.39,0,0,0-2.72.56l14.51,70.21c-1.84.25-3.14.89-3.14,1.65,0,1,2.2,1.78,4.92,1.78s4.92-.8,4.92-1.78S311.34,265.37,309.12,265.2Z" style="fill:#fff;stroke:#263238;stroke-linecap:round;stroke-linejoin:round"></path><path d="M314.72,163.56l-22.64-10.33,10.48,22.57,2.85-7.75,7.64,7.6a1.12,1.12,0,0,0,1.58-1.59l-7.77-7.72Z" style="fill:#fff;stroke:#263238;stroke-linecap:round;stroke-linejoin:round"></path><polyline points="316.51 183.06 316.51 183.56 316.01 183.56" style="fill:none;stroke:#263238;stroke-linecap:round;stroke-linejoin:round;stroke-width:0.5px"></polyline><line x1="315.11" y1="183.56" x2="308.37" y2="183.56" style="fill:none;stroke:#263238;stroke-linecap:round;stroke-linejoin:round;stroke-width:0.5px;stroke-dasharray:0.8984060287475586,0.8984060287475586"></line><polyline points="307.92 183.56 307.42 183.56 307.42 183.06" style="fill:none;stroke:#263238;stroke-linecap:round;stroke-linejoin:round;stroke-width:0.5px"></polyline><line x1="307.42" y1="182.05" x2="307.42" y2="176.44" style="fill:none;stroke:#263238;stroke-linecap:round;stroke-linejoin:round;stroke-width:0.5px;stroke-dasharray:1.018470048904419,1.018470048904419"></line><polyline points="307.42 175.94 307.42 175.44 307.92 175.44" style="fill:none;stroke:#263238;stroke-linecap:round;stroke-linejoin:round;stroke-width:0.5px"></polyline><line x1="308.82" y1="175.43" x2="315.56" y2="175.43" style="fill:none;stroke:#263238;stroke-linecap:round;stroke-linejoin:round;stroke-width:0.5px;stroke-dasharray:0.8984060287475586,0.8984060287475586"></line><polyline points="316.01 175.44 316.51 175.44 316.51 175.94" style="fill:none;stroke:#263238;stroke-linecap:round;stroke-linejoin:round;stroke-width:0.5px"></polyline><line x1="316.51" y1="176.95" x2="316.51" y2="182.55" style="fill:none;stroke:#263238;stroke-linecap:round;stroke-linejoin:round;stroke-width:0.5px;stroke-dasharray:1.018470048904419,1.018470048904419"></line><rect x="311.25" y="177.83" width="10.52" height="10.52" style="fill:#fff;stroke:#263238;stroke-linecap:round;stroke-linejoin:round"></rect><line x1="316.39" y1="179.71" x2="316.39" y2="185.97" style="fill:none;stroke:#263238;stroke-linecap:round;stroke-linejoin:round"></line><line x1="313.03" y1="183.06" x2="319.74" y2="183.06" style="fill:none;stroke:#263238;stroke-linecap:round;stroke-linejoin:round"></line><circle cx="164.45" cy="99.19" r="22.76" style="fill:#fff;stroke:#263238;stroke-linecap:round;stroke-linejoin:round"></circle><circle cx="164.45" cy="99.19" r="18.08" style="fill:#fff;stroke:#263238;stroke-linecap:round;stroke-linejoin:round"></circle><circle cx="164.45" cy="99.19" r="1.7" style="fill:#fff;stroke:#263238;stroke-linecap:round;stroke-linejoin:round"></circle><line x1="166.15" y1="99.19" x2="172.78" y2="101.77" style="fill:none;stroke:#263238;stroke-linecap:round;stroke-linejoin:round"></line><line x1="164.45" y1="97.49" x2="164.45" y2="84.66" style="fill:none;stroke:#263238;stroke-linecap:round;stroke-linejoin:round"></line></g><g id="freepik--tools-2--inject-75"><rect x="326.48" y="77.67" width="108.39" height="71.74" style="fill:#263238"></rect><rect x="363.21" y="80.66" width="71.67" height="13.79" style="fill:#fff;opacity:0.1"></rect><polygon points="363.21 94.46 363.21 80.67 326.48 80.67 326.48 149.41 434.88 149.41 434.88 94.46 363.21 94.46" style="fill:#fff;opacity:0.2"></polygon><line x1="413.07" y1="98.36" x2="418.28" y2="98.36" style="fill:none;stroke:#fff;stroke-linecap:round;stroke-linejoin:round;stroke-width:0.5px"></line><line x1="413.07" y1="100.35" x2="418.28" y2="100.35" style="fill:none;stroke:#fff;stroke-linecap:round;stroke-linejoin:round;stroke-width:0.5px"></line><line x1="413.07" y1="102.33" x2="418.28" y2="102.33" style="fill:none;stroke:#fff;stroke-linecap:round;stroke-linejoin:round;stroke-width:0.5px"></line><line x1="413.07" y1="104.32" x2="418.28" y2="104.32" style="fill:none;stroke:#fff;stroke-linecap:round;stroke-linejoin:round;stroke-width:0.5px"></line><line x1="413.07" y1="106.31" x2="418.28" y2="106.31" style="fill:none;stroke:#fff;stroke-linecap:round;stroke-linejoin:round;stroke-width:0.5px"></line><rect x="421.32" y="97.54" width="9.44" height="9.44" style="fill:#263238;opacity:0.8"></rect><rect x="422.58" y="98.61" width="1.88" height="1.88" style="fill:#fff"></rect><rect x="425.05" y="98.61" width="1.88" height="1.88" style="fill:#fff"></rect><rect x="427.52" y="98.61" width="1.88" height="1.88" style="fill:#fff"></rect><rect x="422.58" y="101.09" width="1.88" height="1.88" style="fill:#fff"></rect><rect x="425.05" y="101.09" width="1.88" height="1.88" style="fill:#fff"></rect><rect x="427.52" y="101.09" width="1.88" height="1.88" style="fill:#fff"></rect><rect x="422.58" y="103.56" width="1.88" height="1.88" style="fill:#fff"></rect><rect x="425.05" y="103.56" width="1.88" height="1.88" style="fill:#fff"></rect><rect x="427.52" y="103.56" width="1.88" height="1.88" style="fill:#fff"></rect><rect x="387.45" y="118.35" width="12.65" height="11.35" style="fill:#263238"></rect><rect x="346.42" y="118.35" width="12.65" height="11.35" style="fill:#263238"></rect><rect x="346.42" y="118.35" width="12.65" height="11.35" style="fill:#fff;opacity:0.75"></rect><rect x="332.75" y="118.35" width="12.64" height="11.35" style="fill:#fff;opacity:0.75"></rect><rect x="373.78" y="118.35" width="12.65" height="11.35" style="fill:#263238"></rect><rect x="373.78" y="118.35" width="12.65" height="11.35" style="fill:#fff;opacity:0.15"></rect><rect x="360.1" y="118.35" width="12.64" height="11.35" style="fill:#263238"></rect><rect x="360.1" y="118.35" width="12.64" height="11.35" style="fill:#fff;opacity:0.25"></rect><rect x="401.33" y="130.48" width="12.56" height="12.02" style="fill:#3179FF"></rect><g style="clip-path:url(#freepik--clip-path--inject-75)"><rect x="401.33" y="130.48" width="12.56" height="12.02" style="opacity:0.5"></rect></g><rect x="387.61" y="130.48" width="12.56" height="12.02" style="fill:#3179FF"></rect><rect x="387.61" y="130.48" width="12.56" height="12.02" style="opacity:0.2"></rect><rect x="373.9" y="130.48" width="12.56" height="12.02" style="fill:#3179FF"></rect><rect x="360.19" y="130.48" width="12.56" height="12.02" style="fill:#3179FF"></rect><rect x="360.19" y="130.48" width="12.56" height="12.02" style="fill:#3179FF;opacity:0.30000000000000004"></rect><rect x="346.47" y="130.48" width="12.56" height="12.02" style="fill:#3179FF"></rect><rect x="346.47" y="130.48" width="12.56" height="12.02" style="fill:#fff;opacity:0.6000000000000001"></rect><rect x="332.76" y="130.48" width="12.56" height="12.02" style="fill:#fff"></rect><rect x="414.98" y="130.48" width="12.56" height="12.02" style="fill:#3179FF"></rect><rect x="414.98" y="130.48" width="12.56" height="12.02" style="opacity:0.8"></rect><rect x="336.74" y="101.21" width="8.49" height="8.12" style="fill:none;stroke:#263238;stroke-linecap:round;stroke-linejoin:round;stroke-width:2px"></rect><rect x="332.78" y="96.63" width="8.49" height="8.12" style="fill:#3179FF"></rect><rect x="332.78" y="96.63" width="8.49" height="8.12" style="fill:#3179FF;opacity:0.30000000000000004"></rect><line x1="334.12" y1="87.86" x2="356.01" y2="87.86" style="fill:none;stroke:#fff;stroke-linecap:round;stroke-linejoin:round;stroke-width:2px"></line><polygon points="415.22 83.96 415.22 84.69 416.73 85.96 415.22 87.22 415.22 87.95 417.59 85.96 415.22 83.96" style="fill:#fff"></polygon><polygon points="417.81 83.96 417.81 84.69 419.32 85.96 417.81 87.22 417.81 87.95 420.18 85.96 417.81 83.96" style="fill:#fff"></polygon><line x1="423.18" y1="82.76" x2="423.18" y2="89.66" style="fill:none;stroke:#fff;stroke-linecap:round;stroke-linejoin:round;stroke-width:0.5px"></line><line x1="426.18" y1="84.86" x2="431.58" y2="84.86" style="fill:none;stroke:#fff;stroke-linecap:round;stroke-linejoin:round;stroke-width:0.5px"></line><line x1="426.18" y1="86.06" x2="431.58" y2="86.06" style="fill:none;stroke:#fff;stroke-linecap:round;stroke-linejoin:round;stroke-width:0.5px"></line><line x1="426.18" y1="87.26" x2="431.58" y2="87.26" style="fill:none;stroke:#fff;stroke-linecap:round;stroke-linejoin:round;stroke-width:0.5px"></line><line x1="426.18" y1="88.46" x2="431.58" y2="88.46" style="fill:none;stroke:#fff;stroke-linecap:round;stroke-linejoin:round;stroke-width:0.5px"></line></g><g id="freepik--tools-1--inject-75"><rect x="52.98" y="218.47" width="108.39" height="71.74" style="fill:#263238"></rect><rect x="89.7" y="221.46" width="71.67" height="13.79" style="fill:#fff;opacity:0.1"></rect><polygon points="89.7 235.26 89.7 221.47 52.98 221.47 52.98 290.2 161.37 290.2 161.37 235.26 89.7 235.26" style="fill:#fff;opacity:0.2"></polygon><rect x="63.24" y="242.01" width="8.49" height="8.12" style="fill:none;stroke:#263238;stroke-linecap:round;stroke-linejoin:round;stroke-width:2px"></rect><rect x="59.28" y="237.43" width="8.49" height="8.12" style="fill:#3179FF"></rect><rect x="59.28" y="237.43" width="8.49" height="8.12" style="fill:#3179FF;opacity:0.30000000000000004"></rect><line x1="60.61" y1="228.66" x2="82.51" y2="228.66" style="fill:none;stroke:#fff;stroke-linecap:round;stroke-linejoin:round;stroke-width:2px"></line><polygon points="141.72 224.76 141.72 225.49 143.22 226.76 141.72 228.02 141.72 228.75 144.09 226.76 141.72 224.76" style="fill:#fff"></polygon><polygon points="144.31 224.76 144.31 225.49 145.81 226.76 144.31 228.02 144.31 228.75 146.68 226.76 144.31 224.76" style="fill:#fff"></polygon><line x1="149.68" y1="223.56" x2="149.68" y2="230.46" style="fill:none;stroke:#fff;stroke-linecap:round;stroke-linejoin:round;stroke-width:0.5px"></line><line x1="152.68" y1="225.66" x2="158.07" y2="225.66" style="fill:none;stroke:#fff;stroke-linecap:round;stroke-linejoin:round;stroke-width:0.5px"></line><line x1="152.68" y1="226.86" x2="158.07" y2="226.86" style="fill:none;stroke:#fff;stroke-linecap:round;stroke-linejoin:round;stroke-width:0.5px"></line><line x1="152.68" y1="228.06" x2="158.07" y2="228.06" style="fill:none;stroke:#fff;stroke-linecap:round;stroke-linejoin:round;stroke-width:0.5px"></line><line x1="152.68" y1="229.26" x2="158.07" y2="229.26" style="fill:none;stroke:#fff;stroke-linecap:round;stroke-linejoin:round;stroke-width:0.5px"></line><line x1="85.49" y1="245.58" x2="130.04" y2="245.58" style="fill:none;stroke:#9e9e9e;stroke-miterlimit:10;stroke-width:3px"></line><polygon points="86.72 246.66 84.83 248.89 84.83 250.56 88.72 250.56 88.72 248.89 86.72 246.66" style="fill:#8f8f8f"></polygon><line x1="85.49" y1="258.07" x2="130.04" y2="258.07" style="fill:none;stroke:#3179FF;stroke-miterlimit:10;stroke-width:3px"></line><polygon points="127.65 259.14 125.77 261.38 125.77 263.05 129.66 263.05 129.66 261.38 127.65 259.14" style="fill:#8f8f8f"></polygon><line x1="85.49" y1="270.55" x2="130.04" y2="270.55" style="fill:none;stroke:#fff;stroke-miterlimit:10;stroke-width:3px"></line><polygon points="85.79 271.63 83.91 273.87 83.91 275.54 87.8 275.54 87.8 273.87 85.79 271.63" style="fill:#8f8f8f"></polygon><rect x="129.61" y="279.24" width="16.42" height="6.94" style="fill:#263238"></rect><rect x="132.15" y="266.52" width="13.41" height="6.94" style="fill:#263238"></rect><rect x="132.15" y="254.72" width="13.41" height="6.94" style="fill:#263238"></rect><rect x="132.15" y="242.93" width="13.41" height="6.94" style="fill:#263238"></rect></g><g id="freepik--Character--inject-75"><path d="M335.45,343.76s-23.1,5.25-30.19,7.35-13.65,3.68-12.34,6.83-7.09,29.4-7.09,29.4L274,416l16.8,13.13,13.39-26,12.07,59.07h81.13s-2.36-98.45-6.3-103.43-35.18-15.76-42.8-16.54A27.14,27.14,0,0,0,335.45,343.76Z" style="fill:#3179FF;stroke:#263238;stroke-linecap:round;stroke-linejoin:round"></path><path d="M373.64,400.36a176.6,176.6,0,0,1-8.88-23.1" style="fill:none;stroke:#263238;stroke-linecap:round;stroke-linejoin:round"></path><path d="M366.11,398.22a17.17,17.17,0,0,0,10.64,6.14" style="fill:none;stroke:#263238;stroke-linecap:round;stroke-linejoin:round"></path><path d="M363,392.81a16.39,16.39,0,0,0,1.54,3.17" style="fill:none;stroke:#263238;stroke-linecap:round;stroke-linejoin:round"></path><polyline points="299.71 378.65 304.21 403.09 296 378.64" style="fill:none;stroke:#263238;stroke-linecap:round;stroke-linejoin:round"></polyline><line x1="298.14" y1="370.1" x2="299.08" y2="375.24" style="fill:none;stroke:#263238;stroke-linecap:round;stroke-linejoin:round"></line><path d="M324.77,342.2s-5.95,7.19-6.44,14.13.68,29,.68,29,12.21-6.68,17.17-6.68,16.36,9.67,16.36,9.67,7.69-24.79,3.72-39.42S335.19,330.54,324.77,342.2Z" style="fill:#fff;stroke:#263238;stroke-linecap:round;stroke-linejoin:round"></path><path d="M325.27,344.68s2,9.17,3.47,15.12,5.45,19.83,7.44,18.84,10.66-21.57,10.91-26.77c.1-2.25,4.57-12.7.62-15.37C342.5,333,328.23,338,325.27,344.68Z" style="fill:#fff;stroke:#263238;stroke-linecap:round;stroke-linejoin:round"></path><path d="M328.74,359.8c.38,1.51.91,3.53,1.54,5.68,1.26-1.09,2.74-2.4,4.49-4,9.64-8.81,11.74-15.93,11.74-15.93l-20.59,2.1C326.63,350.84,327.79,356,328.74,359.8Z" style="fill:#263238;stroke:#263238;stroke-linecap:round;stroke-miterlimit:10"></path><path d="M294.23,422.52s-1.57-6.3-10.5-9.71-10-1.84-11.29.79-5.25,6.56-4.46,9.18,3.94,8.93,15.49,11.29,9.19-3.41,10.5-5S296.59,428.3,294.23,422.52Z" style="fill:#fff;stroke:#263238;stroke-linecap:round;stroke-linejoin:round"></path><path d="M208.38,446.91s-11.81,3.94-11.29,6.57,11.55-3.15,11.55-3.15,1.84,3.41,5.26,2.1.52-6.57-1.32-6.3S208.38,446.91,208.38,446.91Z" style="fill:#fff;stroke:#263238;stroke-linecap:round;stroke-linejoin:round"></path><path d="M271.65,444.81s16-8.66,16-12.86-12.08-9.71-15.23-9.45-4.46,1.31-6.82,5.25-21.53,21.79-21.53,21.79-12.6-8.93-16.28-8.93-12.08,9.72-12.6,13.66S232.54,460,239.62,460C248.35,460,271.65,444.81,271.65,444.81Z" style="fill:#fff;stroke:#263238;stroke-linecap:round;stroke-linejoin:round"></path><path d="M233.1,453.82s-9.89-11.15-22.62-6.05-11.59,13.7-11.59,13.7h37A10.19,10.19,0,0,0,233.1,453.82Z" style="fill:#fff;stroke:#263238;stroke-linecap:round;stroke-linejoin:round"></path><path d="M214,440.54s-4.55.72-5.35,1.85-5.69,7.7-4,9.1,6.71-6.48,7.79-7.08S215.32,442.29,214,440.54Z" style="fill:#fff;stroke:#263238;stroke-linecap:round;stroke-linejoin:round"></path><path d="M218.28,441.56s-1.91-2.84-4.27-1-6,9.65-5.69,11.58,3,.87,4.28-.57S218.28,441.56,218.28,441.56Z" style="fill:#fff;stroke:#263238;stroke-linecap:round;stroke-linejoin:round"></path><path d="M229.39,442.19s-5-4.2-7.88-4.46-3.94,1.83-4.2,4.2-3.94,13.12-2.89,13.65,3.15.26,4.46-2.1a102.6,102.6,0,0,0,3.94-10l2.1,1.58" style="fill:#fff;stroke:#263238;stroke-linecap:round;stroke-linejoin:round"></path><path d="M233.67,448.47s-.85,2.26-1.7,4.24-15,4.52-15.55,7.07,8.2.84,11.31.84,8.76.85,12.16-2a31.44,31.44,0,0,1,4.52-3.4" style="fill:#fff;stroke:#263238;stroke-linecap:round;stroke-linejoin:round"></path><path d="M376.93,370a67.57,67.57,0,0,0-4.2,8.67c-1.05,3.15,1.84,42,1.84,42a21.44,21.44,0,0,1,10.76-.52c5.51,1.31,16.54,7.35,16.54,7.35s1.05-11.29-.79-19.69-5.25-42.27-7.61-45.68-1.57-5.25-6.56-3.41" style="fill:#3179FF;stroke:#263238;stroke-linecap:round;stroke-linejoin:round"></path><path d="M405.55,421s-7.09-6-12.6-7.35-16,0-17.59.52-2.63,2.36-2.89,5-2.1,4.46-.79,6,8.66,6.56,14.7,8.14,15.23,1,16.54-2.89S406.86,423.83,405.55,421Z" style="fill:#fff;stroke:#263238;stroke-linecap:round;stroke-linejoin:round"></path><path d="M264.94,442.18s-8.45,3.62-11.17,4.53-3.63,3.4-1.2,4.22,13.45-3.31,14.49-3,12.38,3.93,16,4.23A10.51,10.51,0,0,0,289.7,450S272.49,439.16,264.94,442.18Z" style="fill:#fff;stroke:#263238;stroke-linecap:round;stroke-linejoin:round"></path><path d="M394.26,437.77a7.54,7.54,0,0,0,1.43-13.69,23,23,0,0,0-5.9-2.35,33.21,33.21,0,0,0-18.9,1c-2.62,1.05-61.56,19.1-65.79,19.7s-32-8.76-36.23-9.06c-5.6-.4-12.07,14.39-13.88,18.33a4.53,4.53,0,0,0-.56,2,1.63,1.63,0,0,0,1.18,1.59c.8.14,1.49-.53,2-1.16,3.73-4.65,5.78-10.73,10.49-14.4l-6.53,12.61a5.43,5.43,0,0,0-.76,2.17,1.87,1.87,0,0,0,1.05,1.88c1,.37,2.05-.54,2.68-1.44a60.56,60.56,0,0,0,3.56-6.83c1.19-2.28,2.78-4.49,5.09-5.6A70.28,70.28,0,0,0,267,456.56a1.64,1.64,0,0,0,.79,2c1,.45,1.79-.54,2.28-1.39l7-12.25q-2.78,6.34-5,12.89a1.56,1.56,0,0,0-.12.92,1.09,1.09,0,0,0,.64.67,2.27,2.27,0,0,0,2.34-.54,6.49,6.49,0,0,0,1.35-2.13c1.26-2.77,2.15-5.72,3.46-8.43,3.62.77,6.64,4.15,10.6,4.76s11.17-1.21,11.17-1.21,72-9.89,81.49-11.73A114,114,0,0,0,394.26,437.77Z" style="fill:#fff;stroke:#263238;stroke-linecap:round;stroke-linejoin:round"></path><path d="M353.75,312.44a4.78,4.78,0,0,1,5.7.64c1.58,1.53,1.18,6.91.64,10.41-1,6.85-6,8.84-6,8.84s-7.3,16.39-13.44,22-13.32,7.5-22.28-5.89c-3.94-5.9-9.89-34-9.89-34s-2.22-6.54,1.13-12S323.8,292,330.93,291.63s13.24,4,16.8,7.82,5.38,9.89,5.38,9.89l.45,3.21Z" style="fill:#fff;stroke:#263238;stroke-miterlimit:10"></path><path d="M330,321.59c.15,1.13.74,2,1.31,1.92s.9-1.06.75-2.2-.74-2-1.3-1.92S329.81,320.45,330,321.59Z" style="fill:#263238"></path><path d="M316.76,323.66c.15,1.14.73,2,1.3,1.92s.91-1.05.75-2.19-.73-2-1.3-1.92S316.61,322.53,316.76,323.66Z" style="fill:#263238"></path><path d="M335.17,314.3a8,8,0,0,0-7.55-1.43" style="fill:none;stroke:#263238;stroke-linecap:round;stroke-miterlimit:10;stroke-width:2px"></path><path d="M319.08,316.39a5.94,5.94,0,0,0-5.72,3.59" style="fill:none;stroke:#263238;stroke-linecap:round;stroke-miterlimit:10;stroke-width:2px"></path><path d="M322.92,319s1.28,10.26,1.68,12.61-2,4.36-.94,5.89,3.35.85,3.35.85" style="fill:none;stroke:#263238;stroke-linecap:round;stroke-miterlimit:10"></path><path d="M328.46,343.14s5.87-.29,8.55-4.58" style="fill:none;stroke:#263238;stroke-linecap:round;stroke-miterlimit:10"></path><path d="M334.25,283.3s-11.76-4.21-20.19-1-7.88,7.76-12.94,10.18-11.3,5.9-9.69,13.42c1.12,5.21,8.41,10,17.05,8.51s18.95-8.24,22-9.88A72,72,0,0,1,339.7,301s.54,8.55,3.87,10,4.36,2.93,5,4.53a38.75,38.75,0,0,0,2.81,4.91l2.72-.13-.5-4.88a27.45,27.45,0,0,0,1.62-14.91c-1.59-7.68-10.39-12.58-10.39-12.58Z" style="fill:#263238"></path><path d="M306.34,311.53s14.71-2.7,23.74-11.3-3.67-13.91-3.67-13.91" style="fill:none;stroke:#fff;stroke-linecap:round;stroke-miterlimit:10;stroke-width:0.431737px"></path><path d="M328.35,284.72c1.11-.42,13.09,3,13.24,8.94s-3.41,7.71-3.41,7.71" style="fill:none;stroke:#fff;stroke-linecap:round;stroke-miterlimit:10;stroke-width:0.431737px"></path></g><g id="freepik--Plant--inject-75"><path d="M64.29,389.87c1.55.68,5.36.59,5.36.59s-.82-2.49-.89-2.64c-.83-1.75-3.48-4.63-5.62-4.34a2.56,2.56,0,0,0-2.06,3.21C61.43,388.18,63,389.29,64.29,389.87Z" style="fill:#263238"></path><path d="M114.13,376.91c-2.15-.23-4.71,2.73-5.5,4.49-.07.16-.86,2.67-.82,2.67h0c-.41.46-.84,1-1.3,1.52-.85,1-1.79,2.21-2.73,3.57a44.93,44.93,0,0,0-2.83,4.5,34,34,0,0,0-2.41,5.43.64.64,0,0,1,0,.07c0-.63,0-2.41,0-2.54-.25-1.92-1.85-5.49-4-5.88a2.57,2.57,0,0,0-3,2.41c-.12,1.53,1,3.05,2.06,4s4.6,2.13,4.87,2.22a44,44,0,0,0-1.43,5.89c-.21,1.16-.38,2.33-.54,3.51,0-.55,0-1,0-1.11-.25-1.92-1.85-5.48-4-5.87a2.56,2.56,0,0,0-3,2.41c-.12,1.52,1,3,2.06,4a17,17,0,0,0,4.72,2.18c-.06.45-.12.9-.17,1.36-.26,2.17-.51,4.34-.82,6.47-.11.75-.25,1.48-.38,2.21,0-.48,0-.9,0-1-.24-1.92-1.85-5.48-4-5.88A2.56,2.56,0,0,0,88,416c-.13,1.52,1,3.05,2.06,4a16,16,0,0,0,4.57,2.13c-.15.75-.31,1.5-.5,2.22-.14.48-.24,1-.4,1.44s-.31,1-.46,1.43c-.33.89-.66,1.82-1,2.68-.23.61-.46,1.18-.7,1.75.12-.74.32-2.2.32-2.32a9.94,9.94,0,0,0-1.33-4.85,3.64,3.64,0,0,0,0-.57,2.55,2.55,0,0,0-3.13-2.17c-2.1.55-3.43,4.23-3.53,6.16,0,.12.07,1.36.13,2.15-.1-.46-.2-.9-.32-1.37-.22-.93-.46-1.84-.72-2.83-.15-.48-.29-.95-.44-1.44s-.34-1-.5-1.46c-.42-1.14-.89-2.26-1.4-3.39a16.68,16.68,0,0,0,4.84-1.81c1.14-.88,2.36-2.32,2.35-3.85A2.57,2.57,0,0,0,85,411.31c-2.16.24-4,3.67-4.42,5.57,0,.12-.15,1.51-.21,2.27-.3-.67-.61-1.35-.94-2-1-1.94-2-3.87-3-5.81-.32-.59-.62-1.18-.93-1.77.29-.07,3.72-.87,5-1.86s2.36-2.32,2.35-3.85a2.56,2.56,0,0,0-2.77-2.62c-2.16.23-4,3.66-4.42,5.56,0,.14-.21,2.15-.23,2.66-.68-1.31-1.34-2.62-2-3.93A45.52,45.52,0,0,1,71.39,400c.13,0,3.72-.84,5-1.86,1.15-.88,2.36-2.32,2.35-3.85A2.57,2.57,0,0,0,76,391.7c-2.15.24-4,3.67-4.42,5.57,0,.15-.22,2.3-.23,2.7,0-.11-.08-.22-.11-.33a33.41,33.41,0,0,1-1.1-5.77c-.12-1.08-.17-2.11-.2-3.12.68-.08,3.8-.5,5.09-1.28s2.6-2.05,2.76-3.57A2.58,2.58,0,0,0,75.33,383c-2.17,0-4.4,3.21-5,5,0,.1-.25,1.15-.4,1.92,0-.45,0-.92,0-1.36,0-1.64.11-3.14.21-4.47.07-.75.14-1.43.22-2.07.62-.43,3.13-2.2,3.9-3.47s1.37-3,.81-4.44a2.57,2.57,0,0,0-3.53-1.45c-1.93,1-2.44,4.88-2.12,6.78,0,.17.76,2.7.79,2.68l0,0c-.09.61-.17,1.27-.25,2-.13,1.33-.27,2.83-.3,4.48a43.82,43.82,0,0,0,.12,5.31,33.19,33.19,0,0,0,1,5.87.19.19,0,0,0,0,.07c-.34-.54-1.35-2-1.44-2.11-1.26-1.46-4.57-3.55-6.57-2.7a2.57,2.57,0,0,0-1.13,3.65c.73,1.34,2.5,2,3.93,2.21,1.61.23,5-.75,5.28-.83a46,46,0,0,0,2.06,5.7c.47,1.08,1,2.15,1.49,3.23-.31-.46-.59-.86-.64-.91-1.26-1.47-4.57-3.55-6.57-2.7A2.57,2.57,0,0,0,66.09,409c.73,1.34,2.5,2,3.93,2.21s4.36-.57,5.13-.78c.2.41.4.82.61,1.22,1,2,2,3.91,2.88,5.85.33.69.62,1.37.91,2.06-.27-.4-.51-.74-.55-.79-1.27-1.46-4.57-3.55-6.57-2.7a2.57,2.57,0,0,0-1.14,3.65c.74,1.34,2.5,2,3.94,2.21a16.52,16.52,0,0,0,5-.75c.28.71.56,1.42.8,2.12.15.49.34.94.46,1.43s.27,1,.4,1.44c.23.93.46,1.89.65,2.79.14.64.27,1.24.39,1.85-.31-.69-1-2-1-2.12-1-1.64-4-4.2-6.08-3.66a2.56,2.56,0,0,0-1.68,3.43,5.38,5.38,0,0,0,3.55,2.78c1.53.46,4.9,0,5.32,0,.2,1,.39,2,.55,2.92.24,1.4.45,2.69.62,3.87h-2V461.5h9.33V438H90.31c.37-.85.75-1.74,1.14-2.71s.8-2,1.21-3.07c.41.09,3.74.76,5.3.41s3.12-1.11,3.75-2.51a2.56,2.56,0,0,0-1.42-3.54c-2.05-.69-5.19,1.64-6.34,3.2-.07.09-.69,1.17-1.07,1.86l.49-1.32c.32-.89.62-1.79.95-2.76.14-.48.29-1,.43-1.44s.26-1,.39-1.5c.28-1.17.5-2.38.7-3.59.79.28,3.58,1.26,5,1.15s3.25-.63,4.09-1.91a2.56,2.56,0,0,0-.86-3.72c-1.93-1-5.38.84-6.76,2.2-.08.09-1,1.18-1.42,1.79.11-.73.23-1.46.32-2.21.27-2.15.47-4.33.68-6.51l.21-2c.28.11,3.58,1.34,5.2,1.22,1.44-.1,3.25-.63,4.09-1.91a2.57,2.57,0,0,0-.86-3.72c-1.93-1-5.38.84-6.76,2.2-.1.11-1.36,1.68-1.66,2.09.16-1.46.33-2.92.55-4.35a46.47,46.47,0,0,1,1.25-5.73c.13.05,3.57,1.35,5.23,1.23,1.44-.1,3.25-.63,4.09-1.91a2.57,2.57,0,0,0-.87-3.72c-1.92-1-5.38.84-6.75,2.2-.11.11-1.46,1.8-1.68,2.13,0-.11.05-.23.09-.34a32.63,32.63,0,0,1,2.26-5.41c.5-1,1-1.86,1.55-2.72.62.3,3.45,1.68,5,1.74s3.31-.27,4.28-1.46a2.57,2.57,0,0,0-.45-3.79c-1.81-1.2-5.44.25-7,1.45l-1.39,1.39c.25-.39.49-.79.74-1.15.9-1.37,1.82-2.56,2.64-3.61.47-.6.9-1.12,1.32-1.61.76,0,3.83-.11,5.17-.74a5.35,5.35,0,0,0,3.12-3.26A2.57,2.57,0,0,0,114.13,376.91ZM90.27,434.82c-.51,1.16-1,2.23-1.45,3.21H85.57c-.21-1.24-.45-2.61-.75-4.11-.2-1-.44-2.11-.69-3.23a27.68,27.68,0,0,0,3-1.39,18.88,18.88,0,0,0,4.32,2.79C91,433,90.65,434,90.27,434.82Z" style="fill:#263238"></path><path d="M102.78,390.7s.69-2.53.71-2.69c.27-1.92-.34-5.78-2.3-6.72a2.56,2.56,0,0,0-3.49,1.54c-.52,1.44.14,3.2.93,4.42C99.55,388.67,102.77,390.7,102.78,390.7Z" style="fill:#263238"></path></g><g id="freepik--Device--inject-75"><rect x="221.3" y="458.23" width="67.28" height="3.52" transform="translate(509.88 919.98) rotate(180)" style="fill:#fff;stroke:#263238;stroke-linecap:round;stroke-linejoin:round"></rect><rect x="186.99" y="458.23" width="84.19" height="3.52" transform="translate(458.18 919.98) rotate(180)" style="fill:#fff;stroke:#263238;stroke-linecap:round;stroke-linejoin:round"></rect><rect x="155.99" y="459.4" width="46.6" height="2.17" transform="translate(358.59 920.97) rotate(180)" style="fill:#fff;stroke:#263238;stroke-linecap:round;stroke-linejoin:round"></rect><rect x="120.16" y="382.45" width="100.44" height="64.77" transform="translate(340.76 829.68) rotate(180)" style="fill:#fff;stroke:#263238;stroke-linecap:round;stroke-linejoin:round"></rect><rect x="120.16" y="382.45" width="94.95" height="64.77" transform="translate(335.27 829.68) rotate(180)" style="fill:#263238;stroke:#263238;stroke-linecap:round;stroke-linejoin:round"></rect><rect x="154.92" y="412.55" width="21.97" height="50" transform="translate(331.81 875.11) rotate(180)" style="fill:#fff;stroke:#263238;stroke-linecap:round;stroke-linejoin:round"></rect><rect x="152.89" y="412.55" width="21.97" height="50" transform="translate(327.75 875.11) rotate(180)" style="fill:#263238;stroke:#263238;stroke-linecap:round;stroke-linejoin:round"></rect><polyline points="176.32 413.14 152.38 413.14 152.38 447.38" style="fill:none;stroke:#fff;stroke-linecap:round;stroke-linejoin:round"></polyline></g><g id="freepik--Table--inject-75"><rect x="96.37" y="461.73" width="352.96" height="7.94" transform="translate(545.69 931.39) rotate(180)" style="fill:#fff;stroke:#263238;stroke-linecap:round;stroke-linejoin:round"></rect><rect x="66.99" y="461.73" width="255.65" height="7.94" transform="translate(389.63 931.39) rotate(180)" style="fill:#263238;stroke:#263238;stroke-linecap:round;stroke-linejoin:round"></rect></g></svg>