<svg xmlns="http://www.w3.org/2000/svg" viewBox="0 0 500 500"><g id="freepik--background-simple--inject-86"><path d="M434.38,98.85l-2.43-4C411.43,61,374.34,40.65,335.23,43.13a101.08,101.08,0,0,0-15,2c-35.56,7.61-66.49,34.5-79.32,68.94-7.54,20.25-9.65,43.57-24,59.65-18.63,20.92-50.25,21.57-78.06,20.71s-59.44-.13-78,20.87c-11.61,13.16-15.3,31.87-14.36,49.48,2.47,46.64,35,88.35,76.31,109.08s90,22.58,135.23,13.46c63.37-12.77,123.63-47.85,159.86-102S463.37,157.33,434.38,98.85Z" style="fill:#f5f5f5"></path></g><g id="freepik--Table--inject-86"><path d="M463.22,466.78c0,.15-95.92.26-214.21.26s-214.23-.11-214.23-.26,95.9-.26,214.23-.26S463.22,466.64,463.22,466.78Z" style="fill:#263238"></path></g><g id="freepik--Window--inject-86"><rect x="78.8" y="317.77" width="139.42" height="84.25" style="fill:#fff"></rect><rect x="78.8" y="303.65" width="139.42" height="16.43" style="fill:#ebebeb"></rect><path d="M122.23,353.72H99.63v-22.6h22.6Zm-21.6-1h20.6v-20.6h-20.6Z" style="fill:#263238"></path><path d="M122.23,390.49H99.63V367.88h22.6Zm-21.6-1h20.6V368.88h-20.6Z" style="fill:#263238"></path><path d="M194.88,350.07h-52a6.54,6.54,0,0,1-6.54-6.54h0a6.53,6.53,0,0,1,6.54-6.53h52a6.53,6.53,0,0,1,6.54,6.53h0A6.54,6.54,0,0,1,194.88,350.07Z" style="fill:#e0e0e0"></path><circle cx="142.56" cy="342.42" r="11.03" style="fill:#3179FF"></circle><path d="M194.88,385.19h-52a6.54,6.54,0,0,1-6.54-6.53h0a6.54,6.54,0,0,1,6.54-6.54h52a6.54,6.54,0,0,1,6.54,6.54h0A6.54,6.54,0,0,1,194.88,385.19Z" style="fill:#e0e0e0"></path><circle cx="169.66" cy="377.55" r="11.03" style="fill:#3179FF"></circle><path d="M110.53,389.93c-.15,0-.26-4.8-.26-10.72s.11-10.71.26-10.71.26,4.79.26,10.71S110.67,389.93,110.53,389.93Z" style="fill:#263238"></path><path d="M121.73,379.46c0,.14-4.85.26-10.84.26s-10.83-.12-10.83-.26,4.85-.26,10.83-.26S121.73,379.31,121.73,379.46Z" style="fill:#263238"></path><path d="M218.22,402s0-.61,0-1.79,0-2.93,0-5.21c0-4.57,0-11.26,0-19.83,0-17.11-.07-41.67-.11-71.53l.21.21-139.41.05h0l.26-.26c0,35.19,0,68.6,0,98.36l-.24-.23,100.52.11L208,402l7.61,0h2.64l-.65,0h-1.94l-7.56,0-28.59.06-100.68.12h-.24V402c0-29.76,0-63.17,0-98.36v-.26h.27l139.41.05h.21v.21c-.05,29.91-.09,54.52-.11,71.67,0,8.54,0,15.22-.06,19.77,0,2.26,0,4,0,5.17S218.22,402,218.22,402Z" style="fill:#263238"></path><path d="M88.79,312a2.38,2.38,0,1,1-2.38-2.38A2.39,2.39,0,0,1,88.79,312Z" style="fill:#fff"></path><circle cx="93.6" cy="312.03" r="2.38" style="fill:#fff"></circle><circle cx="100.79" cy="312.03" r="2.38" style="fill:#fff"></circle></g><g id="freepik--Grid--inject-86"><rect x="77.81" y="95.02" width="188.79" height="186.4" style="fill:#fff"></rect><rect x="77.81" y="280.79" width="188.79" height="0.82" style="fill:#ebebeb"></rect><rect x="77.81" y="94.2" width="188.79" height="0.82" style="fill:#ebebeb"></rect><rect x="77.81" y="233.82" width="188.79" height="0.82" style="fill:#ebebeb"></rect><rect x="77.81" y="186.85" width="188.79" height="0.82" style="fill:#ebebeb"></rect><rect x="77.81" y="139.89" width="188.79" height="0.82" style="fill:#ebebeb"></rect><rect x="265.8" y="95.02" width="0.81" height="186.59" style="fill:#ebebeb"></rect><rect x="218.8" y="95.02" width="0.81" height="186.59" style="fill:#ebebeb"></rect><rect x="171.8" y="95.02" width="0.81" height="186.59" style="fill:#ebebeb"></rect><rect x="124.81" y="95.02" width="0.81" height="186.59" style="fill:#ebebeb"></rect><rect x="77.81" y="95.02" width="0.81" height="186.59" style="fill:#ebebeb"></rect><rect x="77.81" y="269.25" width="188.79" height="0.41" style="fill:#ebebeb"></rect><rect x="77.81" y="257.51" width="188.79" height="0.41" style="fill:#ebebeb"></rect><rect x="77.81" y="245.77" width="188.79" height="0.41" style="fill:#ebebeb"></rect><rect x="77.81" y="234.03" width="188.79" height="0.41" style="fill:#e0e0e0"></rect><rect x="77.81" y="222.29" width="188.79" height="0.41" style="fill:#ebebeb"></rect><rect x="77.81" y="210.54" width="188.79" height="0.41" style="fill:#ebebeb"></rect><rect x="77.81" y="198.8" width="188.79" height="0.41" style="fill:#ebebeb"></rect><rect x="77.81" y="187.06" width="188.79" height="0.41" style="fill:#e0e0e0"></rect><rect x="77.81" y="175.32" width="188.79" height="0.41" style="fill:#ebebeb"></rect><rect x="77.81" y="163.57" width="188.79" height="0.41" style="fill:#ebebeb"></rect><rect x="77.81" y="151.83" width="188.79" height="0.41" style="fill:#ebebeb"></rect><rect x="77.81" y="140.09" width="188.79" height="0.41" style="fill:#e0e0e0"></rect><rect x="77.81" y="128.35" width="188.79" height="0.41" style="fill:#ebebeb"></rect><rect x="77.81" y="116.61" width="188.79" height="0.41" style="fill:#ebebeb"></rect><rect x="77.81" y="104.86" width="188.79" height="0.41" style="fill:#ebebeb"></rect><rect x="266" y="95.02" width="0.4" height="186.59" style="fill:#ebebeb"></rect><rect x="254.25" y="95.02" width="0.4" height="186.59" style="fill:#ebebeb"></rect><rect x="242.5" y="95.02" width="0.4" height="186.59" style="fill:#ebebeb"></rect><rect x="230.75" y="95.02" width="0.4" height="186.59" style="fill:#ebebeb"></rect><rect x="219" y="95.02" width="0.4" height="186.59" style="fill:#e0e0e0"></rect><rect x="207.25" y="95.02" width="0.4" height="186.59" style="fill:#ebebeb"></rect><rect x="195.5" y="95.02" width="0.4" height="186.59" style="fill:#ebebeb"></rect><rect x="183.75" y="95.02" width="0.4" height="186.59" style="fill:#ebebeb"></rect><rect x="172" y="95.02" width="0.4" height="186.59" style="fill:#e0e0e0"></rect><rect x="160.26" y="95.02" width="0.4" height="186.59" style="fill:#ebebeb"></rect><rect x="148.51" y="95.02" width="0.4" height="186.59" style="fill:#ebebeb"></rect><rect x="136.76" y="95.02" width="0.4" height="186.59" style="fill:#ebebeb"></rect><rect x="125.01" y="95.02" width="0.4" height="186.59" style="fill:#e0e0e0"></rect><rect x="113.26" y="95.02" width="0.4" height="186.59" style="fill:#ebebeb"></rect><rect x="101.51" y="95.02" width="0.4" height="186.59" style="fill:#ebebeb"></rect><rect x="89.76" y="95.02" width="0.4" height="186.59" style="fill:#ebebeb"></rect><rect x="78.01" y="95.02" width="0.4" height="186.59" style="fill:#e0e0e0"></rect><rect x="73.95" y="90.36" width="9.32" height="9.32" style="fill:#263238"></rect><rect x="73.95" y="276.76" width="9.32" height="9.32" style="fill:#263238"></rect><rect x="261.44" y="90.36" width="9.32" height="9.32" style="fill:#263238"></rect><rect x="261.44" y="276.95" width="9.32" height="9.32" style="fill:#263238"></rect><path d="M267.06,281.61c0-1.92-.09-75-.22-187.41l.22.23-189.23,0h0l.26-.26c0,68.59,0,132.89,0,187.41l-.23-.23,189.25.23h-.86l-2.59,0-10.11,0-38.43.06-137.26.12h-.23v-.23c0-54.52,0-118.82,0-187.41v-.26h.28l189.23,0h.23v.22c-.05,56.25-.09,103.13-.12,136,0,16.38,0,29.25-.06,38,0,4.37,0,7.73,0,10,0,1.13,0,2,0,2.56S267.06,281.61,267.06,281.61Z" style="fill:#263238"></path></g><g id="freepik--Character--inject-86"><path d="M267.8,279.26c.7.39,9.26,21.79,9.76,24.26a83.08,83.08,0,0,1,1.15,20.67c-.82,8.43-2.14,20.54-2.14,20.54l-31.51.76,1.24-20.36s-5.48-6.13-5.23-10.5c.31-5.43,5.08-5.32,5.08-5.32s-2.31-6.94,4.63-7.6c0,0,3.43-7.11,8.74-5.79s7.29,3.31,7.29,3.31l-5.23-14.15a4.88,4.88,0,0,1,1.82-5.8A4,4,0,0,1,267.8,279.26Z" style="fill:#ffbe9d"></path><path d="M260.84,315.65c-.08.05-.65-.78-1.82-1.88a15.49,15.49,0,0,0-2.2-1.73,17.72,17.72,0,0,0-3-1.54,16.68,16.68,0,0,0-6.1-1.08c-1.6,0-2.59.23-2.61.14a2.27,2.27,0,0,1,.68-.22,9.81,9.81,0,0,1,1.91-.29,15.29,15.29,0,0,1,6.31,1,17,17,0,0,1,3.13,1.63,13.42,13.42,0,0,1,2.19,1.87A9.89,9.89,0,0,1,260.5,315C260.74,315.41,260.87,315.63,260.84,315.65Z" style="fill:#eb996e"></path><path d="M264.81,308.73c-.08,0-.59-.74-1.63-1.82a16.42,16.42,0,0,0-4.71-3.41,16.65,16.65,0,0,0-5.61-1.54c-1.5-.13-2.44,0-2.45-.12a6.85,6.85,0,0,1,2.47-.24,14.69,14.69,0,0,1,10.57,5.06A7.23,7.23,0,0,1,264.81,308.73Z" style="fill:#eb996e"></path><path d="M270.55,304.2a19,19,0,0,1-1.94-2.41,19.31,19.31,0,0,1-2-2.37,8.93,8.93,0,0,1,3.91,4.78Z" style="fill:#eb996e"></path><path d="M246.15,327.44a47,47,0,0,1,2.21-9.66,47,47,0,0,1-2.21,9.66Z" style="fill:#eb996e"></path><path d="M286.3,372.58l-5.25,7L277,334.42l-31.89,9.17s-3,71.23-1.9,82.94c1.18,12.78,1.44,13.42,4.68,19.25,4.15,7.46,18.6,12.66,26.85,10.48,8.41-2.23,17.1-13.43,23.7-20.14,12-12.21,30.85-35.83,30.85-35.83Z" style="fill:#ffbe9d"></path><path d="M285.48,373.67c.14.1-1.19,2-3.3,5s-5,7.3-8,12.11-5.5,9.28-7.28,12.54-2.89,5.28-3,5.21.7-2.22,2.31-5.59a142.8,142.8,0,0,1,15.32-24.75C283.81,375.28,285.37,373.58,285.48,373.67Z" style="fill:#eb996e"></path><path d="M418.86,180.44c-3.12-3.16-109.51-86.76-109.51-86.76l-19.5,26,96.48,86S422,183.59,418.86,180.44Z" style="fill:#ffbe9d"></path><path d="M309.35,93.68,295.63,69.12,278.06,54.44a4.49,4.49,0,0,0-1.21,6,28.5,28.5,0,0,0,5.78,6.5s-8.18.48-8.18,3.61c0,0-9.63,2.65-8.43,8.91,0,0-4.09,7.94-2.41,10.11a4.31,4.31,0,0,0,6.74,0c1.93-2.17,5.3-3.13,9.15-2.89s8.67,6.74,8.19,12.76-3.86,8.66-8.43,7.7-8.6-7.14-12-6.66-2.85,3.87-1,5.79,11,12.42,13,13.39,8.91-.24,10.59,0S309.35,93.68,309.35,93.68Z" style="fill:#ffbe9d"></path><path d="M286.77,80.36a7.35,7.35,0,0,0-2.06-2.5,8.17,8.17,0,0,0-3.19-1.4,17.5,17.5,0,0,0-4.32-.32,24.56,24.56,0,0,0-7.75,1.57c-1.9.73-3,1.37-3.05,1.29a3,3,0,0,1,.73-.52,18.45,18.45,0,0,1,2.18-1.11,22.27,22.27,0,0,1,7.87-1.75,16.77,16.77,0,0,1,4.45.37,8.24,8.24,0,0,1,3.31,1.58,5.94,5.94,0,0,1,1.56,1.92A1.92,1.92,0,0,1,286.77,80.36Z" style="fill:#eb996e"></path><path d="M288,72.87a29.55,29.55,0,0,0-6.34-2.18,28.8,28.8,0,0,0-6.7-.12,5.42,5.42,0,0,1,1.94-.5,15.77,15.77,0,0,1,4.85.11,15.59,15.59,0,0,1,4.59,1.56A5.45,5.45,0,0,1,288,72.87Z" style="fill:#eb996e"></path><path d="M293,72.49a17,17,0,0,0-4.66-3.84,16.72,16.72,0,0,0-5.84-1.49,4.16,4.16,0,0,1,1.82-.15A11.13,11.13,0,0,1,292,70.93,4.25,4.25,0,0,1,293,72.49Z" style="fill:#eb996e"></path><path d="M337.72,361.74a80.25,80.25,0,0,0-16.41,37.73c-4,27.71,16,37.37,16,37.37l-.49,29.94h120c-.18.2.66-50.86-.41-90.66s-18.58-80.75-18.58-80.75-15.93-9.21-27.89-8.2-64,8.13-64,8.13Z" style="fill:#3179FF"></path><path d="M345.94,295.3s-20,2.89-38.54,32C288.23,357.39,281,368.93,281,368.93l53,36.58s30.1-45.38,33.86-55.11S375.88,294.38,345.94,295.3Z" style="fill:#3179FF"></path><g style="opacity:0.2"><path d="M320.79,410.66l15.36,4.06s29.85-39.57,31-61.89L334.4,403.64l-5.16-3.35Z"></path></g><path d="M444.38,254.51s12.44,38.85,10.73,63c-1.08,15.37-1.83,26.14-1.83,26.14l-38.43-57.21Z" style="fill:#3179FF"></path><path d="M281,368.93s.1,0,.27.15l.77.47,3,1.88,11.08,7.13,38.43,24.87-.34.08,17.36-26.92c3.58-5.56,7.08-11,10.46-16.21l5-7.7a37.18,37.18,0,0,0,3.61-7.94,62.9,62.9,0,0,0,2.06-8.07,62.18,62.18,0,0,0,1-7.79,36.38,36.38,0,0,0-1.24-13.94,29.41,29.41,0,0,0-5.75-10,27.49,27.49,0,0,0-6.73-5.58,27,27,0,0,0-5.08-2.24l-1.4-.37-.47-.15s.17,0,.49.09l1.41.33a25,25,0,0,1,5.15,2.16,27.48,27.48,0,0,1,6.85,5.57,29.65,29.65,0,0,1,5.88,10.08,36.59,36.59,0,0,1,1.32,14.09,67.85,67.85,0,0,1-3.07,16,37.1,37.1,0,0,1-3.64,8.05l-5,7.72L352,376.87l-17.39,26.9-.13.21-.21-.14-38.33-25-11-7.24L282,369.62l-.75-.51A2.38,2.38,0,0,1,281,368.93Z" style="fill:#263238"></path><path d="M451.77,331.8a1.48,1.48,0,0,1,.07.3l.14.88c.12.81.28,1.94.49,3.37.43,2.94,1,7.19,1.56,12.46s1.19,11.55,1.75,18.54,1,14.68,1.32,22.76c.64,16.17.61,30.83.42,41.42-.09,5.3-.21,9.59-.33,12.55-.06,1.46-.1,2.6-.14,3.41l-.05.89a1.16,1.16,0,0,1,0,.3,1,1,0,0,1,0-.3v-.89c0-.82,0-2,0-3.41,0-3,.1-7.28.16-12.55.1-10.6.07-25.24-.57-41.4-.32-8.07-.78-15.76-1.28-22.74s-1.08-13.27-1.64-18.54-1-9.53-1.39-12.47c-.17-1.44-.3-2.58-.39-3.39,0-.36-.07-.65-.09-.88A1.43,1.43,0,0,1,451.77,331.8Z" style="fill:#263238"></path><path d="M448.24,326.69s-.09-.14-.22-.42-.31-.75-.52-1.24-.49-1.21-.84-2-.72-1.63-1.22-2.55-1-1.95-1.62-3-1.32-2.17-2.06-3.33a59.95,59.95,0,0,0-12-13.26c-1.09-.85-2.11-1.68-3.13-2.37s-1.95-1.35-2.83-1.91-1.71-1-2.42-1.45-1.35-.76-1.87-1l-1.19-.64a1.89,1.89,0,0,1-.4-.25s.16,0,.44.16l1.24.55c.54.24,1.19.55,1.92.95s1.58.83,2.47,1.4,1.88,1.14,2.89,1.86,2.07,1.51,3.18,2.36a60.43,60.43,0,0,1,6.6,6.2,62.15,62.15,0,0,1,5.54,7.16c.73,1.18,1.45,2.29,2,3.39s1.13,2.11,1.58,3.06.82,1.82,1.15,2.59.58,1.45.77,2l.43,1.29A2.51,2.51,0,0,1,448.24,326.69Z" style="fill:#263238"></path><path d="M351.93,375s-.08-.27-.32-.72a4.65,4.65,0,0,0-1.51-1.63,8.86,8.86,0,0,0-3.3-1.25c-1.37-.28-3-.23-4.75-.42a11.91,11.91,0,0,1-2.76-.6,5.83,5.83,0,0,1-2.54-1.76,6.27,6.27,0,0,1-1.28-3.05,11.64,11.64,0,0,1,.08-3.48c.38-2.35,1.37-4.64,1.69-7.13a8.28,8.28,0,0,0-.29-3.73,8.16,8.16,0,0,0-2.09-3.22,13,13,0,0,0-6.87-3.31,46.87,46.87,0,0,0-7.28-.51,35.34,35.34,0,0,1-6.66-.59,14,14,0,0,1-5.4-2.21,9.07,9.07,0,0,1-3-3.71,7.79,7.79,0,0,1-.71-3.56,5.88,5.88,0,0,1,.55-2.23,4.64,4.64,0,0,1,.3-.52c.07-.11.11-.17.12-.16a6.68,6.68,0,0,0-.77,2.91,7.8,7.8,0,0,0,.77,3.44,8.91,8.91,0,0,0,3,3.53,14,14,0,0,0,5.28,2.09,36,36,0,0,0,6.58.53,46,46,0,0,1,7.36.49,13.55,13.55,0,0,1,7.15,3.43,8.7,8.7,0,0,1,2.21,3.44,8.59,8.59,0,0,1,.3,4c-.34,2.59-1.35,4.88-1.72,7.15s-.22,4.6,1.07,6.18,3.3,2.05,5,2.26,3.36.2,4.76.51a8.91,8.91,0,0,1,3.37,1.36,4.47,4.47,0,0,1,1.48,1.75A2.32,2.32,0,0,1,351.93,375Z" style="fill:#fff"></path><path d="M453.7,368.13s0,.1-.05.3-.1.48-.19.86a17.46,17.46,0,0,1-1.2,3.19,18.88,18.88,0,0,1-3.09,4.43,18.12,18.12,0,0,1-5.83,4.13,17.59,17.59,0,0,1-8.53,1.41,18.37,18.37,0,0,1-9.31-3.4c-2.88-2.09-5.07-5.13-8.07-7.39a13.63,13.63,0,0,0-2.42-1.43,8.46,8.46,0,0,0-1.34-.46l-.68-.2-.71-.1a12.82,12.82,0,0,0-5.77.6c-3.8,1.23-7.13,3.39-10.46,5.21a33.49,33.49,0,0,1-10.27,3.9c-6.9,1.42-13.66-.21-17.76-3.65A17.12,17.12,0,0,1,361.65,365a13.55,13.55,0,0,1-.17-2c0-.57,0-1.06.07-1.45s.1-.65.14-.87a1.21,1.21,0,0,1,.06-.3,15.9,15.9,0,0,0,.1,4.55,17.11,17.11,0,0,0,6.39,10.3c4.05,3.33,10.66,4.89,17.45,3.47a33.18,33.18,0,0,0,10.11-3.88c3.32-1.81,6.66-4,10.56-5.26a13.29,13.29,0,0,1,6-.61l.74.11.73.2a10.1,10.1,0,0,1,1.4.49,14,14,0,0,1,2.51,1.49c3.08,2.34,5.26,5.38,8.06,7.41a17.88,17.88,0,0,0,9.06,3.36,17.51,17.51,0,0,0,8.35-1.31,18.1,18.1,0,0,0,5.76-4,18.4,18.4,0,0,0,4.4-7.45l.24-.85A.87.87,0,0,1,453.7,368.13Z" style="fill:#fff"></path><path d="M452,295a14.65,14.65,0,0,0-.9-3.88,12,12,0,0,0-2.33-3.59,11.6,11.6,0,0,0-4.3-2.95c-3.51-1.59-7.06.13-9.6-.78a4.14,4.14,0,0,1-2.39-1.81,2.32,2.32,0,0,1-.27-.78.93.93,0,0,1,0-.29,7.06,7.06,0,0,0,.46,1,4.05,4.05,0,0,0,2.32,1.57,11.52,11.52,0,0,0,4.28,0c.41-.05.84-.08,1.28-.1s.9,0,1.36,0a10.35,10.35,0,0,1,2.76.69,11.7,11.7,0,0,1,4.46,3.1,11.86,11.86,0,0,1,2.32,3.79,9.72,9.72,0,0,1,.62,2.92A3.81,3.81,0,0,1,452,295Z" style="fill:#fff"></path><path d="M455.78,441a1.54,1.54,0,0,1-.17.3c-.14.21-.31.5-.54.85a20.74,20.74,0,0,1-2.38,3.07,27,27,0,0,1-12.13,7.33,28.25,28.25,0,0,1-9.81,1.06A24.45,24.45,0,0,1,420,450.23c-3.46-2-6.62-4.81-10.18-7.24A26.21,26.21,0,0,0,404,439.9a13.94,13.94,0,0,0-6.57-.8,18.43,18.43,0,0,0-6.34,2.09,51.5,51.5,0,0,0-5.54,3.52c-3.52,2.5-6.93,5-10.71,6.48a30.67,30.67,0,0,1-11.11,2.11,33.68,33.68,0,0,1-9.77-1.4,34.7,34.7,0,0,1-7.45-3.31c-1-.64-1.93-1.28-2.76-1.88s-1.53-1.24-2.14-1.83l-1.58-1.59c-.44-.48-.76-.93-1-1.27l-.62-.8c-.14-.18-.21-.27-.2-.28a1.86,1.86,0,0,1,.24.25l.66.76c.29.33.63.77,1.07,1.23s1,1,1.6,1.56,1.37,1.12,2.16,1.77,1.75,1.21,2.76,1.83a35.44,35.44,0,0,0,7.4,3.21,33.88,33.88,0,0,0,9.66,1.32,30.42,30.42,0,0,0,10.95-2.12c3.69-1.43,7.06-3.95,10.58-6.46a53.36,53.36,0,0,1,5.6-3.56,19.19,19.19,0,0,1,6.52-2.15,14.47,14.47,0,0,1,6.8.83,27,27,0,0,1,5.86,3.15c3.58,2.47,6.73,5.24,10.14,7.26a24,24,0,0,0,10.58,3.34,28.09,28.09,0,0,0,9.67-1,27.28,27.28,0,0,0,12.08-7.12,23.36,23.36,0,0,0,2.44-3c.25-.34.44-.61.58-.82A2.42,2.42,0,0,1,455.78,441Z" style="fill:#fff"></path><path d="M443.16,236.73C440.66,224,435.4,212,431.4,199.61c-4.67-14.39-8.29-30.34-19.9-40-7.66-6.41-17.72-9.05-27.5-11-8.87-1.8-18.05-3.2-26.91-1.36-4.42.92-8.65,2.63-13,3.69-5.09,1.23-10.46,1.61-15.22,3.8-9.84,4.53-14.87,15.77-16.34,26.5s-.26,21.69-1.8,32.42a148.22,148.22,0,0,1-3.36,15.22c-4.54,9.79-9.51,19.58-8.8,30.07.52,7.59,4,14.62,5.68,22s1,16.33-5,21a10.92,10.92,0,0,0,18.31-7.23,7.88,7.88,0,0,0,3,2.49c3,1.37,6.49,1.09,9.79.77,9.53-.91,19.43-2,27.72-6.63l46.68-4c12,4.88,26.57-1.88,33.5-12.88S445.67,249.48,443.16,236.73Z" style="fill:#263238"></path><path d="M348.51,157.13c-4.52.91-9.28.24-13.72,1.49-6.42,1.81-11.19,7.46-13.65,13.67s-2.95,13-3.41,19.65l-1.26,17.9a55.15,55.15,0,0,1-1.6,11.4c-1.17,4.13-4.38,15.1-4.59,20.47-.68,17.45,5.56,31.63,13.34,40.45,4.12,4.66,23.29,4.78,29.39,6,2.69-2.35,9.4-2.33,12.09-4.68.46-.4-19.5-15.66-19.27-16.22a4.09,4.09,0,0,0-.27-2.9,142.76,142.76,0,0,1,6-106.27" style="fill:#263238"></path><path d="M402.53,293.76l7-109.69h0a9.2,9.2,0,0,0-8.2-9.34L352.59,162.3c-15.61-1.68-26,17.52-27,33.18-1.14,17.41-1.84,38.7.2,51.69,4.09,26.12,24.1,29.49,24.1,29.49s1.73,18.48,1.73,18.48,12.54-1.73,21.91-2.74C394.24,290.17,402.53,293.76,402.53,293.76Z" style="fill:#ffbe9d"></path><path d="M332.56,217.16a3.35,3.35,0,0,0,3.22,3.39,3.21,3.21,0,0,0,3.46-3,3.35,3.35,0,0,0-3.22-3.38A3.19,3.19,0,0,0,332.56,217.16Z" style="fill:#263238"></path><path d="M331.63,207.32c.42.44,3-1.43,6.56-1.42s6.24,1.83,6.64,1.39c.19-.2-.23-1-1.38-1.83a9.29,9.29,0,0,0-5.31-1.65,8.76,8.76,0,0,0-5.22,1.68C331.81,206.34,331.43,207.12,331.63,207.32Z" style="fill:#263238"></path><path d="M363.69,217.16a3.36,3.36,0,0,0,3.22,3.39,3.21,3.21,0,0,0,3.46-3,3.35,3.35,0,0,0-3.22-3.38A3.2,3.2,0,0,0,363.69,217.16Z" style="fill:#263238"></path><path d="M367.06,207.32c.41.44,3-1.43,6.56-1.42s6.24,1.83,6.63,1.39c.19-.2-.22-1-1.38-1.83a9.26,9.26,0,0,0-5.31-1.65,8.81,8.81,0,0,0-5.22,1.68C367.23,206.33,366.85,207.12,367.06,207.32Z" style="fill:#263238"></path><path d="M353.92,234c0-.21-2.22-.6-5.85-1.07-.92-.1-1.79-.28-1.95-.91a4.72,4.72,0,0,1,.62-2.73l2.74-7c3.8-10,6.56-18.17,6.15-18.32s-3.81,7.81-7.61,17.78c-.91,2.46-1.79,4.81-2.62,7-.35,1-1,2.23-.49,3.61a2.31,2.31,0,0,0,1.51,1.35A6.41,6.41,0,0,0,348,234C351.64,234.2,353.9,234.22,353.92,234Z" style="fill:#263238"></path><path d="M349.84,276.66s19.06,1.17,36.49-9.25c0,0-9.59,19.87-35.72,17.37Z" style="fill:#eb996e"></path><path d="M366.07,241.63a6.87,6.87,0,0,0-4.72-2.55,7.51,7.51,0,0,0-6.73,2.78l-.18.13a1.39,1.39,0,0,0,0,1.55,4.49,4.49,0,0,0,1.19,1.23,15.66,15.66,0,0,0,5.31,3.19c2,.57,4.33.21,5.46-1.37A4.33,4.33,0,0,0,366.07,241.63Z" style="fill:#eb996e"></path><path d="M364.52,236.54c-.59,0-.6,3.87-4,6.64s-7.52,2.33-7.55,2.88c-.05.24.93.76,2.69.81a9.71,9.71,0,0,0,6.3-2.18,8.5,8.5,0,0,0,3.07-5.57C365.22,237.48,364.79,236.51,364.52,236.54Z" style="fill:#263238"></path><path d="M364.85,194.44c.36,1,4,.52,8.18,1s7.65,1.68,8.21.81c.25-.42-.34-1.35-1.72-2.3a13.7,13.7,0,0,0-6.08-2.14,13.5,13.5,0,0,0-6.4.74C365.48,193.21,364.7,194,364.85,194.44Z" style="fill:#263238"></path><path d="M331.58,195.85c.63.82,3.12,0,6.1,0s5.51.56,6.1-.3c.25-.41-.14-1.23-1.25-2a8.84,8.84,0,0,0-9.82.28C331.65,194.61,331.3,195.45,331.58,195.85Z" style="fill:#263238"></path><path d="M345.26,160.55a6.21,6.21,0,0,1,2.67-3.65c7.86-6.13,18.5-8,28.36-6.48s19,6.12,27.2,11.8c7.13,4.95,13.86,11,17.48,18.88,2.55,5.57,3.41,11.74,4.24,17.82,2.06,15.05,6.1,30.13,6,45.32-.06,5.92,1,15.87,0,23.17-1.08,7.79-8.64,17.29-16.31,19l-17.29,1.73s9.36-32.29,8.64-43.93c-.64-10.2-.55-21.38-1.7-31.53a4.15,4.15,0,0,0-3-4.11l-10.8-5.52a106.4,106.4,0,0,1-10.17-5.68c-3.65-2.41-6.88-4.19-10.2-7-4.67-4-9-7.19-13.63-11.19A54,54,0,0,1,348.23,169c-2.12-3.21-3.31-7.24-2.32-11" style="fill:#263238"></path><path d="M403.27,219.83c.28-5.56,6.33-9.26,11.15-6.48,2.64,1.53,4.67,4.6,4.42,10.5-.64,15.73-16.3,11.84-16.31,11.38C402.52,235,403,226.34,403.27,219.83Z" style="fill:#ffbe9d"></path><path d="M407.58,229.47c.07-.05.27.21.72.44a2.74,2.74,0,0,0,2.05.12c1.68-.54,3.19-3.12,3.38-5.95a9.08,9.08,0,0,0-.6-4,3.13,3.13,0,0,0-2-2.18,1.38,1.38,0,0,0-1.64.68c-.23.43-.15.75-.23.77s-.33-.27-.17-.92a1.68,1.68,0,0,1,.66-1,2.11,2.11,0,0,1,1.53-.34,3.88,3.88,0,0,1,2.76,2.56,9.36,9.36,0,0,1,.77,4.42c-.23,3.17-2,6.07-4.28,6.63a3,3,0,0,1-2.49-.52C407.59,229.85,407.52,229.5,407.58,229.47Z" style="fill:#eb996e"></path><path d="M429.37,195.07c-.18.23-3.63-3.49-10.9-6.69a84.61,84.61,0,0,0-13.19-4.4c-5.08-1.36-10.76-2.57-16.61-4.39a85.28,85.28,0,0,1-27.62-14.52,73.63,73.63,0,0,1-7.06-6.33,14.71,14.71,0,0,1-2.28-2.62,21.26,21.26,0,0,1,2.63,2.26c1.65,1.49,4.1,3.58,7.27,6a91,91,0,0,0,27.45,14c5.77,1.79,11.44,3,16.53,4.48a77.11,77.11,0,0,1,13.26,4.72,37.83,37.83,0,0,1,8,5.06,19.91,19.91,0,0,1,1.89,1.77C429.2,194.8,429.4,195,429.37,195.07Z" style="fill:#455a64"></path><path d="M406.53,238.58c-.07-.31-.13-.61-.21-.92Z" style="fill:#263238"></path><path d="M406.53,238.58c1.77,8.9-3.28,18.79-11.62,22.44-4.81,2.11-10.55,2.41-14.46,5.91s-4.81,9-6.63,13.88-8.07,13.31-13.2,12.55c17.21,2.46,35.66,4.86,55.32-1.44l13.6-8.19Z" style="fill:#263238"></path><path d="M418.83,287.35a9.7,9.7,0,0,1,.82-1.59l2.48-4.46a114.09,114.09,0,0,0,7.61-17.09A69.32,69.32,0,0,0,433.69,237c-.65-10.3-4.36-21.8-12.7-30.48S402,192.77,392.6,188.39s-18.26-8.13-25-12.4a58.92,58.92,0,0,1-14.44-12.09,34.55,34.55,0,0,1-3-4.14,8.89,8.89,0,0,1-.88-1.55c.12-.08,1.36,2,4.29,5.36a61.48,61.48,0,0,0,14.54,11.63c6.75,4.13,15.41,7.86,25,12.11s20.25,9.42,28.83,18.34,12.37,20.79,13,31.29a69.16,69.16,0,0,1-4.28,27.57,103.52,103.52,0,0,1-8,17c-1.12,1.92-2.05,3.38-2.7,4.35A8,8,0,0,1,418.83,287.35Z" style="fill:#455a64"></path></g></svg>